<svg width="12" height="10" fill="none" xmlns="http://www.w3.org/2000/svg"><g clip-path="url(#clip0)" fill="#fff"><path d="M10.945 1.191h-9.89a1.23 1.23 0 00-.452.088l5.374 4.479 1.204-.965 4.216-3.513a1.217 1.217 0 00-.452-.089zm.95.503L7.927 5l3.967 3.306A.752.752 0 0012 7.93V2.07a.753.753 0 00-.105-.376zm-11.789 0A.753.753 0 000 2.07v5.86c0 .135.04.262.106.376L4.073 5 .106 1.694z"/><path d="M7.43 5.414l-1.205.965a.39.39 0 01-.248.086.39.39 0 01-.249-.086L4.57 5.414.603 8.72c.137.055.29.089.452.089h9.89c.163 0 .315-.034.452-.088L7.43 5.414z"/></g><defs><clipPath id="clip0"><path fill="#fff" d="M0 0h12v10H0z"/></clipPath></defs></svg>