<svg width="25" height="25" fill="none" xmlns="http://www.w3.org/2000/svg"><g clip-path="url(#clip0)" fill="#483F39"><path d="M19.007 16.538c-.817-.806-1.837-.806-2.648 0-.62.614-1.238 1.228-1.847 1.852-.166.172-.307.208-.51.094-.4-.219-.827-.396-1.212-.635-1.795-1.129-3.298-2.58-4.63-4.214-.66-.812-1.248-1.68-1.66-2.658-.083-.198-.067-.328.094-.49.62-.598 1.223-1.211 1.831-1.825.848-.853.848-1.852-.005-2.71-.484-.49-.967-.968-1.451-1.457-.5-.5-.994-1.004-1.498-1.499-.817-.795-1.837-.795-2.648.006C2.198 3.616 1.6 4.245.965 4.848.378 5.405.081 6.087.02 6.883c-.1 1.295.218 2.517.665 3.709.916 2.466 2.31 4.656 4.001 6.664 2.284 2.715 5.01 4.864 8.199 6.414 1.436.697 2.923 1.233 4.541 1.322 1.114.062 2.081-.219 2.856-1.088.531-.593 1.13-1.134 1.691-1.7.832-.844.838-1.863.01-2.696a833.045 833.045 0 00-2.975-2.97zm-.994-4.146l1.92-.328a8.58 8.58 0 00-2.399-4.63 8.534 8.534 0 00-4.89-2.44l-.27 1.93a6.62 6.62 0 013.787 1.889 6.62 6.62 0 011.852 3.579zm3.002-8.345A14.155 14.155 0 0012.899 0l-.27 1.93a12.273 12.273 0 017.012 3.496 12.264 12.264 0 013.439 6.633L25 11.73a14.258 14.258 0 00-3.985-7.684z"/></g><defs><clipPath id="clip0"><path fill="#fff" d="M0 0h25v25H0z"/></clipPath></defs></svg>