<svg width="12" height="12" fill="none" xmlns="http://www.w3.org/2000/svg"><path d="M9.123 7.938c-.392-.387-.881-.387-1.27 0-.298.295-.595.59-.887.89-.08.082-.148.1-.245.044-.192-.104-.397-.19-.582-.304-.861-.542-1.583-1.239-2.222-2.023-.317-.39-.6-.806-.797-1.276-.04-.095-.032-.157.045-.235.297-.287.587-.581.879-.876.407-.41.407-.89-.003-1.301-.232-.235-.464-.465-.696-.7-.24-.239-.477-.481-.72-.718-.391-.382-.88-.382-1.27.002-.3.295-.587.597-.892.887a1.447 1.447 0 00-.454.976c-.048.622.105 1.208.32 1.78.439 1.184 1.108 2.235 1.92 3.2a11.883 11.883 0 003.935 3.078c.69.335 1.403.592 2.18.634.534.03.999-.105 1.37-.522.256-.284.543-.544.812-.816.4-.405.402-.894.005-1.294-.474-.477-.951-.951-1.428-1.426zm-.477-1.99l.921-.157a4.118 4.118 0 00-1.15-2.222 4.096 4.096 0 00-2.348-1.172l-.13.927a3.18 3.18 0 011.818.906c.47.47.777 1.064.89 1.718zm1.441-4.005A6.794 6.794 0 006.19 0l-.13.926a5.891 5.891 0 013.367 1.678 5.887 5.887 0 011.65 3.184L12 5.631a6.843 6.843 0 00-1.913-3.688z" fill="#fff"/></svg>