<?xml version="1.0" standalone="no"?>
<!DOCTYPE svg PUBLIC "-//W3C//DTD SVG 20010904//EN"
 "http://www.w3.org/TR/2001/REC-SVG-20010904/DTD/svg10.dtd">
<svg version="1.0" xmlns="http://www.w3.org/2000/svg"
 width="512.000000pt" height="512.000000pt" viewBox="0 0 512.000000 512.000000"
 preserveAspectRatio="xMidYMid meet">
<metadata>
Created by potrace 1.14, written by Peter Selinger 2001-2017
</metadata>
<g transform="translate(0.000000,512.000000) scale(0.100000,-0.100000)"
fill="#000000" stroke="none">
<path d="M0 3419 l0 -1701 48 35 c26 19 121 87 212 151 91 63 172 120 180 126
133 94 1279 903 1369 967 69 48 157 111 196 138 295 206 565 399 565 405 0 4
-533 6 -1185 6 l-1185 -1 0 688 0 687 88 1 c48 0 258 1 467 2 309 2 379 4 377
15 -1 8 2 11 8 7 6 -3 8 -11 5 -16 -4 -5 3 -9 15 -9 12 0 19 4 15 9 -3 5 -1
13 5 16 6 4 9 1 8 -7 -4 -16 31 -18 51 -4 11 8 13 8 7 -1 -4 -8 -2 -13 6 -13
8 0 20 6 27 13 8 6 11 7 8 1 -5 -8 33 -11 129 -11 117 1 134 3 129 17 -4 11
-2 10 9 -2 15 -20 31 -25 20 -6 -5 8 -3 8 7 2 23 -15 268 -11 274 4 3 7 9 11
13 8 5 -3 14 6 21 20 6 14 16 22 22 18 8 -4 9 1 5 17 -6 20 -5 21 4 6 13 -20
4 -41 -12 -31 -8 5 -9 1 -5 -10 4 -9 3 -15 -2 -12 -5 3 -12 -1 -15 -10 -3 -8
-10 -12 -16 -9 -5 3 -10 2 -10 -3 0 -5 23 -9 50 -9 28 1 50 6 50 10 0 5 -8 6
-17 2 -15 -5 -16 -4 -5 7 11 11 15 10 25 -2 13 -16 67 -23 67 -9 0 5 5 9 11 9
5 0 8 -3 6 -7 -3 -5 91 -8 209 -8 126 0 213 4 211 9 -4 13 -47 15 -47 2 0 -6
-4 -5 -9 2 -4 8 -12 14 -17 15 -5 1 -8 5 -7 9 5 14 -42 3 -55 -12 -10 -11 -14
-12 -18 -2 -3 6 -10 10 -15 6 -5 -3 -8 0 -7 7 2 6 -3 14 -10 16 -8 3 -10 -1
-5 -13 4 -12 2 -15 -8 -12 -8 3 -22 -1 -31 -9 -13 -11 -21 -12 -37 -3 -16 8
-21 8 -21 -2 0 -8 -5 -6 -11 5 -5 9 -15 17 -21 17 -7 0 -6 -6 2 -15 11 -13 10
-14 -4 -9 -23 9 -15 29 12 30 20 1 72 29 72 39 0 2 -9 3 -20 2 -11 -1 -20 -4
-20 -8 0 -4 -7 -9 -14 -12 -11 -4 -13 -1 -9 10 4 11 2 14 -5 9 -7 -4 -12 -3
-12 2 0 5 19 8 43 7 52 -2 61 2 43 21 -17 16 -30 19 -21 4 3 -5 1 -10 -5 -10
-7 0 -10 6 -7 13 2 6 12 12 23 12 12 0 20 8 22 24 2 15 0 21 -7 16 -6 -3 -8
-12 -5 -18 4 -7 3 -9 -1 -4 -5 4 -19 0 -32 -8 -13 -9 -23 -11 -23 -5 0 5 4 10
9 10 5 0 8 8 6 18 -2 9 -4 20 -4 25 -1 4 -6 7 -12 7 -5 0 -7 -4 -4 -10 11 -17
-9 -40 -25 -30 -13 8 -12 10 3 10 11 0 17 6 14 13 -5 15 -108 17 -119 2 -5 -6
-8 -5 -8 3 0 6 -4 12 -10 12 -5 0 -7 -8 -4 -17 5 -17 5 -17 -9 0 -17 21 -31
22 -46 3 -9 -11 -9 -15 1 -19 7 -3 8 -6 2 -6 -5 -1 -19 6 -30 14 -14 11 -15
14 -3 9 10 -3 19 -1 22 3 3 5 -23 9 -59 10 -35 0 -64 -4 -64 -8 0 -5 6 -8 13
-7 7 2 12 -7 11 -19 0 -16 5 -23 18 -23 11 0 16 5 13 10 -9 15 21 23 42 11 15
-9 13 -10 -10 -5 -21 5 -27 3 -25 -7 2 -9 -6 -14 -22 -14 -21 0 -24 4 -22 24
2 15 0 21 -7 16 -6 -3 -14 0 -17 8 -6 17 -165 20 -176 3 -5 -7 -8 -7 -8 -1 0
15 -50 17 -68 3 -13 -11 -14 -11 -8 0 6 10 1 13 -20 10 -16 -2 -29 -8 -29 -15
0 -6 -3 -15 -7 -19 -4 -3 -6 3 -3 15 3 16 -1 21 -19 21 -12 0 -28 -6 -35 -12
-8 -7 -11 -8 -8 -2 5 8 -36 11 -143 11 -107 0 -148 -3 -143 -11 5 -7 2 -7 -8
1 -10 8 -172 11 -586 12 l-573 2 0 -1702z m1993 1646 c-10 -7 -20 -11 -23 -8
-3 2 3 9 12 14 10 6 15 17 12 27 -5 15 -4 14 6 -1 10 -15 8 -21 -7 -32z m120
25 c-3 -12 -8 -19 -11 -16 -5 6 5 36 12 36 2 0 2 -9 -1 -20z m-36 3 c-9 -2
-15 -9 -11 -14 3 -5 10 -7 15 -4 5 4 9 1 9 -4 0 -13 -10 -14 -29 -2 -17 11 -6
31 17 30 15 -1 15 -2 -1 -6z m-1263 -15 c-3 -4 -9 -8 -15 -8 -5 0 -9 4 -9 8 0
5 7 9 15 9 8 0 12 -4 9 -9z m196 8 c0 -3 -4 -8 -10 -11 -5 -3 -10 -1 -10 4 0
6 5 11 10 11 6 0 10 -2 10 -4z m397 -11 c0 -8 -4 -12 -9 -9 -5 3 -6 10 -3 15
9 13 12 11 12 -6z m94 -2 c13 -17 13 -17 -6 -3 -11 8 -22 16 -24 17 -2 2 0 3
6 3 6 0 17 -8 24 -17z m119 11 c0 -8 -19 -13 -24 -6 -3 5 1 9 9 9 8 0 15 -2
15 -3z m98 -6 c7 -7 12 -17 12 -22 0 -6 -5 -3 -11 7 -6 9 -14 15 -20 12 -5 -4
-9 -1 -9 4 0 14 13 14 28 -1z m62 -10 c10 -22 10 -22 -4 -4 -8 10 -20 15 -27
10 -8 -4 -10 -3 -5 4 11 18 24 14 36 -10z m26 13 c-3 -5 1 -11 9 -14 8 -4 12
-15 10 -27 -3 -17 0 -20 15 -15 10 3 21 1 25 -4 4 -7 -1 -8 -11 -4 -12 5 -15
3 -9 -6 6 -10 3 -11 -13 -2 -13 7 -19 19 -17 30 2 11 -3 22 -11 25 -13 5 -11
26 2 26 3 0 3 -4 0 -9z m305 -31 c-20 -15 -21 -18 -7 -29 9 -8 16 -18 16 -24
0 -5 -8 0 -19 11 -10 12 -20 21 -23 19 -2 -1 6 8 19 20 13 12 23 28 24 35 0
10 2 9 6 -1 3 -8 -4 -21 -16 -31z m-1026 21 c3 -5 2 -12 -3 -15 -5 -3 -9 1 -9
9 0 17 3 19 12 6z m952 3 c-9 -9 16 -33 27 -26 5 3 2 -5 -7 -17 -8 -13 -13
-29 -11 -36 7 -18 -16 -30 -29 -15 -9 10 -8 12 6 6 13 -4 17 -2 14 6 -2 7 -1
20 4 29 6 12 3 21 -8 30 -15 12 -16 12 -10 -5 9 -22 -9 -46 -32 -45 -12 0 -11
2 4 9 18 7 19 8 3 15 -10 4 -15 11 -12 17 3 5 13 1 21 -9 14 -17 14 -17 9 1
-6 17 8 46 22 46 3 0 3 -3 -1 -6z m-847 -14 c0 -5 -2 -10 -4 -10 -3 0 -8 5
-11 10 -3 6 -1 10 4 10 6 0 11 -4 11 -10z m254 2 c3 -5 -1 -9 -9 -9 -8 0 -12
4 -9 9 3 4 7 8 9 8 2 0 6 -4 9 -8z m45 -26 c-3 -3 -11 5 -18 17 -13 21 -12 21
5 5 10 -10 16 -20 13 -22z m129 20 c-2 -1 -14 -10 -28 -21 -18 -15 -21 -15
-11 -3 7 9 10 21 7 27 -3 5 3 7 14 4 12 -3 19 -6 18 -7z m551 -5 c22 -19 22
-20 3 -18 -12 0 -18 5 -15 10 3 5 0 7 -8 5 -8 -3 -13 -13 -11 -23 3 -14 1 -15
-10 -4 -13 12 -8 26 18 48 1 1 11 -8 23 -18z m-422 -13 c-3 -8 -6 -5 -6 6 -1
11 2 17 5 13 3 -3 4 -12 1 -19z m173 2 c-24 -15 -36 -11 -14 4 10 8 21 12 24
10 2 -3 -2 -9 -10 -14z m40 -42 c-7 -18 -9 -19 -9 -5 -1 9 -5 17 -11 17 -5 0
-10 5 -10 11 0 8 5 7 16 -2 13 -11 15 -9 9 17 -5 25 -4 26 4 7 7 -14 7 -32 1
-45z m-566 43 c-8 -8 -34 -10 -38 -2 -3 4 6 7 19 7 14 0 22 -2 19 -5z m276 -3
c0 -6 -3 -8 -7 -5 -3 4 -13 1 -22 -6 -14 -11 -14 -10 -2 6 15 20 31 22 31 5z
m108 -13 c-3 -3 -9 2 -12 12 -6 14 -5 15 5 6 7 -7 10 -15 7 -18z m-84 -1 c3
-8 2 -12 -4 -9 -6 3 -10 10 -10 16 0 14 7 11 14 -7z m-564 1 c0 -7 -30 -13
-34 -7 -3 4 4 9 15 9 10 1 19 0 19 -2z m405 -4 c-9 -8 -36 -10 -30 -2 2 4 11
8 20 8 8 0 13 -3 10 -6z m74 -8 c-12 -14 -12 -16 2 -11 9 4 16 1 16 -7 0 -11
-5 -11 -19 -4 -15 8 -17 13 -7 25 6 8 14 14 16 14 3 0 -1 -8 -8 -17z m107 -11
c-17 -16 -18 -16 -5 5 7 12 15 20 18 17 3 -2 -3 -12 -13 -22z m-331 6 c5 4 5
1 1 -6 -6 -10 -11 -10 -22 -1 -8 6 -14 14 -14 16 0 3 6 0 13 -6 8 -6 18 -7 22
-3z m81 -8 c0 -12 -4 -16 -9 -11 -5 5 -6 14 -3 20 10 15 12 14 12 -9z m300 0
c5 1 10 -4 12 -12 3 -11 2 -11 -6 0 -5 8 -13 13 -18 12 -5 -1 -10 4 -12 12 -3
11 -2 11 6 0 5 -8 13 -13 18 -12z m124 5 c0 -8 -4 -15 -10 -15 -5 0 -7 7 -4
15 4 8 8 15 10 15 2 0 4 -7 4 -15z m-306 -11 c3 -8 2 -12 -4 -9 -6 3 -10 10
-10 16 0 14 7 11 14 -7z m512 -5 c17 -18 19 -19 30 -4 7 9 14 13 16 8 3 -4 -3
-15 -12 -24 -16 -15 -19 -15 -35 7 -10 13 -21 21 -26 18 -5 -3 -9 0 -9 5 0 17
15 13 36 -10z m-896 -5 c0 -8 -19 -13 -24 -6 -3 5 1 9 9 9 8 0 15 -2 15 -3z
m30 -4 c0 -5 -5 -10 -11 -10 -5 0 -7 5 -4 10 3 6 8 10 11 10 2 0 4 -4 4 -10z
m35 0 c3 -5 1 -10 -4 -10 -6 0 -11 5 -11 10 0 6 2 10 4 10 3 0 8 -4 11 -10z
m481 -26 c1 -21 -7 -29 -8 -7 -1 4 -8 14 -17 21 -14 11 -14 11 3 5 15 -5 17
-3 11 8 -5 8 -4 11 1 6 4 -4 9 -19 10 -33z m64 32 c0 -3 -4 -8 -10 -11 -5 -3
-10 -1 -10 4 0 6 5 11 10 11 6 0 10 -2 10 -4z m58 -17 c3 -11 2 -12 -6 -1 -5
8 -12 13 -16 12 -4 -1 -12 1 -19 4 -6 2 -1 3 12 2 14 -2 27 -9 29 -17z m138 2
c20 -16 21 -20 8 -25 -14 -6 -54 9 -54 20 0 2 9 0 19 -6 32 -17 38 -11 11 10
-14 11 -21 20 -17 20 5 0 20 -9 33 -19z m66 2 c-6 -2 -10 -9 -6 -14 3 -5 0 -9
-5 -9 -12 0 -14 13 -4 23 3 4 11 7 17 6 6 0 5 -3 -2 -6z m-558 -13 c-8 -7 -64
-8 -68 -1 -3 4 13 6 34 6 21 0 36 -2 34 -5z m82 -3 c4 -3 -4 -4 -16 -2 -30 6
-40 16 -12 12 12 -2 24 -6 28 -10z m42 -12 c-3 -3 -9 2 -12 12 -6 14 -5 15 5
6 7 -7 10 -15 7 -18z m26 9 c3 -8 2 -12 -4 -9 -6 3 -10 10 -10 16 0 14 7 11
14 -7z m119 1 c4 -8 3 -16 -1 -19 -4 -3 -9 4 -9 15 -2 23 3 25 10 4z m46 -2
c0 -11 -3 -13 -6 -5 -2 6 -10 9 -15 6 -7 -4 -8 -2 -4 4 11 18 26 14 25 -5z
m121 13 c0 -2 -7 -7 -16 -10 -8 -3 -12 -2 -9 4 6 10 25 14 25 6z m151 -23 c13
-16 12 -17 -3 -4 -10 7 -18 15 -18 17 0 8 8 3 21 -13z m-727 -1 c2 -4 -4 -8
-14 -8 -10 0 -16 4 -14 8 3 4 9 8 14 8 5 0 11 -4 14 -8z m1000 0 c2 -4 -4 -8
-14 -8 -10 0 -16 4 -14 8 3 4 9 8 14 8 5 0 11 -4 14 -8z"/>
<path d="M2204 5098 c0 -21 14 -24 22 -5 3 8 18 14 34 14 26 0 28 -2 12 -14
-16 -12 -16 -14 2 -28 24 -18 39 -2 30 30 -4 14 -3 16 4 6 7 -10 14 -11 31 -2
16 9 26 9 42 0 12 -6 19 -7 16 -2 -8 13 25 13 41 0 8 -6 12 -5 12 4 0 10 3 10
12 1 9 -9 9 -15 0 -24 -19 -19 -14 -29 8 -16 11 7 19 19 17 27 -1 8 4 16 12
19 9 3 11 -1 7 -14 -7 -23 8 -52 18 -35 4 6 2 11 -5 11 -8 0 -9 3 0 13 6 8 9
17 6 21 -3 3 0 2 7 -3 7 -7 18 -6 31 0 12 7 17 7 13 1 -7 -12 12 -11 32 2 7 4
12 4 11 -1 -5 -27 1 -33 22 -22 17 9 20 8 14 -2 -6 -8 -4 -10 6 -4 8 5 11 5 7
0 -4 -4 -2 -15 5 -23 10 -13 9 -14 -3 -7 -13 8 -13 7 0 -11 14 -18 14 -18 -5
-3 -34 27 -49 34 -40 18 4 -8 15 -23 24 -33 9 -12 0 -8 -24 10 -22 16 -34 22
-28 13 7 -9 10 -19 6 -23 -4 -4 0 -4 8 -1 9 3 23 -4 35 -17 l19 -23 -23 19
c-29 25 -41 13 -16 -16 l19 -23 -25 20 c-23 19 -24 19 -10 1 13 -18 13 -19 0
-11 -13 7 -13 6 -2 -7 10 -13 10 -18 1 -24 -8 -5 -9 -3 -4 6 6 9 4 11 -5 5 -8
-5 -11 -4 -6 3 4 7 -1 10 -14 7 -11 -2 -22 1 -26 7 -4 6 -10 5 -15 -3 -6 -10
-9 -11 -9 -1 0 6 -5 12 -11 12 -5 0 -8 -4 -4 -9 3 -5 1 -12 -4 -15 -5 -4 -12
-2 -16 4 -4 6 -12 7 -18 4 -8 -5 -8 -3 1 7 15 16 16 29 2 29 -5 0 -9 -6 -7
-12 1 -8 -7 -12 -20 -10 -13 2 -23 -2 -23 -8 0 -6 6 -10 13 -9 16 3 48 -11 43
-20 -2 -3 29 -6 70 -6 55 -1 74 3 74 13 0 7 5 10 10 7 6 -4 8 -10 6 -14 -3 -4
7 -7 22 -6 16 1 26 7 24 14 -1 7 3 11 10 8 7 -2 12 -9 11 -15 -3 -14 49 -4 59
11 7 12 12 2 9 -17 -1 -5 10 -1 25 9 20 13 26 14 22 4 -8 -20 53 -19 69 1 10
13 12 13 19 -3 6 -17 7 -17 21 3 8 11 19 20 25 20 6 0 3 -10 -8 -22 -10 -13
-12 -18 -5 -11 10 9 20 9 34 2 14 -8 18 -8 13 0 -10 15 7 14 23 -1 10 -11 11
-9 5 6 -6 16 -5 17 15 6 38 -20 61 -21 54 -2 -5 14 -2 14 18 -3 l24 -20 -19
23 c-19 22 -19 23 -2 40 17 16 18 16 12 -5 -5 -15 -1 -26 16 -37 20 -14 24
-14 39 0 16 14 18 14 28 -3 6 -10 11 -13 11 -7 0 6 -7 17 -15 24 -22 18 -4 42
34 45 31 3 31 2 15 -16 -18 -20 -40 -26 -29 -9 3 6 1 10 -5 10 -7 0 -10 -6 -7
-12 2 -7 11 -13 20 -13 23 0 34 -15 11 -16 -12 0 -14 -3 -6 -6 17 -6 72 45 72
66 0 9 -9 1 -20 -17 -11 -18 -25 -30 -30 -27 -6 3 -1 15 10 27 11 12 20 25 20
29 0 10 -53 60 -58 54 -3 -3 8 -16 23 -30 16 -13 26 -27 23 -30 -3 -4 -21 7
-40 23 l-33 30 23 24 c12 14 22 28 22 34 0 5 -11 -4 -24 -21 -21 -26 -25 -28
-31 -12 -4 9 -12 17 -17 17 -6 0 -6 -6 2 -14 9 -12 8 -15 -9 -13 -12 1 -20 6
-17 13 8 21 -44 6 -64 -18 -11 -12 -19 -18 -20 -12 0 5 5 15 12 22 9 9 9 12 0
12 -7 0 -12 -6 -12 -12 0 -9 -3 -8 -10 2 -10 15 12 36 28 26 4 -2 14 -1 21 4
8 5 -2 7 -27 6 -22 0 -38 -4 -36 -7 2 -4 -3 -10 -12 -13 -11 -4 -15 -2 -11 7
3 8 0 14 -7 14 -7 0 -13 -6 -13 -14 0 -7 4 -13 9 -13 4 0 8 -4 8 -9 0 -6 -9
-9 -20 -8 -13 1 -18 8 -17 21 2 18 -4 20 -65 21 -38 0 -68 -3 -68 -7 0 -4 -5
-8 -11 -8 -5 0 -8 4 -5 8 2 4 -6 8 -20 8 -13 0 -24 -4 -24 -9 0 -4 -6 -5 -12
0 -7 4 -139 8 -293 8 -265 1 -281 0 -281 -17z m571 0 c4 -4 16 -3 26 2 11 6
20 6 24 1 6 -11 45 -11 45 -1 0 10 34 8 48 -3 7 -6 12 -6 12 0 0 5 7 10 15 10
17 0 18 -6 5 -27 -5 -8 -10 -10 -10 -4 0 6 -7 11 -15 11 -24 0 -17 -11 15 -25
17 -8 27 -18 24 -24 -3 -5 -14 -2 -25 8 -10 9 -19 13 -19 8 0 -5 -5 -1 -11 9
-5 9 -7 23 -4 30 4 6 -3 0 -15 -16 -12 -15 -26 -24 -31 -21 -6 3 -2 12 8 20
13 11 14 14 3 12 -8 -2 -18 -7 -22 -13 -5 -6 -12 -4 -18 5 -9 14 -10 12 -10
-17 0 -4 8 -8 17 -8 9 0 18 -7 20 -15 4 -13 3 -13 -6 0 -5 8 -13 11 -18 7 -4
-5 -1 -12 6 -16 9 -6 10 -11 2 -15 -6 -4 -11 -2 -11 4 0 6 -5 8 -12 4 -7 -4
-8 -3 -4 5 5 7 -2 22 -17 35 -21 19 -27 21 -31 9 -6 -15 -26 -9 -26 8 0 6 4 8
9 4 5 -3 12 -2 15 3 8 13 -52 8 -64 -5 -7 -10 -7 -10 2 -3 7 6 16 10 20 10 4
0 8 -4 8 -10 0 -5 -5 -9 -12 -7 -7 1 -12 -13 -13 -35 -1 -22 3 -34 8 -31 6 4
7 1 2 -7 -6 -9 -4 -11 5 -5 9 6 11 4 5 -6 -7 -11 -5 -11 11 1 18 14 18 14 2
-6 -10 -11 -18 -25 -18 -30 0 -4 8 3 17 16 10 14 17 28 15 33 -1 4 1 7 6 8 4
0 18 2 32 5 18 3 21 2 10 -5 -8 -5 -18 -7 -22 -5 -4 3 -8 0 -8 -6 0 -7 9 -9
23 -5 15 4 18 3 8 -3 -9 -7 -10 -12 -2 -16 10 -6 15 5 12 26 0 4 8 6 19 5 11
-1 20 -7 20 -15 0 -7 -4 -11 -9 -8 -5 3 -14 0 -20 -7 -8 -10 -7 -14 4 -14 8 0
12 3 10 7 -2 4 2 7 10 7 8 0 13 -5 12 -11 -3 -17 26 -13 54 7 21 15 31 17 48
8 17 -10 20 -9 14 5 -5 14 -3 14 15 3 16 -10 18 -16 9 -22 -8 -6 -8 -7 3 -4
15 4 15 7 8 36 -1 7 2 15 8 18 6 2 11 -3 12 -12 1 -8 3 -22 4 -30 1 -8 5 -12
9 -9 4 2 9 1 12 -3 2 -5 2 -2 1 5 -2 7 2 12 9 10 6 -2 12 0 12 3 0 3 6 14 14
23 11 13 11 20 3 28 -7 7 -12 8 -12 4 0 -5 -7 -3 -15 4 -12 10 -15 10 -15 -1
0 -10 -4 -10 -15 2 -9 9 -13 23 -9 32 9 24 19 21 33 -9 l12 -27 29 28 c17 16
30 24 30 17 0 -6 -9 -17 -20 -25 -18 -13 -19 -15 -5 -21 13 -5 14 -10 4 -27
-9 -17 -8 -20 3 -14 7 3 6 1 -3 -7 -9 -7 -19 -23 -23 -35 -7 -21 -9 -22 -34
-9 -17 8 -37 10 -55 5 -15 -4 -25 -3 -22 1 11 17 -17 21 -35 5 -12 -10 -20
-13 -25 -6 -4 7 -14 5 -31 -5 -16 -11 -24 -12 -24 -5 0 7 -4 10 -9 6 -5 -3
-13 -1 -16 5 -5 8 -11 8 -20 0 -8 -7 -20 -8 -27 -4 -19 13 -32 11 -44 -5 -9
-12 -13 -10 -26 8 -13 18 -17 19 -27 8 -6 -8 -8 -16 -5 -20 3 -3 -1 -4 -10 -3
-17 2 -46 26 -31 26 4 0 0 10 -11 23 l-19 22 23 -19 c12 -11 23 -16 23 -13 5
26 3 34 -10 52 -16 20 -16 20 7 1 12 -11 23 -16 23 -13 5 25 4 33 -4 45 -5 6
-6 12 -2 12 4 0 2 6 -5 14 -6 8 -18 12 -26 9 -8 -3 -14 -1 -14 4 0 10 135 11
145 1z m201 -5 c-3 -10 -1 -25 4 -33 8 -13 10 -13 10 -1 0 10 8 7 28 -10 15
-14 37 -24 50 -24 23 2 30 -9 12 -20 -6 -4 -8 -10 -6 -14 3 -3 -4 -7 -14 -7
-10 0 -16 4 -14 8 3 4 0 8 -6 8 -6 0 -9 4 -5 9 3 5 1 13 -5 16 -15 9 -41 -14
-33 -29 4 -6 0 -5 -9 2 -12 9 -18 10 -23 2 -5 -8 -11 -6 -19 6 -10 13 -15 14
-21 4 -6 -9 -4 -11 6 -5 8 5 11 5 7 1 -3 -4 -9 -6 -12 -4 -3 2 -11 -6 -19 -16
-19 -26 -44 -29 -42 -5 2 25 11 33 21 18 4 -8 3 -10 -4 -5 -7 4 -12 5 -12 2 0
-18 22 -12 38 12 l21 28 -24 0 c-12 0 -21 -5 -19 -11 3 -6 -5 -11 -16 -12
l-21 -2 21 30 c20 27 39 42 25 19 -3 -5 -1 -11 4 -11 6 -1 16 -2 22 -3 6 0 16
-9 23 -18 14 -19 32 -25 21 -7 -4 6 -1 10 6 8 26 -3 39 1 39 12 0 8 -4 8 -14
0 -11 -10 -16 -8 -21 9 -3 11 -11 18 -16 15 -5 -4 -4 5 3 19 13 30 22 35 14 9z
m-686 -13 c0 -5 -5 -10 -11 -10 -5 0 -7 5 -4 10 3 6 8 10 11 10 2 0 4 -4 4
-10z m456 -23 c4 -4 13 -2 20 4 10 9 15 7 20 -5 3 -9 10 -13 15 -10 5 3 9 0 9
-5 0 -11 -4 -13 -37 -14 -10 -1 -23 -8 -29 -16 -9 -12 -12 -12 -20 0 -14 22
-12 57 2 55 8 -1 17 -5 20 -9z m454 3 c0 -3 11 -18 25 -33 14 -15 20 -27 14
-27 -6 0 -18 8 -26 18 -8 9 -12 12 -8 5 3 -7 -2 -24 -11 -38 -9 -14 -13 -25
-10 -25 4 0 1 -6 -6 -14 -18 -19 -30 -9 -18 15 6 11 8 25 4 31 -5 7 -2 9 9 5
9 -3 18 -3 21 1 3 4 -5 9 -16 9 -11 1 -22 4 -25 7 -7 7 6 26 18 26 6 0 7 -4 4
-10 -3 -5 -2 -10 3 -10 6 0 12 6 15 13 3 9 -6 13 -30 14 -20 0 -32 -2 -27 -6
5 -3 10 -13 10 -21 1 -8 3 -19 4 -25 5 -20 0 -45 -9 -45 -5 0 -9 12 -10 28 -1
54 -2 62 -13 62 -7 0 -7 5 1 14 10 12 81 18 81 6z m-616 -120 c3 -3 -12 -6
-34 -6 -21 0 -37 3 -35 6 5 8 61 7 69 0z"/>
<path d="M2676 5088 c3 -5 10 -6 15 -3 13 9 11 12 -6 12 -8 0 -12 -4 -9 -9z"/>
<path d="M2790 5080 c0 -5 5 -10 11 -10 5 0 7 5 4 10 -3 6 -8 10 -11 10 -2 0
-4 -4 -4 -10z"/>
<path d="M2680 5005 c-7 -8 -9 -15 -5 -15 5 0 0 -9 -9 -19 -10 -10 -13 -22 -8
-25 5 -3 17 3 27 14 10 11 23 17 29 13 6 -4 3 3 -7 14 -9 11 -14 23 -10 26 3
4 4 7 1 7 -3 0 -11 -7 -18 -15z m14 -14 c3 -4 -4 -17 -17 -27 -22 -19 -22 -19
-4 2 9 11 14 24 10 27 -3 4 -4 7 0 7 3 0 8 -4 11 -9z"/>
<path d="M2750 4975 c-10 -12 -7 -13 14 -9 14 2 26 0 26 -6 0 -5 5 -10 11 -10
14 0 2 18 -21 30 -13 7 -21 6 -30 -5z"/>
<path d="M2921 4971 c-8 -5 -9 -11 -3 -15 5 -3 12 1 16 9 6 17 6 18 -13 6z"/>
<path d="M2724 5049 c-4 -7 -3 -9 4 -5 5 3 13 0 15 -6 4 -9 6 -10 6 -1 1 17
-16 25 -25 12z"/>
<path d="M2765 5049 c-4 -6 -5 -12 -2 -15 2 -3 7 2 10 11 7 17 1 20 -8 4z"/>
<path d="M3206 5103 c-6 -14 -5 -15 5 -6 7 7 10 15 7 18 -3 3 -9 -2 -12 -12z"/>
<path d="M3304 5093 c-14 -18 -24 -24 -34 -18 -11 7 -10 10 6 16 16 6 16 8 2
8 -9 1 -20 -4 -24 -10 -8 -14 16 -31 34 -24 16 6 55 -19 45 -28 -3 -4 -1 -7 5
-7 19 0 14 18 -8 30 -11 6 -20 16 -20 22 0 6 6 5 17 -3 11 -10 14 -10 9 -1 -4
6 -2 12 3 12 6 0 11 5 11 11 0 8 -6 7 -17 -2 -15 -12 -16 -12 -10 4 9 24 4 21
-19 -10z"/>
<path d="M3420 5110 c0 -7 -3 -10 -6 -7 -8 8 -64 -24 -64 -36 0 -5 12 1 26 12
15 11 30 18 34 16 10 -6 24 14 16 22 -3 4 -6 0 -6 -7z"/>
<path d="M3480 5112 c0 -7 -6 -11 -12 -9 -8 1 -13 -8 -13 -23 0 -15 5 -24 13
-22 8 1 11 -6 8 -23 -3 -14 -1 -25 4 -25 5 0 8 12 6 28 -1 15 -8 26 -14 25 -7
-2 -12 6 -12 18 0 11 4 18 9 14 11 -6 26 13 17 22 -3 4 -6 1 -6 -5z"/>
<path d="M3557 5113 c-10 -9 -9 -23 1 -23 5 0 9 7 9 15 0 17 -1 18 -10 8z"/>
<path d="M3600 5111 c0 -6 4 -13 10 -16 6 -3 7 1 4 9 -7 18 -14 21 -14 7z"/>
<path d="M3820 5106 c0 -2 8 -10 18 -17 15 -13 16 -12 3 4 -13 16 -21 21 -21
13z"/>
<path d="M2350 5090 c0 -5 -5 -9 -11 -7 -6 1 -17 -7 -25 -19 -12 -18 -12 -21
0 -21 8 0 14 5 13 11 -1 6 7 10 18 9 14 -1 21 4 22 17 1 11 -2 20 -8 20 -5 0
-9 -4 -9 -10z"/>
<path d="M2412 5093 c-6 -3 -9 -10 -5 -16 5 -8 2 -8 -9 0 -8 7 -18 10 -22 6
-4 -4 8 -15 26 -25 32 -17 32 -18 10 -24 -23 -6 -23 -7 -3 -21 12 -8 18 -20
14 -29 -5 -12 -7 -12 -20 3 -8 10 -11 11 -7 3 5 -10 -1 -8 -16 5 l-23 20 7
-20 c5 -15 4 -17 -4 -9 -6 6 -12 21 -13 32 -1 15 -7 20 -22 18 -11 -2 -30 3
-42 11 -12 8 -27 12 -33 8 -12 -7 -4 -25 11 -25 6 0 7 5 3 12 -4 7 -3 8 5 4 6
-4 8 -12 5 -18 -5 -7 -1 -9 9 -5 10 3 17 3 17 -2 0 -5 8 -8 18 -7 9 0 17 -6
17 -14 0 -8 -8 -14 -17 -14 -23 2 -23 -10 -1 -27 11 -10 14 -10 9 -1 -4 6 -4
12 1 13 4 0 20 2 35 4 16 2 34 -2 40 -9 10 -9 17 -8 31 6 24 25 24 25 2 43
l-20 15 20 -6 c16 -5 17 -4 5 5 -18 13 -1 14 19 2 13 -8 13 -12 0 -27 -12 -16
-12 -17 4 -11 26 10 50 -2 37 -18 -8 -9 -8 -15 0 -20 6 -4 9 -1 8 7 -3 13 29
19 47 8 24 -15 40 -4 41 28 1 18 -3 35 -8 38 -4 3 -6 10 -2 15 4 6 11 6 19 -1
10 -9 13 -7 10 7 -2 10 -4 22 -4 27 -1 6 -8 1 -16 -10 -9 -12 -13 -13 -10 -4
4 11 -1 16 -15 17 -11 1 -20 -4 -20 -10 0 -7 -4 -6 -11 3 -9 13 -10 13 -6 -1
3 -9 1 -21 -5 -27 -12 -12 -1 -35 13 -27 5 4 9 1 9 -5 0 -6 8 -10 17 -8 12 2
18 -4 19 -18 1 -12 -5 -21 -13 -21 -9 0 -10 4 -3 11 15 15 12 26 -5 20 -8 -4
-12 -11 -9 -16 4 -6 -1 -6 -13 1 -11 6 -23 7 -27 4 -3 -3 -6 -1 -6 6 0 7 -4
10 -9 6 -11 -6 -36 33 -27 42 9 9 25 -7 20 -21 -3 -7 1 -13 8 -13 7 0 22 -4
32 -9 12 -5 8 4 -12 23 -18 16 -28 34 -24 38 4 5 -5 2 -19 -7 -22 -14 -30 -15
-44 -4 -14 10 -15 15 -5 21 9 6 11 4 5 -6 -8 -12 -6 -12 8 0 9 7 17 16 17 19
0 3 -3 2 -7 -1 -3 -4 -11 -3 -17 2 -6 4 -17 6 -24 4z m162 -35 c1 -7 5 -18 9
-25 6 -10 -11 -11 -33 -3 -3 1 -8 2 -12 1 -13 -2 -9 8 10 27 19 20 22 20 26 0z"/>
<path d="M2555 5051 c-3 -5 -2 -12 3 -15 5 -3 9 1 9 9 0 17 -3 19 -12 6z"/>
<path d="M3748 5093 c7 -3 16 -2 19 1 4 3 -2 6 -13 5 -11 0 -14 -3 -6 -6z"/>
<path d="M4015 5089 c-4 -6 -5 -12 -2 -15 2 -3 7 2 10 11 7 17 1 20 -8 4z"/>
<path d="M3490 5077 c0 -5 7 -6 16 -3 12 5 14 1 8 -17 -7 -25 -2 -22 14 9 9
17 8 20 -14 20 -13 0 -24 -4 -24 -9z"/>
<path d="M3580 5086 c0 -2 7 -7 16 -10 8 -3 12 -2 9 4 -6 10 -25 14 -25 6z"/>
<path d="M3776 5073 c-6 -14 -5 -15 5 -6 7 7 10 15 7 18 -3 3 -9 -2 -12 -12z"/>
<path d="M3936 5081 c-3 -4 6 -7 19 -7 14 0 22 2 19 5 -8 8 -34 10 -38 2z"/>
<path d="M3387 5069 c-24 -14 -6 -36 28 -36 30 0 37 8 23 27 -8 12 -9 12 -4
-2 6 -21 -7 -24 -23 -4 -9 11 -9 15 1 19 7 3 9 6 3 6 -5 0 -18 -4 -28 -10z
m18 -19 c3 -5 2 -10 -4 -10 -5 0 -13 5 -16 10 -3 6 -2 10 4 10 5 0 13 -4 16
-10z"/>
<path d="M3550 5070 c0 -5 5 -10 11 -10 5 0 7 5 4 10 -3 6 -8 10 -11 10 -2 0
-4 -4 -4 -10z"/>
<path d="M2630 5066 c0 -2 7 -7 16 -10 8 -3 12 -2 9 4 -6 10 -25 14 -25 6z"/>
<path d="M3860 5066 c0 -2 8 -10 18 -17 15 -13 16 -12 3 4 -13 16 -21 21 -21
13z"/>
<path d="M4175 5060 c3 -5 8 -10 11 -10 2 0 4 5 4 10 0 6 -5 10 -11 10 -5 0
-7 -4 -4 -10z"/>
<path d="M2343 5048 c10 -5 15 -13 13 -17 -3 -4 4 -12 15 -19 21 -14 26 -3 7
17 -7 8 -8 11 -3 8 6 -3 17 -2 25 4 8 5 11 9 5 9 -5 1 -26 3 -44 5 -27 2 -31
1 -18 -7z"/>
<path d="M3692 5040 c0 -14 2 -19 5 -12 2 6 2 18 0 25 -3 6 -5 1 -5 -13z"/>
<path d="M3290 5040 c0 -5 6 -13 13 -17 8 -4 19 -17 25 -28 6 -11 12 -15 12
-8 0 7 10 17 22 24 18 10 20 9 15 -5 -4 -10 -3 -15 2 -11 5 3 12 -1 14 -7 4
-8 6 -9 6 -2 1 7 -7 20 -16 31 -10 10 -17 17 -16 14 2 -2 -5 -9 -14 -16 -13
-10 -19 -9 -33 4 -9 9 -15 19 -13 24 2 4 -1 7 -6 7 -6 0 -11 -4 -11 -10z"/>
<path d="M3530 5042 c0 -5 7 -9 15 -9 8 0 12 4 9 9 -3 4 -9 8 -15 8 -5 0 -9
-4 -9 -8z"/>
<path d="M3570 5042 c0 -5 7 -9 15 -9 8 0 12 4 9 9 -3 4 -9 8 -15 8 -5 0 -9
-4 -9 -8z"/>
<path d="M3610 5038 c0 -4 4 -8 9 -8 6 0 12 4 15 8 3 5 -1 9 -9 9 -8 0 -15 -4
-15 -9z"/>
<path d="M3713 5031 c0 -11 5 -18 9 -15 4 3 5 11 1 19 -7 21 -12 19 -10 -4z"/>
<path d="M3765 5040 c-2 -3 7 -6 21 -6 13 0 24 3 24 7 0 9 -40 8 -45 -1z"/>
<path d="M3840 5046 c0 -2 8 -10 18 -17 15 -13 16 -12 3 4 -13 16 -21 21 -21
13z"/>
<path d="M3916 5013 c-6 -14 -5 -15 5 -6 7 7 10 15 7 18 -3 3 -9 -2 -12 -12z"/>
<path d="M4254 5016 c1 -8 5 -18 8 -22 4 -3 5 1 4 10 -1 8 -5 18 -8 22 -4 3
-5 -1 -4 -10z"/>
<path d="M2242 5008 c-20 -20 -14 -27 19 -23 48 6 53 17 14 29 -12 3 -26 1
-33 -6z"/>
<path d="M3413 5001 c2 -14 9 -27 15 -29 7 -2 10 -8 6 -13 -3 -5 2 -12 10 -15
9 -3 13 -11 9 -17 -4 -6 -1 -7 7 -2 10 6 10 11 -3 20 -9 7 -14 15 -10 18 3 4
-2 9 -11 13 -9 3 -14 9 -12 13 3 4 0 13 -5 21 -7 11 -8 9 -6 -9z"/>
<path d="M3445 5005 c11 -9 19 -19 18 -23 -2 -4 7 -7 20 -7 12 0 21 5 20 13
-2 6 4 12 12 12 8 0 15 5 15 10 0 7 -7 7 -20 0 -11 -6 -18 -15 -15 -21 4 -5
-3 -9 -15 -9 -12 0 -19 4 -15 9 3 6 -5 15 -17 21 -22 11 -22 11 -3 -5z"/>
<path d="M3556 5003 c-4 -9 -4 -14 0 -10 4 4 13 -1 21 -11 12 -15 13 -14 2 8
-16 33 -16 33 -23 13z"/>
<path d="M3806 5005 c-11 -8 -15 -15 -9 -15 6 0 16 7 23 15 16 19 11 19 -14 0z"/>
<path d="M2310 5000 c0 -5 5 -10 10 -10 6 0 10 5 10 10 0 6 -4 10 -10 10 -5 0
-10 -4 -10 -10z"/>
<path d="M3641 4996 c-9 -11 -9 -16 0 -22 8 -5 9 -3 4 6 -6 10 -4 12 8 7 11
-4 14 -2 10 9 -6 17 -8 17 -22 0z"/>
<path d="M3954 4996 c1 -8 5 -18 8 -22 4 -3 5 1 4 10 -1 8 -5 18 -8 22 -4 3
-5 -1 -4 -10z"/>
<path d="M4039 4993 c-13 -16 -12 -17 4 -4 9 7 17 15 17 17 0 8 -8 3 -21 -13z"/>
<path d="M3597 4989 c7 -7 15 -10 18 -7 3 3 -2 9 -12 12 -14 6 -15 5 -6 -5z"/>
<path d="M4315 4989 c-4 -6 -5 -12 -2 -15 2 -3 7 2 10 11 7 17 1 20 -8 4z"/>
<path d="M3354 4982 c3 -6 1 -12 -6 -14 -8 -3 -7 -6 3 -10 27 -10 40 6 18 21
-12 7 -18 8 -15 3z"/>
<path d="M3535 4980 c3 -5 -1 -10 -9 -10 -9 0 -16 -5 -16 -10 0 -7 7 -7 20 0
17 9 20 30 4 30 -3 0 -2 -4 1 -10z"/>
<path d="M3750 4986 c0 -2 7 -7 16 -10 8 -3 12 -2 9 4 -6 10 -25 14 -25 6z"/>
<path d="M3830 4986 c0 -2 7 -7 16 -10 8 -3 12 -2 9 4 -6 10 -25 14 -25 6z"/>
<path d="M3906 4982 c-2 -4 4 -8 14 -8 10 0 16 4 14 8 -3 4 -9 8 -14 8 -5 0
-11 -4 -14 -8z"/>
<path d="M4215 4981 c-3 -5 -2 -12 3 -15 5 -3 9 1 9 9 0 17 -3 19 -12 6z"/>
<path d="M2203 4973 c-18 -6 -16 -20 3 -27 16 -6 44 9 44 23 0 8 -30 10 -47 4z"/>
<path d="M3669 4963 c-13 -16 -12 -17 4 -4 9 7 17 15 17 17 0 8 -8 3 -21 -13z"/>
<path d="M3303 4955 c-19 -21 -16 -27 7 -13 11 7 20 16 20 20 0 12 -14 9 -27
-7z"/>
<path d="M3554 4955 c-4 -8 -11 -12 -17 -8 -6 3 -7 1 -3 -5 10 -16 14 -15 26
8 6 11 8 20 5 20 -3 0 -8 -7 -11 -15z"/>
<path d="M3746 4962 c-3 -5 1 -9 9 -9 8 0 12 4 9 9 -3 4 -7 8 -9 8 -2 0 -6 -4
-9 -8z"/>
<path d="M3816 4953 c-6 -14 -5 -15 5 -6 7 7 10 15 7 18 -3 3 -9 -2 -12 -12z"/>
<path d="M4025 4960 c-3 -6 1 -7 9 -4 18 7 21 14 7 14 -6 0 -13 -4 -16 -10z"/>
<path d="M3482 4947 c10 -8 14 -18 10 -22 -4 -5 -1 -5 6 -1 17 10 15 14 -10
26 -21 10 -21 10 -6 -3z"/>
<path d="M3640 4951 c0 -6 4 -13 10 -16 6 -3 7 1 4 9 -7 18 -14 21 -14 7z"/>
<path d="M3326 4934 c-11 -8 -16 -14 -10 -14 13 0 39 18 34 24 -3 2 -14 -2
-24 -10z"/>
<path d="M3398 4943 c13 -3 19 -9 16 -15 -4 -7 -2 -8 5 -4 17 11 3 26 -22 25
-22 -2 -22 -2 1 -6z"/>
<path d="M3590 4940 c0 -5 5 -10 10 -10 6 0 10 5 10 10 0 6 -4 10 -10 10 -5 0
-10 -4 -10 -10z"/>
<path d="M3780 4940 c-9 -6 -10 -10 -3 -10 6 0 15 5 18 10 8 12 4 12 -15 0z"/>
<path d="M3840 4940 c-9 -6 -10 -10 -3 -10 6 0 15 5 18 10 8 12 4 12 -15 0z"/>
<path d="M3900 4946 c0 -2 8 -10 18 -17 15 -13 16 -12 3 4 -13 16 -21 21 -21
13z"/>
<path d="M5024 3512 c-21 -16 -100 -71 -174 -124 -392 -276 -814 -574 -965
-681 -332 -235 -733 -517 -831 -586 -28 -20 -166 -117 -306 -216 l-255 -180
1191 -5 1191 -5 0 -685 0 -685 -322 0 c-178 0 -323 -4 -323 -8 0 -4 -8 -4 -17
2 -10 5 -26 5 -39 1 -12 -5 -24 -6 -27 -3 -3 2 -41 4 -84 4 -43 -1 -87 -1 -98
-1 -151 2 -196 0 -205 -5 -5 -3 -10 -2 -10 4 0 5 -10 8 -22 6 -38 -8 -285 -8
-297 -1 -6 4 -11 3 -11 -2 0 -5 -17 -6 -40 -2 -36 7 -40 5 -41 -14 0 -21 -1
-21 -9 -1 -5 11 -9 16 -9 10 -1 -5 -6 -3 -11 5 -7 11 -10 11 -10 2 0 -7 -4
-10 -10 -7 -6 3 -10 -4 -11 -17 -1 -22 -2 -19 -15 20 -2 8 -9 10 -16 5 -7 -4
-21 -6 -32 -4 -12 2 -16 -2 -11 -11 3 -7 0 -6 -7 3 -10 12 -19 14 -38 7 -15
-5 -26 -5 -28 0 -1 5 -14 7 -27 4 -14 -2 -22 -9 -19 -16 3 -6 0 -4 -8 4 -13
15 -101 22 -92 8 2 -4 0 -9 -6 -13 -5 -3 4 -20 20 -37 17 -17 28 -33 26 -36
-3 -2 -17 10 -32 27 -20 24 -32 30 -48 26 -11 -4 -16 -3 -11 2 6 4 11 17 13
28 2 18 1 18 -18 -4 -11 -13 -20 -27 -20 -32 0 -8 23 -13 44 -10 14 3 54 -51
49 -66 -5 -12 -7 -12 -14 -2 -4 7 -6 16 -4 20 3 3 -4 14 -15 24 -22 20 -28 7
-7 -14 10 -11 8 -11 -10 0 -12 7 -19 17 -17 21 3 4 -2 8 -11 8 -9 0 -14 -3
-11 -8 2 -4 -12 -7 -32 -7 -24 0 -36 5 -35 13 2 6 -2 12 -7 12 -6 0 -10 -6
-10 -13 0 -20 21 -36 38 -30 9 4 13 2 9 -4 -4 -6 -18 -10 -32 -10 -19 0 -25 4
-21 14 3 8 1 13 -5 11 -6 -2 -11 -8 -11 -13 0 -6 -4 -15 -9 -21 -6 -7 4 -10
32 -10 26 1 45 7 53 19 7 9 17 17 21 17 4 0 2 -7 -5 -15 -11 -13 -9 -15 10
-13 13 2 24 -3 26 -10 1 -7 0 -8 -3 -2 -8 16 -26 12 -20 -5 4 -8 -4 -22 -18
-34 -30 -23 -33 -36 -5 -21 15 8 20 8 20 -2 0 -9 3 -10 8 -2 4 6 16 8 26 4 11
-3 39 -3 63 0 27 4 43 3 43 -3 0 -6 7 -2 16 9 8 10 13 14 10 8 -4 -7 6 -14 24
-16 27 -4 30 -2 24 16 -5 19 -5 19 7 5 21 -24 59 -31 59 -11 0 11 3 13 8 6 7
-12 132 -24 132 -14 0 3 27 5 60 5 33 0 60 -2 60 -5 0 -3 22 -5 49 -5 27 0 47
3 45 7 -2 4 1 10 7 14 7 4 9 3 5 -4 -3 -6 -2 -13 4 -17 5 -3 10 1 10 9 0 8 4
17 9 20 5 3 8 -2 7 -11 0 -9 5 -18 13 -21 8 -3 11 0 7 6 -3 6 -1 14 5 18 7 4
9 3 5 -4 -3 -6 -2 -13 4 -17 5 -3 10 2 10 11 0 16 1 16 15 -2 13 -16 16 -17
25 -4 7 11 10 11 10 2 0 -7 5 -10 10 -7 6 4 8 10 6 14 -3 4 1 8 8 8 8 0 12 -6
9 -14 -3 -7 0 -13 5 -13 6 0 13 8 15 18 4 15 5 15 6 -2 1 -15 4 -16 16 -6 8 7
15 8 15 3 0 -11 29 -11 48 1 6 4 12 4 12 -1 0 -12 1240 -11 1241 2 5 36 3
3385 -2 3385 -3 0 -23 -13 -45 -28z m-1989 -3210 c15 -8 16 -11 5 -12 -18 0
-40 19 -40 35 0 7 3 6 8 -1 4 -6 16 -16 27 -22z m25 18 c0 -5 -4 -10 -10 -10
-5 0 -10 5 -10 10 0 6 5 10 10 10 6 0 10 -4 10 -10z m60 0 c0 -5 -4 -10 -10
-10 -5 0 -10 5 -10 10 0 6 5 10 10 10 6 0 10 -4 10 -10z m60 0 c0 -5 -4 -10
-10 -10 -5 0 -10 5 -10 10 0 6 5 10 10 10 6 0 10 -4 10 -10z m220 -9 c7 -15 7
-19 -5 -17 -8 1 -18 6 -22 11 -5 4 -2 5 6 0 11 -6 13 -4 8 8 -9 23 0 21 13 -2z
m281 2 c12 -16 12 -17 -2 -6 -9 7 -20 9 -24 5 -5 -4 -5 -1 -1 6 9 16 11 15 27
-5z m-591 -13 c0 -5 -4 -10 -10 -10 -5 0 -8 -6 -6 -12 1 -7 1 -10 -1 -5 -3 4
-9 4 -15 1 -5 -3 -4 3 4 15 14 22 28 28 28 11z m48 -4 c-10 -7 -15 -16 -11
-20 4 -4 0 -4 -10 0 -17 6 -17 7 0 20 10 7 23 13 28 13 6 0 2 -6 -7 -13z m72
4 c0 -5 -4 -10 -10 -10 -5 0 -10 5 -10 10 0 6 5 10 10 10 6 0 10 -4 10 -10z
m160 -25 c0 -5 -5 -3 -10 5 -5 8 -10 20 -10 25 0 6 5 3 10 -5 5 -8 10 -19 10
-25z m77 15 c-1 -11 -5 -20 -9 -20 -10 0 -10 4 -2 24 8 22 13 20 11 -4z m88
11 c-9 -8 -36 -10 -30 -2 2 4 11 8 20 8 8 0 13 -3 10 -6z m45 4 c0 -2 -6 -8
-13 -14 -10 -8 -14 -7 -14 2 0 8 6 14 14 14 7 0 13 -1 13 -2z m290 1 c0 -3 -4
-8 -10 -11 -5 -3 -10 -1 -10 4 0 6 5 11 10 11 6 0 10 -2 10 -4z m34 -4 c3 -5
-1 -9 -9 -9 -8 0 -12 4 -9 9 3 4 7 8 9 8 2 0 6 -4 9 -8z m-570 -26 c-3 -9 -10
-16 -15 -16 -5 0 -4 9 3 20 14 22 21 20 12 -4z m292 4 c0 -12 -4 -16 -9 -11
-5 5 -6 14 -3 20 10 15 12 14 12 -9z m-449 4 c-3 -3 -12 -4 -19 -1 -8 3 -5 6
6 6 11 1 17 -2 13 -5z m73 -6 c0 -4 -7 -8 -15 -8 -8 0 -15 4 -15 8 0 5 7 9 15
9 8 0 15 -4 15 -9z m440 8 c0 -2 -7 -7 -16 -10 -8 -3 -12 -2 -9 4 6 10 25 14
25 6z m-482 -31 c-3 -3 -9 2 -12 12 -6 14 -5 15 5 6 7 -7 10 -15 7 -18z m336
17 c2 -4 -4 -8 -14 -8 -10 0 -16 4 -14 8 3 4 9 8 14 8 5 0 11 -4 14 -8z m-429
-12 c3 -5 2 -10 -4 -10 -5 0 -13 5 -16 10 -3 6 -2 10 4 10 5 0 13 -4 16 -10z
m79 -13 c10 -9 12 -17 6 -17 -6 0 -13 6 -16 13 -2 7 -13 13 -24 14 -16 1 -18
-1 -8 -17 7 -10 17 -18 22 -17 6 1 11 -8 11 -20 0 -13 -4 -23 -9 -22 -5 0 -13
-5 -18 -13 -8 -10 -9 -10 -5 2 2 8 10 14 16 13 6 -2 11 6 11 18 0 11 -4 18 -9
15 -10 -7 -43 39 -34 48 10 10 39 1 57 -17z m89 6 c-4 -9 0 -11 13 -7 16 5 16
4 4 -5 -11 -8 -18 -7 -26 4 -6 8 -15 11 -19 7 -5 -4 -5 -2 -2 4 9 16 36 13 30
-3z m116 -5 c-12 -23 -21 -24 -12 -1 5 12 3 14 -7 8 -8 -5 -11 -4 -7 2 3 5 13
10 21 10 11 0 13 -5 5 -19z m101 17 c0 -1 -8 -10 -19 -19 -16 -15 -19 -15 -24
-2 -4 11 -1 13 10 9 10 -4 14 -2 10 4 -3 5 0 10 8 10 8 0 15 -1 15 -2z m466
-7 c3 -4 -1 -5 -10 -4 -8 1 -18 5 -22 8 -3 4 1 5 10 4 8 -1 18 -5 22 -8z
m-903 -17 c-2 -6 4 -11 13 -11 8 0 12 4 9 10 -4 6 1 7 11 3 15 -6 15 -7 -1
-15 -19 -11 -49 -3 -41 11 4 5 1 12 -4 14 -6 3 -5 4 2 3 7 -2 12 -9 11 -15z
m523 -7 c1 -9 0 -13 -4 -10 -3 4 -7 14 -8 22 -1 9 0 13 4 10 3 -4 7 -14 8 -22z
m83 13 c8 -10 7 -14 -2 -14 -8 0 -14 6 -14 14 0 7 1 13 2 13 2 0 8 -6 14 -13z
m-711 -17 c12 -12 22 -25 22 -31 0 -6 -8 -2 -17 8 -9 10 -23 24 -32 31 -8 6
-10 12 -5 12 6 0 20 -9 32 -20z m288 5 c4 -8 11 -12 17 -8 5 3 7 1 4 -5 -4 -5
-15 -9 -25 -8 -9 2 -23 -4 -30 -13 -11 -14 -11 -13 -2 7 6 12 15 20 21 17 5
-4 9 -2 9 4 0 5 -6 12 -12 14 -10 4 -10 6 0 6 7 1 15 -6 18 -14z m84 0 c-7 -8
-17 -15 -23 -15 -6 0 -2 7 9 15 25 19 30 19 14 0z m200 11 c0 -2 -7 -7 -16
-10 -8 -3 -12 -2 -9 4 6 10 25 14 25 6z m-502 -32 c-7 -15 -14 -21 -16 -15 -2
7 2 18 8 26 18 22 21 18 8 -11z m93 -1 c-12 -20 -14 -14 -5 12 4 9 9 14 11 11
3 -2 0 -13 -6 -23z m246 1 c0 -7 -6 -15 -13 -18 -9 -3 -11 1 -7 11 5 12 3 14
-7 8 -8 -5 -11 -4 -7 2 9 14 34 12 34 -3z m167 8 c3 -5 -1 -9 -9 -9 -8 0 -12
4 -9 9 3 4 7 8 9 8 2 0 6 -4 9 -8z m410 0 c2 -4 -5 -9 -17 -9 -17 -2 -19 0 -7
7 18 12 18 12 24 2z m-903 -29 c-12 -20 -14 -14 -5 12 4 9 9 14 11 11 3 -2 0
-13 -6 -23z m426 13 c0 -8 -6 -12 -15 -9 -11 5 -11 7 0 14 7 5 13 9 14 9 0 0
1 -6 1 -14z m420 -1 c0 -8 -4 -12 -9 -9 -5 3 -6 10 -3 15 9 13 12 11 12 -6z
m-809 -16 c-12 -10 -25 -15 -28 -12 -3 3 1 8 8 10 6 3 10 8 8 12 -3 4 4 7 15
7 19 0 18 -1 -3 -17z m72 11 c0 -5 -4 -10 -10 -10 -5 0 -10 5 -10 10 0 6 5 10
10 10 6 0 10 -4 10 -10z m160 0 c0 -5 -2 -10 -4 -10 -3 0 -8 5 -11 10 -3 6 -1
10 4 10 6 0 11 -4 11 -10z m330 6 c0 -2 -8 -10 -17 -17 -16 -13 -17 -12 -4 4
13 16 21 21 21 13z m60 -2 c0 -8 -19 -13 -24 -6 -3 5 1 9 9 9 8 0 15 -2 15 -3z
m340 0 c0 -8 -19 -13 -24 -6 -3 5 1 9 9 9 8 0 15 -2 15 -3z m-1062 -42 c-18
-8 -21 -6 -24 15 -4 22 -3 22 14 5 10 -9 14 -18 10 -20z m52 0 c0 -1 -9 2 -20
8 -11 6 -20 15 -20 20 0 6 9 2 20 -7 11 -10 20 -19 20 -21z m-90 19 c0 -5 -7
-12 -16 -15 -14 -5 -15 -4 -4 9 14 17 20 19 20 6z m162 -13 c-7 -7 -12 -8 -12
-2 0 14 12 26 19 19 2 -3 -1 -11 -7 -17z m158 18 c0 -2 -7 -6 -15 -10 -8 -3
-15 -1 -15 4 0 6 7 10 15 10 8 0 15 -2 15 -4z m30 -6 c0 -5 -2 -10 -4 -10 -3
0 -8 5 -11 10 -3 6 -1 10 4 10 6 0 11 -4 11 -10z m164 2 c3 -5 -1 -9 -9 -9 -8
0 -12 4 -9 9 3 4 7 8 9 8 2 0 6 -4 9 -8z m79 -7 c-3 -9 -8 -14 -10 -11 -3 3
-2 9 2 15 9 16 15 13 8 -4z m292 5 c3 -5 1 -10 -4 -10 -6 0 -11 5 -11 10 0 6
2 10 4 10 3 0 8 -4 11 -10z"/>
<path d="M2306 342 c-2 -4 -32 -7 -65 -6 -34 1 -61 -2 -61 -7 0 -4 6 -6 13 -3
7 2 13 -4 14 -16 2 -19 0 -19 -23 -4 -13 9 -22 19 -19 23 2 4 -14 8 -36 8 -27
0 -39 -4 -39 -13 0 -8 -4 -14 -10 -14 -5 0 -9 5 -7 12 1 7 -15 11 -43 12 -33
0 -44 -3 -42 -13 2 -9 -3 -11 -13 -7 -10 3 -13 2 -10 -4 4 -6 14 -9 23 -8 11
2 18 -5 20 -17 2 -15 -3 -21 -18 -22 -12 -1 -18 3 -14 8 3 6 -3 17 -15 25 -26
18 -27 31 -3 37 9 2 -5 4 -33 2 -32 -1 -49 -6 -47 -13 1 -7 -2 -12 -8 -12 -5
0 -10 -5 -10 -12 0 -6 10 -2 23 10 25 24 47 29 47 10 0 -6 -3 -8 -7 -5 -10 11
-42 -23 -36 -39 6 -16 -13 -19 -20 -4 -3 6 -4 5 -3 -2 2 -7 13 -12 26 -10 18
2 20 -1 12 -11 -8 -10 -6 -16 9 -25 11 -7 19 -8 19 -2 0 5 -4 10 -10 10 -5 0
-10 5 -10 11 0 5 5 7 10 4 6 -3 10 -2 10 2 0 5 -9 14 -21 21 -12 7 -18 16 -15
19 3 3 12 0 20 -6 10 -8 16 -9 21 -1 3 5 11 10 17 10 7 0 7 -4 1 -12 -5 -7 -9
-35 -7 -63 3 -71 3 -72 14 -55 8 12 10 12 10 1 0 -8 3 -11 6 -8 4 3 16 2 28
-4 20 -10 20 -10 2 5 -16 13 -16 16 -5 16 9 0 19 -3 23 -7 4 -4 18 -8 32 -9
17 -1 22 2 14 10 -19 19 -10 29 10 11 11 -10 17 -23 13 -29 -4 -6 0 -6 9 1 8
7 18 11 21 8 4 -3 5 -2 2 2 -7 9 15 33 31 33 8 0 14 -4 14 -10 0 -5 -5 -9 -11
-7 -18 3 -21 -20 -4 -27 9 -3 14 -2 11 3 -3 5 6 16 20 26 25 16 26 16 20 -3
-5 -16 -2 -19 19 -19 26 0 33 11 13 23 -6 4 -8 3 -5 -3 3 -5 0 -10 -8 -10 -11
0 -12 4 -4 14 10 11 15 11 27 1 13 -11 14 -11 7 1 -5 9 -4 12 3 7 6 -4 9 -13
5 -21 -3 -8 0 -15 7 -15 6 0 8 5 5 10 -3 5 -1 10 4 10 6 0 11 -4 11 -9 0 -5
11 -8 25 -8 14 0 25 5 25 11 0 6 4 4 10 -4 5 -8 12 -11 17 -7 9 9 -17 28 -29
21 -10 -6 -11 10 -1 19 3 4 15 -1 25 -10 15 -14 19 -14 16 -3 -2 9 3 14 11 12
7 -2 21 4 30 12 10 9 28 13 44 11 15 -3 27 -1 27 5 0 5 -5 9 -11 7 -6 -1 -14
5 -16 13 -4 12 -3 12 5 2 8 -11 10 -11 14 0 7 17 -16 50 -27 40 -5 -4 -6 -2
-2 4 3 6 -4 10 -18 10 -14 0 -21 -5 -18 -12 7 -20 -17 -27 -36 -10 -23 21 -35
20 -27 0 6 -14 4 -15 -9 -4 -11 9 -13 15 -5 20 7 4 11 10 11 14 -3 19 1 23 22
22 12 -1 27 -5 34 -9 6 -4 14 -3 17 2 7 10 25 9 42 -2 6 -3 14 -3 18 0 13 14
48 14 43 0 -3 -7 2 -13 12 -13 9 -1 24 -5 34 -9 10 -4 17 -4 16 1 -4 22 3 30
25 30 14 0 23 -3 20 -7 -2 -4 4 -13 13 -20 14 -12 15 -11 9 11 -5 17 -4 21 2
11 8 -11 11 -11 16 0 3 8 4 5 1 -7 -4 -14 0 -21 10 -21 11 0 14 7 9 21 -4 15
-3 17 4 8 5 -8 13 -14 17 -14 4 0 12 6 16 14 7 10 9 10 9 1 0 -7 9 -13 21 -13
12 0 19 5 17 13 -3 8 -35 12 -114 12 -61 0 -112 4 -116 10 -5 7 -8 7 -8 0 0
-12 -199 -14 -217 -2 -6 4 -14 4 -17 -1z m27 -38 c-3 -8 -9 -14 -14 -14 -5 0
-9 -5 -9 -11 0 -5 4 -8 9 -5 5 3 14 -1 21 -9 14 -17 34 -10 23 8 -3 7 4 3 16
-8 l23 -20 17 21 c17 22 18 22 42 3 13 -11 17 -18 9 -17 -9 2 -14 -4 -14 -14
1 -10 -3 -15 -8 -12 -5 3 -18 -2 -29 -12 -10 -9 -22 -14 -26 -11 -3 4 -12 2
-19 -4 -8 -7 -14 -7 -19 0 -4 7 -12 7 -25 -1 -13 -9 -16 -16 -9 -24 14 -17
-12 -12 -42 8 -21 13 -22 17 -10 32 14 16 16 16 28 -6 12 -20 13 -21 11 -3 -2
11 -7 24 -13 28 -6 5 -4 7 6 4 9 -3 16 1 16 7 0 8 -10 12 -24 10 -12 -1 -25 2
-29 7 -3 5 0 9 6 9 6 0 8 5 5 10 -10 17 7 11 20 -6 11 -15 12 -15 10 5 -1 12
-7 27 -15 34 -10 10 -11 9 -5 -2 5 -9 3 -12 -5 -9 -8 2 -16 10 -18 18 -3 9 2
11 17 7 11 -3 24 -1 27 4 9 15 34 -10 27 -27z m-317 15 c4 -8 9 -7 16 2 8 11
9 10 4 -3 -3 -11 0 -18 7 -18 8 0 8 -3 -2 -9 -9 -6 -10 -11 -2 -15 6 -4 11
-12 11 -18 0 -6 -6 -6 -15 2 -9 7 -14 18 -12 24 2 6 -6 18 -17 28 -12 10 -16
17 -9 18 6 0 15 -5 19 -11z m49 2 c-3 -5 -1 -12 3 -15 10 -6 9 -36 -2 -54 -4
-7 -2 -20 5 -28 11 -13 10 -15 -6 -12 -10 1 -20 -4 -22 -12 -4 -13 -3 -13 5
-1 8 11 10 8 9 -11 -2 -24 -17 -31 -33 -15 -4 3 3 23 14 45 11 21 18 51 16 67
-3 28 2 45 12 45 3 0 3 -4 -1 -9z m55 -15 c14 -18 13 -19 -2 -13 -19 7 -36
-11 -22 -22 12 -8 14 -61 3 -61 -20 0 -7 -16 13 -17 16 -2 19 0 10 6 -11 7
-11 9 1 14 9 3 13 16 12 31 -3 28 2 31 25 16 10 -6 11 -10 3 -10 -7 0 -13 -5
-13 -12 0 -9 3 -9 12 0 14 14 28 16 28 4 0 -5 -10 -14 -22 -19 -23 -10 -22
-10 5 -12 51 -3 57 -4 57 -14 0 -5 -7 -7 -15 -4 -8 4 -17 2 -20 -4 -4 -5 -15
-3 -28 6 -24 16 -41 20 -33 6 3 -4 -2 -16 -12 -24 -17 -15 -19 -15 -35 3 -10
12 -12 22 -6 26 6 4 6 11 -2 20 -8 10 -9 18 0 27 6 8 8 16 6 19 -3 3 0 17 6
32 7 14 13 25 13 24 1 -2 8 -12 16 -22z m44 2 c9 -12 16 -18 16 -13 0 5 5 4
11 -2 17 -17 43 -5 28 13 -11 14 -10 15 14 18 19 2 36 -26 26 -45 -10 -19 12
-44 26 -31 5 4 -2 -7 -16 -24 -18 -24 -26 -28 -32 -17 -5 7 -12 11 -18 8 -5
-4 -9 -1 -9 5 0 6 -4 9 -8 6 -4 -2 -8 4 -8 14 0 10 4 16 8 14 4 -3 8 0 8 6 0
6 4 9 8 6 12 -7 38 12 29 21 -5 4 -12 1 -17 -7 -6 -8 -10 -12 -10 -8 0 4 -10
4 -22 -1 -29 -10 -57 -3 -37 10 11 7 11 9 -1 9 -9 0 -21 -5 -28 -12 -9 -9 -15
-9 -24 1 -11 10 -10 11 3 6 19 -7 35 10 19 20 -15 9 -12 25 4 25 8 0 22 -10
30 -22z m406 10 c0 -4 -4 -8 -9 -8 -6 0 -12 4 -15 8 -3 5 1 9 9 9 8 0 15 -4
15 -9z m-632 -20 c-4 -12 -22 -12 -26 0 -1 5 4 9 13 9 9 0 14 -4 13 -9z m28
-26 c-7 -12 33 -54 45 -47 5 4 9 12 8 18 0 9 -2 8 -6 -1 -5 -12 -23 -7 -23 7
0 13 43 7 47 -6 6 -16 -31 -34 -54 -27 -15 5 -15 4 -3 -5 12 -9 13 -11 1 -11
-8 0 -12 -3 -9 -6 4 -3 16 -1 27 6 13 6 21 7 21 1 0 -13 -18 -24 -44 -26 -19
-2 -21 2 -20 44 2 56 2 61 10 61 3 0 3 -4 0 -8z"/>
<path d="M2306 321 c-4 -5 -2 -12 3 -15 5 -4 12 -2 15 3 4 5 2 12 -3 15 -5 4
-12 2 -15 -3z"/>
<path d="M2324 253 c2 -10 -1 -23 -6 -30 -5 -7 -5 -14 1 -17 5 -4 13 -2 16 4
5 8 11 8 20 0 9 -7 15 -8 19 -1 4 6 12 8 19 5 15 -5 64 43 54 53 -4 3 -16 -2
-27 -12 -15 -14 -23 -15 -34 -6 -10 9 -16 9 -21 1 -5 -8 -13 -6 -25 5 -17 16
-18 16 -16 -2z m101 -13 c-10 -12 -25 -18 -32 -16 -7 3 -15 1 -19 -5 -4 -7
-10 -7 -18 0 -9 7 -17 7 -26 -2 -12 -10 -12 -9 -2 4 6 9 8 20 4 25 -4 4 0 3
10 -4 11 -9 18 -10 23 -2 5 8 11 7 21 -1 12 -10 18 -9 32 4 23 24 29 21 7 -3z"/>
<path d="M2277 203 c-3 -5 4 -15 16 -23 21 -12 21 -12 7 6 -8 10 -15 20 -16
22 -1 2 -4 -1 -7 -5z"/>
<path d="M2220 316 c0 -3 9 -10 20 -16 11 -6 20 -8 20 -6 0 3 -9 10 -20 16
-11 6 -20 8 -20 6z"/>
<path d="M2234 248 c-4 -6 -2 -14 4 -16 7 -2 9 -9 5 -15 -4 -7 1 -6 10 2 13
10 15 17 6 27 -14 17 -16 17 -25 2z"/>
<path d="M2784 338 c7 -24 -3 -48 -18 -42 -7 3 -19 -2 -26 -11 -8 -9 -8 -15
-2 -15 6 0 14 5 18 11 4 8 9 7 15 -2 6 -10 9 -11 9 -1 0 6 5 11 11 10 6 -2 14
3 17 11 3 10 0 11 -9 5 -12 -7 -12 -5 0 9 18 22 34 12 21 -13 -13 -24 -40 -39
-60 -32 -13 4 -13 3 -1 -11 16 -20 44 -9 61 24 12 20 37 21 33 0 -2 -6 6 -9
20 -7 12 3 24 5 27 5 9 1 6 61 -3 62 -20 3 -48 -11 -42 -20 9 -15 28 -14 19 2
-5 9 -3 9 7 -1 12 -11 12 -14 -1 -22 -17 -11 -40 17 -33 40 3 10 2 11 -4 3
-10 -14 -44 -12 -56 2 -5 6 -7 3 -3 -7z"/>
<path d="M1034 329 c-3 -6 -2 -15 3 -20 5 -5 9 -1 9 11 0 23 -2 24 -12 9z"/>
<path d="M1195 330 c-4 -6 -10 -8 -14 -6 -4 3 -8 -1 -8 -9 0 -10 4 -12 12 -5
7 5 14 8 17 5 2 -3 5 2 5 10 0 18 -3 19 -12 5z"/>
<path d="M1270 336 c0 -2 8 -10 18 -17 15 -13 16 -12 3 4 -13 16 -21 21 -21
13z"/>
<path d="M1531 323 c-1 -25 14 -39 25 -22 4 7 3 9 -4 5 -6 -3 -12 3 -15 16 -4
23 -4 23 -6 1z"/>
<path d="M1628 333 c6 -2 10 -8 7 -13 -5 -9 42 -6 51 2 3 3 -2 8 -11 12 -9 3
-13 2 -10 -4 3 -6 2 -10 -4 -10 -5 0 -13 5 -16 10 -3 6 -12 10 -18 9 -9 0 -8
-2 1 -6z"/>
<path d="M1707 323 c3 -7 9 -13 15 -13 5 0 7 4 4 9 -4 5 0 11 6 14 7 3 3 4 -8
4 -14 -1 -20 -6 -17 -14z"/>
<path d="M1761 331 c-11 -7 -10 -10 6 -15 23 -7 89 -76 73 -76 -11 0 -72 -61
-66 -67 2 -2 19 12 39 32 25 25 40 33 54 28 10 -4 -3 13 -30 38 -26 25 -44 48
-41 52 4 4 17 -4 30 -18 20 -22 23 -22 21 -6 -1 11 -5 17 -9 15 -4 -3 -8 -1
-8 5 0 5 8 12 18 14 9 3 2 4 -16 3 -17 -2 -35 -6 -39 -9 -10 -11 -25 -8 -18 3
8 12 4 12 -14 1z"/>
<path d="M2955 330 c-3 -5 -1 -10 4 -10 6 0 11 5 11 10 0 6 -2 10 -4 10 -3 0
-8 -4 -11 -10z"/>
<path d="M1336 318 c3 -5 10 -6 15 -3 13 9 11 12 -6 12 -8 0 -12 -4 -9 -9z"/>
<path d="M1440 312 c9 -19 30 -23 30 -5 0 4 -3 3 -7 0 -3 -4 -12 1 -20 11 -13
15 -13 15 -3 -6z"/>
<path d="M1492 316 c7 -8 15 -12 17 -11 5 6 -10 25 -20 25 -5 0 -4 -6 3 -14z"/>
<path d="M1575 313 c1 -11 10 -17 22 -16 12 1 19 -5 20 -18 2 -18 0 -19 -15
-7 -15 12 -16 11 -3 -4 17 -22 32 -14 27 15 -2 15 -10 21 -24 20 -15 -2 -20 2
-16 12 4 8 2 15 -4 15 -6 0 -9 -8 -7 -17z"/>
<path d="M1229 303 c-13 -16 -12 -17 4 -4 16 13 21 21 13 21 -2 0 -10 -8 -17
-17z"/>
<path d="M1396 307 c3 -10 9 -15 12 -12 3 3 0 11 -7 18 -10 9 -11 8 -5 -6z"/>
<path d="M2362 313 c-8 -3 -4 -11 12 -24 31 -24 37 -24 33 3 -4 21 -20 29 -45
21z m35 -20 c0 -9 -4 -10 -14 -2 -7 6 -13 12 -13 14 0 1 6 2 13 2 8 0 14 -6
14 -14z"/>
<path d="M2425 310 c-3 -5 3 -7 13 -5 9 1 26 -3 37 -11 10 -8 15 -14 11 -14
-5 0 -4 -6 0 -12 16 -23 11 -63 -8 -62 -10 1 -15 -2 -12 -7 3 -5 0 -9 -6 -9
-6 0 -9 -4 -5 -9 3 -5 0 -13 -6 -17 -8 -5 -9 -3 -4 6 5 9 4 11 -3 6 -17 -10
-15 -23 4 -30 8 -3 12 -2 9 4 -8 13 1 13 28 -1 12 -7 19 -8 15 -4 -4 5 -2 15
5 23 6 9 7 13 2 10 -6 -4 -17 -2 -25 4 -12 8 -12 9 3 4 12 -4 16 -2 11 7 -5 9
-4 9 7 0 24 -23 30 -14 13 19 -16 31 -16 33 6 47 32 21 55 24 39 5 -7 -8 -7
-14 -1 -14 5 0 13 7 16 15 6 18 -30 36 -53 27 -10 -4 -13 -1 -8 10 6 16 -15
19 -29 5 -4 -3 -12 -3 -18 0 -17 11 -35 12 -41 3z m99 -37 c-9 -7 -21 -10 -26
-7 -14 9 -1 20 22 20 20 0 20 -1 4 -13z"/>
<path d="M2601 311 c-7 -5 -12 -11 -11 -15 1 -4 -1 -17 -5 -29 -4 -12 -7 -26
-6 -30 1 -4 -8 -3 -19 3 -11 6 -18 16 -14 21 3 6 -3 5 -15 -3 -22 -14 -28 -28
-11 -28 6 0 10 5 10 10 0 6 10 0 22 -12 19 -19 22 -20 33 -5 7 9 15 14 18 10
4 -3 7 -1 7 5 0 7 -5 12 -11 12 -5 0 -7 5 -3 11 4 8 9 7 15 -2 6 -10 9 -10 9
-2 0 6 -4 14 -10 18 -5 3 -7 12 -4 20 4 11 9 10 25 -6 21 -21 39 -25 39 -7 0
6 -3 8 -7 5 -3 -4 -16 2 -27 12 -13 13 -26 17 -35 12z"/>
<path d="M1476 294 c-3 -9 -2 -22 2 -31 6 -10 9 -5 9 16 0 35 -2 38 -11 15z"/>
<path d="M1674 299 c-3 -6 -1 -16 5 -22 9 -9 14 -8 21 3 9 15 4 30 -10 30 -5
0 -12 -5 -16 -11z m26 -3 c0 -3 -4 -8 -10 -11 -5 -3 -10 -1 -10 4 0 6 5 11 10
11 6 0 10 -2 10 -4z"/>
<path d="M1750 303 c5 -2 10 -9 10 -14 0 -6 -4 -7 -10 -4 -5 3 -10 1 -10 -4 0
-6 5 -11 11 -11 8 0 7 -5 -1 -15 -7 -9 -10 -18 -6 -22 3 -3 6 -1 6 5 0 6 8 9
18 6 10 -4 13 -2 7 3 -6 4 -11 19 -10 32 0 13 -6 25 -13 27 -7 1 -8 0 -2 -3z"/>
<path d="M2705 292 c-3 -8 -8 -12 -12 -9 -3 4 -12 -1 -18 -10 -12 -16 -15 -16
-41 2 -23 15 -26 15 -16 2 8 -9 10 -22 6 -28 -8 -14 -14 -59 -7 -59 2 0 11 7
19 15 14 14 11 19 -9 16 -4 -1 -3 8 3 19 13 25 22 26 13 3 -6 -17 -5 -17 14 0
11 9 23 14 28 10 4 -5 6 -3 2 2 -3 6 3 11 13 11 10 0 16 -5 13 -10 -4 -5 -1
-6 7 -1 9 5 11 4 6 -4 -4 -6 -4 -10 1 -9 4 1 19 -4 32 -11 18 -10 25 -10 35 0
8 9 7 11 -4 7 -20 -7 -77 37 -61 46 16 10 14 23 -4 23 -8 0 -17 -7 -20 -15z"/>
<path d="M1244 278 c-12 -14 -13 -18 -3 -10 9 6 18 10 21 7 2 -3 5 2 5 10 0
19 0 19 -23 -7z"/>
<path d="M1294 279 c0 -13 3 -15 13 -7 7 6 13 12 13 13 0 2 -6 5 -13 8 -7 3
-13 -3 -13 -14z"/>
<path d="M1368 293 c-21 -5 -23 -19 -6 -29 7 -5 8 -3 3 6 -6 9 -4 12 7 8 9 -4
15 0 15 8 0 8 -1 13 -1 13 -1 -1 -9 -3 -18 -6z"/>
<path d="M1641 284 c0 -11 3 -14 6 -6 3 7 2 16 -1 19 -3 4 -6 -2 -5 -13z"/>
<path d="M913 275 c0 -8 4 -12 9 -9 5 3 6 10 3 15 -9 13 -12 11 -12 -6z"/>
<path d="M1530 270 c6 -11 13 -20 16 -20 2 0 0 9 -6 20 -6 11 -13 20 -16 20
-2 0 0 -9 6 -20z"/>
<path d="M1556 282 c-3 -5 1 -9 9 -9 8 0 12 4 9 9 -3 4 -7 8 -9 8 -2 0 -6 -4
-9 -8z"/>
<path d="M1781 274 c0 -11 3 -14 6 -6 3 7 2 16 -1 19 -3 4 -6 -2 -5 -13z"/>
<path d="M1435 271 c3 -5 0 -11 -7 -13 -7 -3 -5 -7 6 -11 9 -4 15 -3 11 2 -3
5 0 11 7 13 7 3 5 7 -6 11 -9 4 -15 3 -11 -2z"/>
<path d="M856 258 c3 -4 11 -5 19 -1 21 7 19 12 -4 10 -11 0 -18 -5 -15 -9z"/>
<path d="M1200 260 c-9 -6 -10 -10 -3 -10 6 0 15 5 18 10 8 12 4 12 -15 0z"/>
<path d="M1646 255 c-18 -14 -16 -52 3 -40 5 3 11 -5 13 -17 3 -22 28 -39 28
-18 0 6 -4 9 -9 5 -5 -3 -11 5 -13 17 -2 13 -9 22 -16 21 -18 -4 -14 15 5 26
10 5 16 12 13 14 -3 3 -13 -1 -24 -8z"/>
<path d="M1710 260 c0 -5 5 -10 10 -10 6 0 10 5 10 10 0 6 -4 10 -10 10 -5 0
-10 -4 -10 -10z"/>
<path d="M1800 262 c0 -16 -35 -49 -47 -45 -6 2 -14 -1 -18 -6 -4 -7 0 -8 11
-4 12 4 15 3 10 -5 -16 -26 10 -10 29 17 10 16 23 27 27 25 4 -3 5 2 2 10 -7
17 -14 21 -14 8z"/>
<path d="M1255 250 c-4 -6 -12 -7 -18 -4 -7 4 -9 4 -5 -1 4 -4 2 -15 -4 -24
-10 -12 -7 -12 8 2 11 9 23 15 26 12 2 -3 5 2 5 10 0 18 -3 19 -12 5z"/>
<path d="M1496 243 c-6 -14 -5 -15 5 -6 7 7 10 15 7 18 -3 3 -9 -2 -12 -12z"/>
<path d="M513 235 c0 -8 4 -12 9 -9 5 3 6 10 3 15 -9 13 -12 11 -12 -6z"/>
<path d="M1120 240 c-9 -6 -10 -10 -3 -10 6 0 15 5 18 10 8 12 4 12 -15 0z"/>
<path d="M1293 235 c0 -8 4 -12 9 -9 5 3 16 0 25 -8 12 -9 15 -9 9 -1 -12 22
-43 34 -43 18z"/>
<path d="M1370 238 c0 -11 12 -10 30 2 12 7 10 9 -8 7 -12 0 -22 -5 -22 -9z"/>
<path d="M1675 240 c-3 -5 -2 -10 4 -10 5 0 13 5 16 10 3 6 2 10 -4 10 -5 0
-13 -4 -16 -10z"/>
<path d="M2660 236 c-9 -12 -8 -15 8 -13 12 0 18 6 15 14 -6 16 -8 16 -23 -1z"/>
<path d="M2695 228 c6 -16 4 -20 -8 -15 -9 3 -27 -3 -41 -14 -24 -19 -53 -18
-41 1 3 5 1 11 -4 14 -5 4 -13 2 -16 -4 -5 -8 -14 -6 -30 4 -27 18 -38 11 -24
-15 7 -15 6 -21 -6 -25 -19 -8 -19 -20 -1 -27 11 -4 13 -1 9 11 -6 14 -4 15 8
6 21 -17 72 -14 86 5 12 15 13 15 7 0 -3 -10 -1 -20 5 -24 6 -3 11 -2 11 4 0
6 6 8 14 5 8 -3 17 -1 20 4 3 5 -5 8 -18 7 -14 -2 -23 2 -23 11 0 10 4 11 11
4 15 -15 30 -12 17 4 -9 11 -9 16 0 22 7 4 9 3 6 -3 -4 -6 0 -16 9 -23 8 -7
13 -19 10 -25 -3 -8 4 -10 20 -7 28 5 43 22 17 18 -28 -4 -45 25 -26 46 15 17
11 38 -8 38 -6 0 -7 -9 -4 -22z m-114 -30 c12 8 18 9 15 3 -4 -5 -2 -12 4 -16
6 -4 8 -10 6 -14 -7 -11 -56 -7 -57 4 -1 6 -5 19 -11 30 -9 20 -9 20 7 0 13
-17 18 -18 36 -7z"/>
<path d="M1195 230 c-3 -5 -3 -10 1 -10 4 0 -1 -10 -12 -22 -19 -23 -19 -23 2
-5 11 9 21 24 21 32 0 18 -3 19 -12 5z"/>
<path d="M1580 236 c0 -2 7 -6 15 -10 8 -3 15 -1 15 4 0 6 -7 10 -15 10 -8 0
-15 -2 -15 -4z"/>
<path d="M2717 214 c-17 -22 -17 -24 3 -34 21 -11 27 -1 9 17 -8 8 -7 13 2 18
7 5 10 4 5 -3 -3 -6 -2 -13 4 -17 5 -3 10 -1 10 4 0 6 5 11 11 11 5 0 8 -4 5
-9 -3 -5 1 -14 9 -21 10 -9 15 -9 15 -1 0 15 17 14 23 -2 6 -17 -25 -16 -46 1
-13 11 -15 9 -13 -11 1 -21 4 -23 29 -16 18 5 27 4 27 -4 0 -8 3 -8 8 -2 4 6
16 10 27 10 13 0 20 7 20 20 0 15 6 19 24 17 20 -2 22 0 11 13 -8 9 -17 12
-24 6 -17 -13 -91 -6 -118 11 -22 14 -24 14 -41 -8z m133 -46 c0 -12 -6 -9
-26 13 -19 22 -19 22 4 8 12 -8 22 -17 22 -21z"/>
<path d="M835 219 c-3 -4 2 -6 10 -5 21 3 28 13 10 13 -9 0 -18 -4 -20 -8z"/>
<path d="M1510 220 c0 -5 5 -10 10 -10 6 0 10 5 10 10 0 6 -4 10 -10 10 -5 0
-10 -4 -10 -10z"/>
<path d="M1556 213 c-6 -14 -5 -15 5 -6 7 7 10 15 7 18 -3 3 -9 -2 -12 -12z"/>
<path d="M1697 223 c-13 -12 -7 -23 17 -34 16 -8 23 -17 19 -28 -4 -14 -3 -14
6 -1 7 10 11 11 11 3 0 -7 5 -13 12 -13 15 0 -20 38 -43 45 -11 4 -16 12 -12
21 5 15 1 18 -10 7z"/>
<path d="M1055 209 c-4 -6 -5 -12 -2 -15 2 -3 7 2 10 11 7 17 1 20 -8 4z"/>
<path d="M1249 203 c-8 -9 -9 -14 -2 -10 6 4 13 1 16 -5 3 -7 4 -3 4 10 -1 26
-1 26 -18 5z"/>
<path d="M1486 203 c-6 -14 -5 -15 5 -6 7 7 10 15 7 18 -3 3 -9 -2 -12 -12z"/>
<path d="M1850 208 c0 -6 -3 -9 -6 -5 -6 6 -17 -3 -41 -34 -11 -13 -8 -15 17
-15 17 0 30 3 30 8 0 4 5 8 11 8 5 0 8 -4 5 -8 -3 -5 1 -9 9 -9 11 0 12 4 3
14 -6 7 -8 17 -4 20 4 4 11 1 16 -7 6 -9 10 -10 10 -3 0 23 -20 24 -46 4 -41
-32 -53 -24 -14 9 19 16 29 30 23 30 -7 0 -13 -5 -13 -12z"/>
<path d="M1897 205 c12 -9 20 -22 17 -29 -3 -7 2 -16 12 -20 13 -5 14 -4 6 7
-7 8 -9 17 -5 21 7 7 -26 35 -42 36 -5 0 0 -7 12 -15z"/>
<path d="M1130 201 c0 -6 4 -12 8 -15 5 -3 9 1 9 9 0 8 -4 15 -9 15 -4 0 -8
-4 -8 -9z"/>
<path d="M1445 199 c-4 -6 -5 -12 -2 -15 2 -3 7 2 10 11 7 17 1 20 -8 4z"/>
<path d="M1575 200 c-3 -5 -3 -10 1 -10 3 0 -4 -8 -16 -18 -18 -14 -19 -19 -7
-19 9 0 14 4 12 8 -3 4 2 10 11 13 8 3 13 10 10 15 -4 5 0 12 6 14 9 4 10 6 1
6 -6 1 -15 -3 -18 -9z"/>
<path d="M1611 207 c2 -1 13 -9 24 -17 19 -14 19 -14 6 3 -7 9 -18 17 -24 17
-6 0 -8 -1 -6 -3z"/>
<path d="M2420 195 c-7 -9 -18 -14 -25 -12 -6 3 -12 -4 -12 -14 -2 -26 25 -24
48 4 10 12 18 25 19 30 0 12 -17 8 -30 -8z m5 -15 c-10 -11 -22 -20 -28 -20
-5 0 1 9 14 20 31 25 37 25 14 0z"/>
<path d="M1532 195 c4 -4 -2 -15 -14 -25 -17 -14 -18 -17 -5 -17 10 0 15 3 12
5 -3 3 3 10 12 17 13 10 14 13 2 20 -8 5 -11 5 -7 0z"/>
<path d="M1231 173 c7 -12 15 -20 18 -17 3 2 -3 12 -13 22 -17 16 -18 16 -5
-5z"/>
<path d="M1484 176 c-10 -8 -17 -16 -14 -19 3 -2 14 4 24 14 23 22 18 25 -10
5z"/>
<path d="M1607 184 c7 -3 9 -13 6 -22 -4 -14 -3 -14 5 -2 12 16 7 30 -11 29
-9 0 -9 -2 0 -5z"/>
<path d="M2870 180 c0 -5 5 -10 10 -10 6 0 10 5 10 10 0 6 -4 10 -10 10 -5 0
-10 -4 -10 -10z"/>
<path d="M1380 171 c0 -7 -5 -9 -12 -5 -7 5 -8 3 -3 -5 5 -9 10 -10 18 -2 6 6
8 14 4 18 -4 3 -7 1 -7 -6z"/>
<path d="M1264 162 c4 -3 14 -7 22 -8 9 -1 13 0 10 4 -4 3 -14 7 -22 8 -9 1
-13 0 -10 -4z"/>
<path d="M1415 160 c-3 -6 1 -7 9 -4 18 7 21 14 7 14 -6 0 -13 -4 -16 -10z"/>
<path d="M1636 162 c-3 -5 1 -9 9 -9 8 0 15 4 15 9 0 4 -4 8 -9 8 -6 0 -12 -4
-15 -8z"/>
<path d="M1695 160 c-3 -5 -2 -10 4 -10 5 0 13 5 16 10 3 6 2 10 -4 10 -5 0
-13 -4 -16 -10z"/>
</g>
</svg>
