<svg width="85" height="85" viewBox="0 0 85 85" fill="none" xmlns="http://www.w3.org/2000/svg">
<circle cx="42" cy="42" r="41" fill="#A3242D"/>
<path d="M29.2188 34.5312C32.1528 34.5312 34.5312 32.1528 34.5312 29.2188C34.5312 26.2847 32.1528 23.9062 29.2188 23.9062C26.2847 23.9062 23.9062 26.2847 23.9062 29.2188C23.9062 32.1528 26.2847 34.5312 29.2188 34.5312Z" fill="#F7F7F7"/>
<path d="M55.7812 34.5312C58.7153 34.5312 61.0938 32.1528 61.0938 29.2188C61.0938 26.2847 58.7153 23.9062 55.7812 23.9062C52.8472 23.9062 50.4688 26.2847 50.4688 29.2188C50.4688 32.1528 52.8472 34.5312 55.7812 34.5312Z" fill="#F7F7F7"/>
<path d="M61.0938 42.5C61.0938 52.7691 52.7691 61.0938 42.5 61.0938C32.2309 61.0938 23.9062 52.7691 23.9062 42.5H18.5938C18.5938 55.7031 29.2969 66.4062 42.5 66.4062C55.7031 66.4062 66.4062 55.7031 66.4062 42.5H61.0938Z" fill="#F7F7F7"/>
</svg>