<svg width="54" height="74" viewBox="0 0 54 74" fill="none" xmlns="http://www.w3.org/2000/svg">
<path d="M36.159 0L26.9997 12.2138L17.8408 0H0.226807L26.9997 35.6981L53.773 0H36.159Z" fill="#A3242D"/>
<path d="M27.0001 35.6981C16.4206 35.6981 7.84753 44.2707 7.84753 54.8501C7.84753 65.4264 16.4206 73.9995 27.0001 73.9995C37.5763 73.9995 46.1522 65.4264 46.1522 54.8501C46.1522 44.2707 37.5768 35.6981 27.0001 35.6981ZM33.9054 65.4847L27.0005 61.8522L20.0957 65.4847L21.4123 57.7871L15.8213 52.3403L23.5452 51.2149L27.0005 44.2165L30.4572 51.2149L38.1824 52.3403L32.5928 57.7871L33.9054 65.4847Z" fill="#A3242D"/>
</svg>
