<svg width="81" height="68" viewBox="0 0 81 68" fill="none" xmlns="http://www.w3.org/2000/svg">
<path d="M48.355 11.922C52.06 14.245 54.658 18.176 55.131 22.739C56.642 23.445 58.319 23.851 60.097 23.851C66.588 23.851 71.849 18.59 71.849 12.1C71.849 5.60902 66.588 0.348022 60.097 0.348022C53.668 0.350022 48.453 5.51702 48.355 11.922ZM40.656 35.984C47.147 35.984 52.408 30.722 52.408 24.232C52.408 17.742 47.146 12.481 40.656 12.481C34.166 12.481 28.902 17.743 28.902 24.233C28.902 30.723 34.166 35.984 40.656 35.984ZM45.641 36.785H35.669C27.372 36.785 20.622 43.536 20.622 51.833V64.028L20.653 64.219L21.493 64.482C29.411 66.956 36.29 67.781 41.952 67.781C53.011 67.781 59.421 64.628 59.816 64.427L60.601 64.03H60.685V51.833C60.688 43.536 53.938 36.785 45.641 36.785ZM65.084 24.653H55.189C55.082 28.612 53.392 32.177 50.719 34.741C58.094 36.934 63.49 43.773 63.49 51.851V55.609C73.26 55.251 78.89 52.482 79.261 52.296L80.046 51.898H80.13V39.699C80.13 31.403 73.38 24.653 65.084 24.653ZM20.035 23.853C22.334 23.853 24.473 23.182 26.285 22.039C26.861 18.282 28.875 14.999 31.752 12.763C31.764 12.543 31.785 12.325 31.785 12.103C31.785 5.61202 26.523 0.351022 20.035 0.351022C13.543 0.351022 8.283 5.61202 8.283 12.103C8.283 18.591 13.543 23.853 20.035 23.853ZM30.589 34.741C27.929 32.19 26.245 28.644 26.122 24.709C25.755 24.682 25.392 24.653 25.018 24.653H15.047C6.75 24.653 0 31.403 0 39.699V51.896L0.031 52.084L0.871 52.349C7.223 54.332 12.892 55.246 17.816 55.534V51.851C17.818 43.773 23.212 36.936 30.589 34.741Z" fill="#A3242D"/>
</svg>
