<svg width="220" height="48" viewBox="0 0 220 48" fill="none" xmlns="http://www.w3.org/2000/svg">
<path d="M70.9043 26.8437C68.4606 26.8437 66.4365 26.4981 64.8321 25.8069C63.2276 25.1158 62.0304 24.2272 61.2406 23.1411C60.4507 22.055 59.994 20.8825 59.8706 19.6236V19.5496C59.8706 19.3521 59.9447 19.1917 60.0928 19.0682C60.2655 18.9201 60.4507 18.8461 60.6481 18.8461H65.6837C65.9799 18.8461 66.2144 18.9078 66.3872 19.0312C66.5599 19.1299 66.7204 19.2904 66.8685 19.5125C67.4362 20.7221 68.7321 21.3268 70.7562 21.3268C72.0398 21.3268 73.0518 21.0923 73.7923 20.6233C74.5328 20.1543 74.9031 19.4879 74.9031 18.6239C74.9031 17.7353 74.5575 17.0688 73.8664 16.6245C73.1999 16.1555 72.2372 15.921 70.9784 15.921H68.2384C67.9916 15.921 67.7695 15.8223 67.572 15.6248C67.3992 15.4274 67.3128 15.1929 67.3128 14.9213V11.7741C67.3128 11.5026 67.3992 11.2681 67.572 11.0707C67.7695 10.8732 67.9916 10.7745 68.2384 10.7745H70.9043C71.941 10.7745 72.7556 10.577 73.348 10.182C73.9404 9.76241 74.2366 9.12063 74.2366 8.25669C74.2366 7.49149 73.9281 6.88674 73.311 6.44243C72.7186 5.97343 71.8793 5.73894 70.7932 5.73894C69.7565 5.73894 68.9173 5.89938 68.2755 6.22027C67.6584 6.54116 67.2634 6.99781 67.0906 7.59023C66.9672 7.81238 66.8315 7.97283 66.6834 8.07156C66.5353 8.1703 66.3254 8.21967 66.0539 8.21967H60.9073C60.6852 8.21967 60.4877 8.14562 60.3149 7.99751C60.1421 7.84941 60.0681 7.66428 60.0928 7.44212C60.3149 5.41804 61.2899 3.70251 63.0178 2.29553C64.7704 0.88855 67.4115 0.185059 70.9413 0.185059C73.0148 0.185059 74.829 0.518291 76.3841 1.18476C77.9639 1.85122 79.1734 2.75219 80.0127 3.88764C80.8766 5.0231 81.3086 6.2573 81.3086 7.59023C81.3086 8.65164 81.0864 9.65133 80.6421 10.5893C80.2225 11.5026 79.482 12.2555 78.4206 12.8479C79.7041 13.4897 80.6298 14.3536 81.1975 15.4397C81.7899 16.5258 82.0861 17.6859 82.0861 18.9201C82.0861 20.4999 81.6295 21.8945 80.7162 23.1041C79.8029 24.2889 78.5069 25.2145 76.8284 25.881C75.1499 26.5228 73.1752 26.8437 70.9043 26.8437Z" fill="#483F39"/>
<path d="M85.3363 26.4734C85.1388 26.4734 84.9537 26.3994 84.7809 26.2513C84.6328 26.0785 84.5587 25.8933 84.5587 25.6959C84.5587 25.5478 84.5711 25.4367 84.5958 25.3626L93.2228 1.62907C93.4696 0.913234 93.9633 0.555317 94.7038 0.555317H100.48C101.22 0.555317 101.714 0.913234 101.961 1.62907L110.588 25.3626C110.613 25.4367 110.625 25.5478 110.625 25.6959C110.625 25.8933 110.539 26.0785 110.366 26.2513C110.218 26.3994 110.045 26.4734 109.847 26.4734H105.034C104.442 26.4734 104.022 26.2019 103.775 25.6588L102.442 22.0673H92.7415L91.4085 25.6588C91.1617 26.2019 90.7421 26.4734 90.1496 26.4734H85.3363ZM94.2965 16.5135H100.887L97.5918 7.07186L94.2965 16.5135Z" fill="#483F39"/>
<path d="M115.095 26.4734C114.848 26.4734 114.626 26.387 114.428 26.2142C114.256 26.0168 114.169 25.7946 114.169 25.5478V1.51799C114.169 1.24647 114.256 1.02431 114.428 0.851524C114.601 0.654053 114.823 0.555317 115.095 0.555317H126.536C129.671 0.555317 132.003 1.1971 133.534 2.48066C135.064 3.76422 135.829 5.59083 135.829 7.96049C135.829 9.14531 135.509 10.1697 134.867 11.0336C134.25 11.8976 133.559 12.527 132.793 12.9219C133.805 13.3663 134.657 14.1068 135.348 15.1435C136.039 16.1555 136.385 17.3033 136.385 18.5869C136.385 21.08 135.558 23.0177 133.904 24.4C132.275 25.7823 129.93 26.4734 126.869 26.4734H115.095ZM125.758 10.8115C126.672 10.8115 127.375 10.5646 127.869 10.071C128.363 9.57728 128.609 8.9355 128.609 8.14561C128.609 7.38041 128.363 6.76332 127.869 6.29432C127.4 5.80065 126.696 5.55381 125.758 5.55381H121.13V10.8115H125.758ZM126.092 21.4749C127.054 21.4749 127.795 21.2034 128.313 20.6604C128.856 20.0926 129.128 19.4015 129.128 18.5869C129.128 17.7477 128.856 17.0565 128.313 16.5135C127.77 15.9457 127.03 15.6619 126.092 15.6619H121.13V21.4749H126.092Z" fill="#483F39"/>
<path d="M163.822 25.2145C163.896 25.3133 163.933 25.449 163.933 25.6218C163.933 25.8687 163.847 26.0785 163.674 26.2513C163.526 26.3994 163.341 26.4734 163.119 26.4734H157.269C156.676 26.4734 156.244 26.2266 155.973 25.7329L150.456 16.4764H148.049V25.5478C148.049 25.8193 147.95 26.0414 147.753 26.2142C147.58 26.387 147.358 26.4734 147.086 26.4734H142.014C141.742 26.4734 141.52 26.387 141.347 26.2142C141.175 26.0414 141.088 25.8193 141.088 25.5478V1.51799C141.088 1.24647 141.175 1.02431 141.347 0.851524C141.52 0.654053 141.742 0.555317 142.014 0.555317H147.086C147.358 0.555317 147.58 0.654053 147.753 0.851524C147.95 1.02431 148.049 1.24647 148.049 1.51799V10.2931H150.123L155.454 1.29584C155.775 0.802156 156.244 0.555317 156.861 0.555317H162.526C162.748 0.555317 162.933 0.629369 163.082 0.777473C163.23 0.925576 163.304 1.11071 163.304 1.33286C163.304 1.50565 163.254 1.65375 163.156 1.77717L156.306 13.033L163.822 25.2145Z" fill="#483F39"/>
<path d="M177.443 26.8437C173.938 26.8437 171.173 25.9921 169.149 24.2889C167.125 22.5857 166.051 20.0803 165.928 16.7726C165.903 16.0815 165.891 15.0201 165.891 13.5884C165.891 12.1567 165.903 11.083 165.928 10.3672C166.027 7.10889 167.1 4.60348 169.149 2.85092C171.223 1.07368 173.987 0.185059 177.443 0.185059C180.874 0.185059 183.614 1.07368 185.663 2.85092C187.736 4.60348 188.822 7.10889 188.921 10.3672C188.97 11.7988 188.995 12.8726 188.995 13.5884C188.995 14.3289 188.97 15.3903 188.921 16.7726C188.798 20.0803 187.724 22.5857 185.7 24.2889C183.7 25.9921 180.948 26.8437 177.443 26.8437ZM177.443 21.2898C178.727 21.2898 179.751 20.9072 180.516 20.142C181.281 19.3521 181.689 18.1549 181.738 16.5505C181.787 15.1188 181.812 14.0944 181.812 13.4773C181.812 12.8602 181.787 11.8605 181.738 10.4782C181.689 8.87379 181.281 7.68896 180.516 6.92376C179.751 6.13388 178.727 5.73894 177.443 5.73894C176.135 5.73894 175.098 6.13388 174.333 6.92376C173.568 7.68896 173.16 8.87379 173.111 10.4782C173.086 11.1694 173.074 12.1691 173.074 13.4773C173.074 14.8103 173.086 15.8346 173.111 16.5505C173.16 18.1549 173.568 19.3521 174.333 20.142C175.098 20.9072 176.135 21.2898 177.443 21.2898Z" fill="#483F39"/>
<path d="M194.876 26.4734C194.605 26.4734 194.37 26.387 194.173 26.2142C194 26.0414 193.914 25.8193 193.914 25.5478V1.51799C193.914 1.24647 194 1.02431 194.173 0.851524C194.37 0.654053 194.605 0.555317 194.876 0.555317H199.06C199.677 0.555317 200.122 0.82684 200.393 1.36989L206.762 12.7738L213.167 1.36989C213.439 0.82684 213.883 0.555317 214.5 0.555317H218.684C218.956 0.555317 219.178 0.654053 219.35 0.851524C219.548 1.02431 219.647 1.24647 219.647 1.51799V25.5478C219.647 25.8193 219.548 26.0414 219.35 26.2142C219.178 26.387 218.956 26.4734 218.684 26.4734H213.982C213.735 26.4734 213.513 26.387 213.315 26.2142C213.142 26.0168 213.056 25.7946 213.056 25.5478V12.0704L209.057 19.4015C208.736 19.9692 208.304 20.2531 207.761 20.2531H205.762C205.268 20.2531 204.836 19.9692 204.466 19.4015L200.504 12.0704V25.5478C200.504 25.8193 200.406 26.0414 200.208 26.2142C200.035 26.387 199.813 26.4734 199.542 26.4734H194.876Z" fill="#483F39"/>
<path d="M60.1064 47.2081C59.9944 47.2081 59.9028 47.1724 59.8315 47.1011C59.7602 47.0197 59.7246 46.923 59.7246 46.811V36.9139C59.7246 36.8019 59.7602 36.7103 59.8315 36.639C59.913 36.5576 60.0097 36.5168 60.1217 36.5168H62.1989C62.3109 36.5168 62.4025 36.5576 62.4738 36.639C62.5552 36.7103 62.596 36.8019 62.596 36.9139V42.8858L66.8114 36.807C66.9335 36.6136 67.1066 36.5168 67.3306 36.5168H69.2092C69.3212 36.5168 69.4129 36.5576 69.4842 36.639C69.5554 36.7103 69.5911 36.8019 69.5911 36.9139V46.8262C69.5911 46.9281 69.5554 47.0197 69.4842 47.1011C69.4129 47.1724 69.3212 47.2081 69.2092 47.2081H67.1168C67.0048 47.2081 66.9081 47.1724 66.8266 47.1011C66.7554 47.0299 66.7197 46.9382 66.7197 46.8262V41.0835L62.5043 46.9179C62.4432 47.0095 62.372 47.0808 62.2905 47.1317C62.2192 47.1826 62.1174 47.2081 61.985 47.2081H60.1064Z" fill="#483F39"/>
<path d="M76.9409 47.2081C76.8289 47.2081 76.7373 47.1724 76.666 47.1011C76.5947 47.0299 76.5591 46.9382 76.5591 46.8262V36.9139C76.5591 36.8019 76.5947 36.7103 76.666 36.639C76.7373 36.5576 76.8289 36.5168 76.9409 36.5168H79.0333C79.1453 36.5168 79.237 36.5576 79.3083 36.639C79.3897 36.7103 79.4304 36.8019 79.4304 36.9139V40.5337H83.0349V36.9139C83.0349 36.8019 83.0705 36.7103 83.1418 36.639C83.2233 36.5576 83.32 36.5168 83.432 36.5168H85.5092C85.6212 36.5168 85.7128 36.5576 85.7841 36.639C85.8655 36.7103 85.9063 36.8019 85.9063 36.9139V46.8262C85.9063 46.9382 85.8655 47.0299 85.7841 47.1011C85.7128 47.1724 85.6212 47.2081 85.5092 47.2081H83.432C83.32 47.2081 83.2233 47.1724 83.1418 47.1011C83.0705 47.0299 83.0349 46.9382 83.0349 46.8262V43.0843H79.4304V46.8262C79.4304 46.9382 79.3897 47.0299 79.3083 47.1011C79.237 47.1724 79.1453 47.2081 79.0333 47.2081H76.9409Z" fill="#483F39"/>
<path d="M107.9 46.6888C107.931 46.7295 107.946 46.7855 107.946 46.8568C107.946 46.9586 107.911 47.0451 107.839 47.1164C107.778 47.1775 107.697 47.2081 107.595 47.2081H105.197C104.953 47.2081 104.774 47.1062 104.662 46.9026L102.387 43.0843H101.44V46.8262C101.44 46.9382 101.399 47.0299 101.318 47.1011C101.246 47.1724 101.155 47.2081 101.043 47.2081H99.0572C98.9452 47.2081 98.8535 47.1724 98.7823 47.1011C98.711 47.0299 98.6753 46.9382 98.6753 46.8262V43.0843H97.7284L95.4527 46.9026C95.3916 46.9942 95.3203 47.0706 95.2389 47.1317C95.1676 47.1826 95.0607 47.2081 94.9181 47.2081H92.505C92.4133 47.2081 92.3319 47.1775 92.2606 47.1164C92.1995 47.0451 92.169 46.9586 92.169 46.8568C92.169 46.7753 92.1792 46.7193 92.1995 46.6888L95.3 41.6639L92.4744 37.0209C92.4439 36.9598 92.4286 36.8987 92.4286 36.8376C92.4286 36.7459 92.4592 36.6696 92.5203 36.6085C92.5814 36.5474 92.6577 36.5168 92.7494 36.5168H95.0709C95.3254 36.5168 95.5189 36.6187 95.6513 36.8223L97.8506 40.5337H98.6753V36.8987C98.6753 36.7867 98.711 36.695 98.7823 36.6238C98.8637 36.5525 98.9554 36.5168 99.0572 36.5168H101.043C101.155 36.5168 101.246 36.5525 101.318 36.6238C101.399 36.695 101.44 36.7867 101.44 36.8987V40.5337H102.249L104.449 36.8223C104.561 36.6187 104.754 36.5168 105.029 36.5168H107.35C107.452 36.5168 107.534 36.5474 107.595 36.6085C107.656 36.6696 107.687 36.7459 107.687 36.8376C107.687 36.8783 107.666 36.9394 107.625 37.0209L104.8 41.6639L107.9 46.6888Z" fill="#483F39"/>
<path d="M114.577 47.2081C114.465 47.2081 114.374 47.1724 114.302 47.1011C114.231 47.0197 114.195 46.923 114.195 46.811V36.9139C114.195 36.8019 114.231 36.7103 114.302 36.639C114.384 36.5576 114.481 36.5168 114.593 36.5168H116.67C116.782 36.5168 116.873 36.5576 116.945 36.639C117.026 36.7103 117.067 36.8019 117.067 36.9139V42.8858L121.282 36.807C121.404 36.6136 121.578 36.5168 121.802 36.5168H123.68C123.792 36.5168 123.884 36.5576 123.955 36.639C124.026 36.7103 124.062 36.8019 124.062 36.9139V46.8262C124.062 46.9281 124.026 47.0197 123.955 47.1011C123.884 47.1724 123.792 47.2081 123.68 47.2081H121.588C121.476 47.2081 121.379 47.1724 121.298 47.1011C121.226 47.0299 121.191 46.9382 121.191 46.8262V41.0835L116.975 46.9179C116.914 47.0095 116.843 47.0808 116.761 47.1317C116.69 47.1826 116.588 47.2081 116.456 47.2081H114.577Z" fill="#483F39"/>
<path d="M131.412 47.2081C131.3 47.2081 131.208 47.1724 131.137 47.1011C131.066 47.0299 131.03 46.9382 131.03 46.8262V36.9139C131.03 36.8019 131.066 36.7103 131.137 36.639C131.208 36.5576 131.3 36.5168 131.412 36.5168H133.504C133.616 36.5168 133.708 36.5576 133.779 36.639C133.861 36.7103 133.901 36.8019 133.901 36.9139V40.5337H137.506V36.9139C137.506 36.8019 137.541 36.7103 137.613 36.639C137.694 36.5576 137.791 36.5168 137.903 36.5168H139.98C140.092 36.5168 140.184 36.5576 140.255 36.639C140.336 36.7103 140.377 36.8019 140.377 36.9139V46.8262C140.377 46.9382 140.336 47.0299 140.255 47.1011C140.184 47.1724 140.092 47.2081 139.98 47.2081H137.903C137.791 47.2081 137.694 47.1724 137.613 47.1011C137.541 47.0299 137.506 46.9382 137.506 46.8262V43.0843H133.901V46.8262C133.901 46.9382 133.861 47.0299 133.779 47.1011C133.708 47.1724 133.616 47.2081 133.504 47.2081H131.412Z" fill="#483F39"/>
<path d="M147.724 47.2081C147.612 47.2081 147.521 47.1724 147.449 47.1011C147.378 47.0197 147.342 46.923 147.342 46.811V36.9139C147.342 36.8019 147.378 36.7103 147.449 36.639C147.531 36.5576 147.628 36.5168 147.74 36.5168H149.817C149.929 36.5168 150.02 36.5576 150.092 36.639C150.173 36.7103 150.214 36.8019 150.214 36.9139V42.8858L154.429 36.807C154.551 36.6136 154.724 36.5168 154.948 36.5168H156.827C156.939 36.5168 157.031 36.5576 157.102 36.639C157.173 36.7103 157.209 36.8019 157.209 36.9139V46.8262C157.209 46.9281 157.173 47.0197 157.102 47.1011C157.031 47.1724 156.939 47.2081 156.827 47.2081H154.735C154.623 47.2081 154.526 47.1724 154.444 47.1011C154.373 47.0299 154.338 46.9382 154.338 46.8262V41.0835L150.122 46.9179C150.061 47.0095 149.99 47.0808 149.908 47.1317C149.837 47.1826 149.735 47.2081 149.603 47.2081H147.724Z" fill="#483F39"/>
<path d="M164.559 47.2081C164.457 47.2081 164.365 47.1724 164.284 47.1011C164.213 47.0197 164.177 46.9281 164.177 46.8262V36.9139C164.177 36.8019 164.213 36.7103 164.284 36.639C164.355 36.5576 164.447 36.5168 164.559 36.5168H168.881C170.205 36.5168 171.243 36.8172 171.997 37.418C172.75 38.0187 173.127 38.8995 173.127 40.0602C173.127 41.221 172.75 42.0916 171.997 42.6719C171.243 43.2421 170.205 43.5272 168.881 43.5272H167.14V46.8262C167.14 46.9281 167.104 47.0197 167.033 47.1011C166.962 47.1724 166.87 47.2081 166.758 47.2081H164.559ZM168.805 41.3432C169.222 41.3432 169.548 41.2363 169.782 41.0224C170.027 40.7984 170.149 40.4726 170.149 40.0449C170.149 39.6478 170.037 39.3271 169.813 39.0827C169.599 38.8384 169.263 38.7162 168.805 38.7162H167.094V41.3432H168.805Z" fill="#483F39"/>
<path d="M179.812 47.2081C179.7 47.2081 179.609 47.1724 179.537 47.1011C179.466 47.0197 179.43 46.923 179.43 46.811V36.9139C179.43 36.8019 179.466 36.7103 179.537 36.639C179.619 36.5576 179.715 36.5168 179.827 36.5168H181.905C182.017 36.5168 182.108 36.5576 182.18 36.639C182.261 36.7103 182.302 36.8019 182.302 36.9139V42.8858L186.517 36.807C186.639 36.6136 186.812 36.5168 187.036 36.5168H188.915C189.027 36.5168 189.119 36.5576 189.19 36.639C189.261 36.7103 189.297 36.8019 189.297 36.9139V46.8262C189.297 46.9281 189.261 47.0197 189.19 47.1011C189.119 47.1724 189.027 47.2081 188.915 47.2081H186.823C186.711 47.2081 186.614 47.1724 186.532 47.1011C186.461 47.0299 186.425 46.9382 186.425 46.8262V41.0835L182.21 46.9179C182.149 47.0095 182.078 47.0808 181.996 47.1317C181.925 47.1826 181.823 47.2081 181.691 47.2081H179.812Z" fill="#483F39"/>
<path d="M196.647 47.2081C196.535 47.2081 196.443 47.1724 196.372 47.1011C196.301 47.0299 196.265 46.9382 196.265 46.8262V36.9139C196.265 36.8019 196.301 36.7103 196.372 36.639C196.443 36.5576 196.535 36.5168 196.647 36.5168H198.739C198.851 36.5168 198.943 36.5576 199.014 36.639C199.096 36.7103 199.136 36.8019 199.136 36.9139V40.5337H202.741V36.9139C202.741 36.8019 202.776 36.7103 202.848 36.639C202.929 36.5576 203.026 36.5168 203.138 36.5168H205.215C205.327 36.5168 205.419 36.5576 205.49 36.639C205.571 36.7103 205.612 36.8019 205.612 36.9139V46.8262C205.612 46.9382 205.571 47.0299 205.49 47.1011C205.419 47.1724 205.327 47.2081 205.215 47.2081H203.138C203.026 47.2081 202.929 47.1724 202.848 47.1011C202.776 47.0299 202.741 46.9382 202.741 46.8262V43.0843H199.136V46.8262C199.136 46.9382 199.096 47.0299 199.014 47.1011C198.943 47.1724 198.851 47.2081 198.739 47.2081H196.647Z" fill="#483F39"/>
<path d="M212.959 47.2081C212.857 47.2081 212.766 47.1724 212.684 47.1011C212.613 47.0197 212.577 46.9281 212.577 46.8262V36.9139C212.577 36.8019 212.613 36.7103 212.684 36.639C212.756 36.5576 212.847 36.5168 212.959 36.5168H219.618C219.73 36.5168 219.822 36.5576 219.893 36.639C219.964 36.7103 220 36.8019 220 36.9139V38.5176C220 38.6296 219.964 38.7264 219.893 38.8078C219.822 38.8791 219.73 38.9147 219.618 38.9147H215.449V46.8262C215.449 46.9382 215.408 47.0299 215.326 47.1011C215.255 47.1724 215.164 47.2081 215.052 47.2081H212.959Z" fill="#483F39"/>
<path d="M1.49268 0H47.5782V1.86581H1.49268V0Z" fill="url(#paint0_linear)"/>
<path d="M1.86572 14.7492L1.86572 0L-8.95262e-05 0L-8.95262e-05 14.7492H1.86572Z" fill="#187C6A"/>
<path d="M0 31.8774V14.7493H24.2649L0 31.8774Z" fill="#187C6A"/>
<path d="M47.5781 14.7493L47.5781 31.8774L23.3132 31.8774L47.5781 14.7493Z" fill="#A3242D"/>
<path d="M0 44.7795H46.0856V46.6454H0V44.7795Z" fill="url(#paint1_linear)"/>
<path d="M45.7124 30.7859V46.6453H47.5782V30.7859H45.7124Z" fill="#A3242D"/>
<defs>
<linearGradient id="paint0_linear" x1="47.6121" y1="0.949405" x2="1.49268" y2="0.949405" gradientUnits="userSpaceOnUse">
<stop stop-color="#187C6A" stop-opacity="0"/>
<stop offset="1" stop-color="#187C6A"/>
</linearGradient>
<linearGradient id="paint1_linear" x1="0" y1="45.7265" x2="46.1196" y2="45.7265" gradientUnits="userSpaceOnUse">
<stop stop-color="#A3242D" stop-opacity="0"/>
<stop offset="1" stop-color="#A3242D"/>
</linearGradient>
</defs>
</svg>
