<svg width="200" height="44" viewBox="0 0 200 44" fill="none" xmlns="http://www.w3.org/2000/svg">
<path d="M64.4589 24.4034C62.2373 24.4034 60.3972 24.0893 58.9386 23.461C57.4801 22.8326 56.3917 22.0248 55.6736 21.0374C54.9556 20.0501 54.5404 18.9842 54.4282 17.8398V17.7724C54.4282 17.5929 54.4955 17.4471 54.6302 17.3349C54.7873 17.2002 54.9556 17.1329 55.1351 17.1329H59.7128C59.9821 17.1329 60.1953 17.189 60.3524 17.3012C60.5094 17.391 60.6553 17.5368 60.7899 17.7388C61.3061 18.8383 62.4841 19.3881 64.3242 19.3881C65.4911 19.3881 66.4111 19.1749 67.0843 18.7486C67.7575 18.3222 68.0941 17.7163 68.0941 16.9309C68.0941 16.1231 67.78 15.5172 67.1516 15.1133C66.5458 14.687 65.6706 14.4738 64.5262 14.4738H62.0354C61.811 14.4738 61.609 14.384 61.4295 14.2045C61.2724 14.025 61.1939 13.8118 61.1939 13.565V10.7039C61.1939 10.457 61.2724 10.2439 61.4295 10.0643C61.609 9.88481 61.811 9.79506 62.0354 9.79506H64.4589C65.4013 9.79506 66.1419 9.61553 66.6804 9.2565C67.219 8.87502 67.4882 8.29158 67.4882 7.50619C67.4882 6.81055 67.2077 6.26077 66.6468 5.85685C66.1082 5.43049 65.3452 5.21731 64.3579 5.21731C63.4154 5.21731 62.6524 5.36317 62.069 5.65489C61.508 5.94661 61.149 6.36175 60.9919 6.90031C60.8797 7.10227 60.7563 7.24813 60.6216 7.33789C60.487 7.42764 60.2963 7.47252 60.0494 7.47252H55.3707C55.1687 7.47252 54.9892 7.4052 54.8321 7.27057C54.6751 7.13593 54.6077 6.96763 54.6302 6.76567C54.8321 4.9256 55.7185 3.36602 57.2893 2.08695C58.8825 0.807872 61.2836 0.168335 64.4925 0.168335C66.3775 0.168335 68.0268 0.471274 69.4405 1.07715C70.8767 1.68303 71.9762 2.50209 72.7392 3.53432C73.5246 4.56656 73.9173 5.68855 73.9173 6.90031C73.9173 7.86522 73.7153 8.77404 73.3114 9.62676C72.9299 10.457 72.2567 11.1414 71.2918 11.68C72.4587 12.2634 73.3002 13.0488 73.8163 14.0362C74.3549 15.0236 74.6241 16.0782 74.6241 17.2002C74.6241 18.6364 74.209 19.9042 73.3787 21.0038C72.5484 22.0809 71.3704 22.9224 69.8444 23.5283C68.3185 24.1117 66.5233 24.4034 64.4589 24.4034Z" fill="white"/>
<path d="M77.5788 24.0668C77.3993 24.0668 77.231 23.9995 77.0739 23.8649C76.9393 23.7078 76.872 23.5395 76.872 23.36C76.872 23.2253 76.8832 23.1244 76.9056 23.057L84.7484 1.48107C84.9728 0.830312 85.4216 0.504934 86.0948 0.504934H91.3457C92.0189 0.504934 92.4677 0.830312 92.6921 1.48107L100.535 23.057C100.557 23.1244 100.569 23.2253 100.569 23.36C100.569 23.5395 100.49 23.7078 100.333 23.8649C100.198 23.9995 100.041 24.0668 99.8617 24.0668H95.4859C94.9473 24.0668 94.5659 23.82 94.3415 23.3263L93.1297 20.0613H84.3108L83.0991 23.3263C82.8747 23.82 82.4932 24.0668 81.9546 24.0668H77.5788ZM85.7245 15.0123H91.716L88.7203 6.42907L85.7245 15.0123Z" fill="white"/>
<path d="M104.632 24.0668C104.408 24.0668 104.206 23.9883 104.026 23.8312C103.869 23.6517 103.791 23.4497 103.791 23.2253V1.38009C103.791 1.13325 103.869 0.931291 104.026 0.774213C104.183 0.594693 104.385 0.504934 104.632 0.504934H115.033C117.883 0.504934 120.004 1.08837 121.395 2.25525C122.786 3.42212 123.482 5.08267 123.482 7.23691C123.482 8.31402 123.19 9.24528 122.607 10.0307C122.046 10.8161 121.417 11.3883 120.722 11.7473C121.642 12.1512 122.416 12.8244 123.044 13.7669C123.672 14.687 123.987 15.7304 123.987 16.8973C123.987 19.1637 123.235 20.9253 121.731 22.1819C120.25 23.4385 118.119 24.0668 115.336 24.0668H104.632ZM114.326 9.82872C115.156 9.82872 115.796 9.60432 116.245 9.15552C116.694 8.70672 116.918 8.12328 116.918 7.4052C116.918 6.70957 116.694 6.14857 116.245 5.72221C115.818 5.27342 115.179 5.04902 114.326 5.04902H110.119V9.82872H114.326ZM114.629 19.5228C115.504 19.5228 116.177 19.2759 116.649 18.7822C117.142 18.2661 117.389 17.6378 117.389 16.8973C117.389 16.1343 117.142 15.506 116.649 15.0123C116.155 14.4962 115.482 14.2382 114.629 14.2382H110.119V19.5228H114.629Z" fill="white"/>
<path d="M148.93 22.9224C148.997 23.0122 149.031 23.1356 149.031 23.2927C149.031 23.5171 148.952 23.7078 148.795 23.8649C148.66 23.9995 148.492 24.0668 148.29 24.0668H142.972C142.433 24.0668 142.041 23.8424 141.794 23.3936L136.778 14.9787H134.59V23.2253C134.59 23.4722 134.501 23.6741 134.321 23.8312C134.164 23.9883 133.962 24.0668 133.715 24.0668H129.104C128.857 24.0668 128.655 23.9883 128.498 23.8312C128.341 23.6741 128.262 23.4722 128.262 23.2253V1.38009C128.262 1.13325 128.341 0.931291 128.498 0.774213C128.655 0.594693 128.857 0.504934 129.104 0.504934H133.715C133.962 0.504934 134.164 0.594693 134.321 0.774213C134.501 0.931291 134.59 1.13325 134.59 1.38009V9.35748H136.475L141.322 1.17813C141.614 0.729333 142.041 0.504934 142.602 0.504934H147.751C147.953 0.504934 148.122 0.572253 148.256 0.706893C148.391 0.841532 148.458 1.00983 148.458 1.21179C148.458 1.36887 148.413 1.50351 148.324 1.61571L142.097 11.8483L148.93 22.9224Z" fill="white"/>
<path d="M161.312 24.4034C158.126 24.4034 155.612 23.6293 153.772 22.0809C151.932 20.5326 150.956 18.2549 150.844 15.248C150.822 14.6196 150.81 13.6547 150.81 12.3532C150.81 11.0517 150.822 10.0756 150.844 9.4248C150.934 6.46273 151.91 4.18508 153.772 2.59185C155.657 0.976172 158.171 0.168335 161.312 0.168335C164.431 0.168335 166.922 0.976172 168.785 2.59185C170.67 4.18508 171.657 6.46273 171.747 9.4248C171.792 10.7263 171.814 11.7024 171.814 12.3532C171.814 13.0264 171.792 13.9913 171.747 15.248C171.635 18.2549 170.658 20.5326 168.818 22.0809C167.001 23.6293 164.499 24.4034 161.312 24.4034ZM161.312 19.3545C162.479 19.3545 163.41 19.0066 164.106 18.311C164.802 17.5929 165.172 16.5046 165.217 15.046C165.262 13.7445 165.284 12.8132 165.284 12.2522C165.284 11.6912 165.262 10.7824 165.217 9.52578C165.172 8.06718 164.802 6.99007 164.106 6.29443C163.41 5.57635 162.479 5.21731 161.312 5.21731C160.123 5.21731 159.18 5.57635 158.485 6.29443C157.789 6.99007 157.419 8.06718 157.374 9.52578C157.352 10.1541 157.34 11.0629 157.34 12.2522C157.34 13.464 157.352 14.3952 157.374 15.046C157.419 16.5046 157.789 17.5929 158.485 18.311C159.18 19.0066 160.123 19.3545 161.312 19.3545Z" fill="white"/>
<path d="M177.161 24.0668C176.914 24.0668 176.701 23.9883 176.521 23.8312C176.364 23.6741 176.286 23.4722 176.286 23.2253V1.38009C176.286 1.13325 176.364 0.931291 176.521 0.774213C176.701 0.594693 176.914 0.504934 177.161 0.504934H180.964C181.525 0.504934 181.929 0.751772 182.176 1.24545L187.966 11.6127L193.789 1.24545C194.036 0.751772 194.439 0.504934 195 0.504934H198.804C199.051 0.504934 199.253 0.594693 199.41 0.774213C199.589 0.931291 199.679 1.13325 199.679 1.38009V23.2253C199.679 23.4722 199.589 23.6741 199.41 23.8312C199.253 23.9883 199.051 24.0668 198.804 24.0668H194.529C194.305 24.0668 194.103 23.9883 193.923 23.8312C193.766 23.6517 193.688 23.4497 193.688 23.2253V10.9732L190.052 17.6378C189.761 18.1539 189.368 18.412 188.874 18.412H187.057C186.608 18.412 186.215 18.1539 185.879 17.6378L182.277 10.9732V23.2253C182.277 23.4722 182.187 23.6741 182.008 23.8312C181.851 23.9883 181.649 24.0668 181.402 24.0668H177.161Z" fill="white"/>
<path d="M54.642 42.9163C54.5402 42.9163 54.4569 42.8839 54.3921 42.8191C54.3273 42.7451 54.2949 42.6571 54.2949 42.5553V33.558C54.2949 33.4562 54.3273 33.3729 54.3921 33.3081C54.4662 33.234 54.5541 33.197 54.6559 33.197H56.5442C56.6461 33.197 56.7294 33.234 56.7942 33.3081C56.8682 33.3729 56.9052 33.4562 56.9052 33.558V38.9869L60.7374 33.4608C60.8485 33.285 61.0059 33.197 61.2095 33.197H62.9173C63.0191 33.197 63.1024 33.234 63.1672 33.3081C63.232 33.3729 63.2644 33.4562 63.2644 33.558V42.5692C63.2644 42.6618 63.232 42.7451 63.1672 42.8191C63.1024 42.8839 63.0191 42.9163 62.9173 42.9163H61.0151C60.9133 42.9163 60.8254 42.8839 60.7513 42.8191C60.6865 42.7543 60.6541 42.671 60.6541 42.5692V37.3485L56.8219 42.6525C56.7664 42.7358 56.7016 42.8006 56.6276 42.8469C56.5628 42.8932 56.4702 42.9163 56.3499 42.9163H54.642Z" fill="white"/>
<path d="M69.9461 42.9163C69.8443 42.9163 69.761 42.8839 69.6962 42.8191C69.6314 42.7543 69.599 42.671 69.599 42.5692V33.558C69.599 33.4562 69.6314 33.3729 69.6962 33.3081C69.761 33.234 69.8443 33.197 69.9461 33.197H71.8483C71.9501 33.197 72.0334 33.234 72.0982 33.3081C72.1723 33.3729 72.2093 33.4562 72.2093 33.558V36.8487H75.4861V33.558C75.4861 33.4562 75.5185 33.3729 75.5833 33.3081C75.6574 33.234 75.7453 33.197 75.8471 33.197H77.7354C77.8372 33.197 77.9206 33.234 77.9854 33.3081C78.0594 33.3729 78.0964 33.4562 78.0964 33.558V42.5692C78.0964 42.671 78.0594 42.7543 77.9854 42.8191C77.9206 42.8839 77.8372 42.9163 77.7354 42.9163H75.8471C75.7453 42.9163 75.6574 42.8839 75.5833 42.8191C75.5185 42.7543 75.4861 42.671 75.4861 42.5692V39.1674H72.2093V42.5692C72.2093 42.671 72.1723 42.7543 72.0982 42.8191C72.0334 42.8839 71.9501 42.9163 71.8483 42.9163H69.9461Z" fill="white"/>
<path d="M98.091 42.4442C98.1188 42.4813 98.1327 42.5322 98.1327 42.597C98.1327 42.6895 98.1003 42.7682 98.0355 42.833C97.98 42.8885 97.9059 42.9163 97.8133 42.9163H95.6334C95.4113 42.9163 95.2493 42.8237 95.1475 42.6386L93.0787 39.1674H92.2178V42.5692C92.2178 42.671 92.1808 42.7543 92.1067 42.8191C92.0419 42.8839 91.9586 42.9163 91.8568 42.9163H90.0518C89.95 42.9163 89.8667 42.8839 89.8019 42.8191C89.7371 42.7543 89.7047 42.671 89.7047 42.5692V39.1674H88.8438L86.775 42.6386C86.7195 42.7219 86.6547 42.7913 86.5806 42.8469C86.5158 42.8932 86.4186 42.9163 86.289 42.9163H84.0953C84.012 42.9163 83.9379 42.8885 83.8731 42.833C83.8176 42.7682 83.7898 42.6895 83.7898 42.597C83.7898 42.5229 83.7991 42.472 83.8176 42.4442L86.6362 37.8762L84.0675 33.6552C84.0397 33.5997 84.0258 33.5441 84.0258 33.4886C84.0258 33.4053 84.0536 33.3359 84.1091 33.2803C84.1647 33.2248 84.2341 33.197 84.3174 33.197H86.4279C86.6593 33.197 86.8352 33.2896 86.9555 33.4747L88.9549 36.8487H89.7047V33.5441C89.7047 33.4423 89.7371 33.359 89.8019 33.2942C89.8759 33.2294 89.9592 33.197 90.0518 33.197H91.8568C91.9586 33.197 92.0419 33.2294 92.1067 33.2942C92.1808 33.359 92.2178 33.4423 92.2178 33.5441V36.8487H92.9537L94.9531 33.4747C95.0549 33.2896 95.2308 33.197 95.4807 33.197H97.5912C97.6838 33.197 97.7578 33.2248 97.8133 33.2803C97.8689 33.3359 97.8967 33.4053 97.8967 33.4886C97.8967 33.5256 97.8781 33.5812 97.8411 33.6552L95.2724 37.8762L98.091 42.4442Z" fill="white"/>
<path d="M104.161 42.9163C104.059 42.9163 103.976 42.8839 103.911 42.8191C103.846 42.7451 103.814 42.6571 103.814 42.5553V33.558C103.814 33.4562 103.846 33.3729 103.911 33.3081C103.985 33.234 104.073 33.197 104.175 33.197H106.063C106.165 33.197 106.248 33.234 106.313 33.3081C106.387 33.3729 106.424 33.4562 106.424 33.558V38.9869L110.256 33.4608C110.367 33.285 110.525 33.197 110.728 33.197H112.436C112.538 33.197 112.621 33.234 112.686 33.3081C112.751 33.3729 112.783 33.4562 112.783 33.558V42.5692C112.783 42.6618 112.751 42.7451 112.686 42.8191C112.621 42.8839 112.538 42.9163 112.436 42.9163H110.534C110.432 42.9163 110.344 42.8839 110.27 42.8191C110.206 42.7543 110.173 42.671 110.173 42.5692V37.3485L106.341 42.6525C106.285 42.7358 106.221 42.8006 106.147 42.8469C106.082 42.8932 105.989 42.9163 105.869 42.9163H104.161Z" fill="white"/>
<path d="M119.465 42.9163C119.363 42.9163 119.28 42.8839 119.215 42.8191C119.15 42.7543 119.118 42.671 119.118 42.5692V33.558C119.118 33.4562 119.15 33.3729 119.215 33.3081C119.28 33.234 119.363 33.197 119.465 33.197H121.367C121.469 33.197 121.552 33.234 121.617 33.3081C121.691 33.3729 121.728 33.4562 121.728 33.558V36.8487H125.005V33.558C125.005 33.4562 125.037 33.3729 125.102 33.3081C125.176 33.234 125.264 33.197 125.366 33.197H127.254C127.356 33.197 127.44 33.234 127.504 33.3081C127.578 33.3729 127.615 33.4562 127.615 33.558V42.5692C127.615 42.671 127.578 42.7543 127.504 42.8191C127.44 42.8839 127.356 42.9163 127.254 42.9163H125.366C125.264 42.9163 125.176 42.8839 125.102 42.8191C125.037 42.7543 125.005 42.671 125.005 42.5692V39.1674H121.728V42.5692C121.728 42.671 121.691 42.7543 121.617 42.8191C121.552 42.8839 121.469 42.9163 121.367 42.9163H119.465Z" fill="white"/>
<path d="M134.295 42.9163C134.193 42.9163 134.109 42.8839 134.045 42.8191C133.98 42.7451 133.947 42.6571 133.947 42.5553V33.558C133.947 33.4562 133.98 33.3729 134.045 33.3081C134.119 33.234 134.207 33.197 134.308 33.197H136.197C136.299 33.197 136.382 33.234 136.447 33.3081C136.521 33.3729 136.558 33.4562 136.558 33.558V38.9869L140.39 33.4608C140.501 33.285 140.658 33.197 140.862 33.197H142.57C142.672 33.197 142.755 33.234 142.82 33.3081C142.885 33.3729 142.917 33.4562 142.917 33.558V42.5692C142.917 42.6618 142.885 42.7451 142.82 42.8191C142.755 42.8839 142.672 42.9163 142.57 42.9163H140.668C140.566 42.9163 140.478 42.8839 140.404 42.8191C140.339 42.7543 140.307 42.671 140.307 42.5692V37.3485L136.475 42.6525C136.419 42.7358 136.354 42.8006 136.28 42.8469C136.215 42.8932 136.123 42.9163 136.002 42.9163H134.295Z" fill="white"/>
<path d="M149.599 42.9163C149.506 42.9163 149.423 42.8839 149.349 42.8191C149.284 42.7451 149.252 42.6618 149.252 42.5692V33.558C149.252 33.4562 149.284 33.3729 149.349 33.3081C149.414 33.234 149.497 33.197 149.599 33.197H153.528C154.731 33.197 155.676 33.4701 156.361 34.0162C157.046 34.5623 157.388 35.363 157.388 36.4183C157.388 37.4735 157.046 38.2649 156.361 38.7926C155.676 39.3109 154.731 39.5701 153.528 39.5701H151.945V42.5692C151.945 42.6618 151.913 42.7451 151.848 42.8191C151.783 42.8839 151.7 42.9163 151.598 42.9163H149.599ZM153.459 37.5846C153.838 37.5846 154.134 37.4874 154.347 37.293C154.569 37.0894 154.68 36.7932 154.68 36.4044C154.68 36.0434 154.579 35.7518 154.375 35.5297C154.181 35.3075 153.875 35.1964 153.459 35.1964H151.904V37.5846H153.459Z" fill="white"/>
<path d="M163.465 42.9163C163.364 42.9163 163.28 42.8839 163.216 42.8191C163.151 42.7451 163.118 42.6571 163.118 42.5553V33.558C163.118 33.4562 163.151 33.3729 163.216 33.3081C163.29 33.234 163.378 33.197 163.479 33.197H165.368C165.469 33.197 165.553 33.234 165.618 33.3081C165.692 33.3729 165.729 33.4562 165.729 33.558V38.9869L169.561 33.4608C169.672 33.285 169.829 33.197 170.033 33.197H171.741C171.843 33.197 171.926 33.234 171.991 33.3081C172.055 33.3729 172.088 33.4562 172.088 33.558V42.5692C172.088 42.6618 172.055 42.7451 171.991 42.8191C171.926 42.8839 171.843 42.9163 171.741 42.9163H169.839C169.737 42.9163 169.649 42.8839 169.575 42.8191C169.51 42.7543 169.478 42.671 169.478 42.5692V37.3485L165.645 42.6525C165.59 42.7358 165.525 42.8006 165.451 42.8469C165.386 42.8932 165.294 42.9163 165.173 42.9163H163.465Z" fill="white"/>
<path d="M178.77 42.9163C178.668 42.9163 178.584 42.8839 178.52 42.8191C178.455 42.7543 178.422 42.671 178.422 42.5692V33.558C178.422 33.4562 178.455 33.3729 178.52 33.3081C178.584 33.234 178.668 33.197 178.77 33.197H180.672C180.774 33.197 180.857 33.234 180.922 33.3081C180.996 33.3729 181.033 33.4562 181.033 33.558V36.8487H184.31V33.558C184.31 33.4562 184.342 33.3729 184.407 33.3081C184.481 33.234 184.569 33.197 184.671 33.197H186.559C186.661 33.197 186.744 33.234 186.809 33.3081C186.883 33.3729 186.92 33.4562 186.92 33.558V42.5692C186.92 42.671 186.883 42.7543 186.809 42.8191C186.744 42.8839 186.661 42.9163 186.559 42.9163H184.671C184.569 42.9163 184.481 42.8839 184.407 42.8191C184.342 42.7543 184.31 42.671 184.31 42.5692V39.1674H181.033V42.5692C181.033 42.671 180.996 42.7543 180.922 42.8191C180.857 42.8839 180.774 42.9163 180.672 42.9163H178.77Z" fill="white"/>
<path d="M193.599 42.9163C193.506 42.9163 193.423 42.8839 193.349 42.8191C193.284 42.7451 193.252 42.6618 193.252 42.5692V33.558C193.252 33.4562 193.284 33.3729 193.349 33.3081C193.414 33.234 193.497 33.197 193.599 33.197H199.653C199.755 33.197 199.838 33.234 199.903 33.3081C199.967 33.3729 200 33.4562 200 33.558V35.0159C200 35.1177 199.967 35.2057 199.903 35.2797C199.838 35.3445 199.755 35.3769 199.653 35.3769H195.862V42.5692C195.862 42.671 195.825 42.7543 195.751 42.8191C195.686 42.8839 195.603 42.9163 195.501 42.9163H193.599Z" fill="white"/>
<path d="M1.35693 0H43.2529V1.69619H1.35693V0Z" fill="url(#paint0_linear)"/>
<path d="M1.69629 13.4084L1.69629 0L9.60827e-05 0L9.60827e-05 13.4084H1.69629Z" fill="white"/>
<path d="M0 28.9795V13.4084H22.059L0 28.9795Z" fill="white"/>
<path d="M43.2529 13.4084L43.2529 28.9795L21.1939 28.9795L43.2529 13.4084Z" fill="white"/>
<path d="M0 40.7086H41.896V42.4048H0V40.7086Z" fill="url(#paint1_linear)"/>
<path d="M41.5566 27.9871V42.4048H43.2528V27.9871H41.5566Z" fill="white"/>
<defs>
<linearGradient id="paint0_linear" x1="43.2837" y1="0.863096" x2="1.35693" y2="0.863096" gradientUnits="userSpaceOnUse">
<stop stop-color="white" stop-opacity="0"/>
<stop offset="1" stop-color="white"/>
</linearGradient>
<linearGradient id="paint1_linear" x1="0" y1="41.5695" x2="41.9269" y2="41.5695" gradientUnits="userSpaceOnUse">
<stop stop-color="white" stop-opacity="0"/>
<stop offset="1" stop-color="white"/>
</linearGradient>
</defs>
</svg>
