<svg width="12" height="10" viewBox="0 0 12 10" fill="none" xmlns="http://www.w3.org/2000/svg">
<g clip-path="url(#clip0)">
<path d="M10.9453 1.19141H1.05463C0.892283 1.19141 0.740291 1.22467 0.602783 1.27949L5.97651 5.7576L7.18094 4.79301C7.18094 4.79301 7.18103 4.79291 7.18106 4.79287C7.18108 4.79283 7.18117 4.79279 7.18117 4.79279L11.3973 1.27957C11.2597 1.22471 11.1077 1.19141 10.9453 1.19141Z" fill="white"/>
<path d="M11.8945 1.69397L7.92688 5.0001L11.8943 8.30629C11.9601 8.1917 12 8.06504 12 7.92975V2.07038C12 1.93516 11.9602 1.80852 11.8945 1.69397Z" fill="white"/>
<path d="M0.105703 1.69373C0.0399141 1.80832 0 1.93498 0 2.07027V7.92964C0 8.06486 0.0398672 8.19154 0.105609 8.30609L4.07318 4.99996L0.105703 1.69373Z" fill="white"/>
<path d="M7.42985 5.41435L6.22525 6.37905C6.15658 6.43628 6.06663 6.46489 5.9767 6.46489C5.88677 6.46489 5.79679 6.43628 5.72814 6.37905L4.57042 5.41431L0.602783 8.72046C0.740314 8.77532 0.8924 8.80862 1.0548 8.80862H10.9454C11.1078 8.80862 11.2598 8.77536 11.3973 8.72054L7.42985 5.41435Z" fill="white"/>
</g>
<defs>
<clipPath id="clip0">
<rect width="12" height="10" fill="white"/>
</clipPath>
</defs>
</svg>
