<svg width="26" height="22" viewBox="0 0 26 22" fill="none" xmlns="http://www.w3.org/2000/svg">
<path d="M23.7149 2.62109H2.28516C1.9334 2.62109 1.60409 2.69427 1.30615 2.81488L12.9492 12.6667L15.5588 10.5446C15.5588 10.5446 15.559 10.5444 15.5591 10.5443C15.5591 10.5442 15.5593 10.5441 15.5593 10.5441L24.6942 2.81505C24.3962 2.69436 24.0667 2.62109 23.7149 2.62109Z" fill="#483F39"/>
<path d="M25.7712 3.72656L17.1748 11.0001L25.7709 18.2737C25.9134 18.0216 25.9999 17.7429 25.9999 17.4453V4.55466C25.9999 4.25718 25.9137 3.97857 25.7712 3.72656Z" fill="#483F39"/>
<path d="M0.229023 3.72632C0.0864805 3.97842 0 4.25707 0 4.55471V17.4453C0 17.7428 0.0863789 18.0215 0.22882 18.2735L8.82522 11L0.229023 3.72632Z" fill="#483F39"/>
<path d="M16.0976 11.9115L13.4877 14.0338C13.3389 14.1597 13.144 14.2227 12.9491 14.2227C12.7543 14.2227 12.5593 14.1597 12.4106 14.0338L9.90222 11.9114L1.30566 19.1849C1.60365 19.3056 1.93317 19.3789 2.28503 19.3789H23.7147C24.0665 19.3789 24.3958 19.3057 24.6937 19.1851L16.0976 11.9115Z" fill="#483F39"/>
</svg>
