<svg width="12" height="12" viewBox="0 0 12 12" fill="none" xmlns="http://www.w3.org/2000/svg">
<path d="M9.12307 7.93849C8.73103 7.55144 8.2416 7.55144 7.85205 7.93849C7.5549 8.23315 7.25774 8.5278 6.96558 8.82745C6.88568 8.90986 6.81826 8.92734 6.72087 8.8724C6.52859 8.76752 6.32383 8.68262 6.13905 8.56776C5.27755 8.02589 4.55589 7.3292 3.91664 6.54512C3.59951 6.15557 3.31734 5.73856 3.12007 5.2691C3.08012 5.17422 3.08761 5.11179 3.16502 5.03438C3.46217 4.74721 3.75183 4.45256 4.04399 4.1579C4.45102 3.74838 4.45102 3.26894 4.04149 2.85692C3.80926 2.62219 3.57704 2.39246 3.34481 2.15773C3.10509 1.91801 2.86786 1.6758 2.62564 1.43857C2.2336 1.05652 1.74417 1.05652 1.35463 1.44107C1.05498 1.73573 0.767811 2.03787 0.463167 2.32754C0.180996 2.59472 0.0386615 2.92184 0.00869642 3.3039C-0.0387483 3.92567 0.113574 4.51249 0.328324 5.08432C0.767811 6.26794 1.43703 7.31921 2.24858 8.28309C3.34481 9.58657 4.65328 10.6179 6.184 11.362C6.87319 11.6966 7.58736 11.9538 8.36395 11.9963C8.89833 12.0262 9.36279 11.8914 9.73486 11.4744C9.98956 11.1897 10.2767 10.93 10.5464 10.6578C10.9459 10.2533 10.9484 9.76386 10.5514 9.36433C10.077 8.88738 9.60001 8.41294 9.12307 7.93849Z" fill="white"/>
<path d="M8.64605 5.94832L9.56748 5.791C9.42265 4.94449 9.02311 4.17788 8.41632 3.5686C7.77457 2.92684 6.96302 2.52232 6.06906 2.39746L5.93921 3.32388C6.6309 3.42127 7.26017 3.7334 7.75709 4.23032C8.22654 4.69978 8.53368 5.29408 8.64605 5.94832Z" fill="white"/>
<path d="M10.0868 1.94273C9.02307 0.878975 7.67714 0.207258 6.19137 0L6.06152 0.92642C7.34503 1.10621 8.50867 1.68803 9.4276 2.60446C10.2991 3.47595 10.8709 4.57716 11.0782 5.78825L11.9996 5.63093C11.7574 4.22757 11.0957 2.95406 10.0868 1.94273Z" fill="white"/>
</svg>
