<svg width="25" height="25" viewBox="0 0 25 25" fill="none" xmlns="http://www.w3.org/2000/svg">
<g clip-path="url(#clip0)">
<path d="M19.0069 16.5379C18.1901 15.7316 17.1705 15.7316 16.3589 16.5379C15.7398 17.1518 15.1208 17.7657 14.5121 18.3899C14.3456 18.5616 14.2052 18.598 14.0023 18.4836C13.6017 18.2651 13.1751 18.0882 12.7902 17.8489C10.9954 16.72 9.49193 15.2686 8.16015 13.6351C7.49946 12.8235 6.91161 11.9548 6.50063 10.9767C6.41739 10.779 6.433 10.649 6.59427 10.4877C7.21334 9.88945 7.8168 9.27559 8.42546 8.66172C9.27343 7.80855 9.27343 6.80971 8.42026 5.95134C7.93645 5.46233 7.45264 4.98372 6.96883 4.49471C6.46941 3.99529 5.9752 3.49067 5.47058 2.99646C4.65382 2.20051 3.63418 2.20051 2.82263 3.00166C2.19835 3.61553 1.60009 4.245 0.965418 4.84846C0.377562 5.4051 0.081033 6.0866 0.0186058 6.88255C-0.0802372 8.17791 0.237101 9.40044 0.684496 10.5918C1.60009 13.0576 2.9943 15.2478 4.68504 17.2559C6.96883 19.9714 9.69482 22.12 12.8838 23.6702C14.3196 24.3673 15.8075 24.9032 17.4254 24.9916C18.5387 25.054 19.5063 24.7731 20.2814 23.9043C20.8121 23.3113 21.4103 22.7703 21.9722 22.2032C22.8045 21.3604 22.8097 20.3408 21.9826 19.5084C20.9941 18.5148 20.0005 17.5264 19.0069 16.5379Z" fill="#483F39"/>
<path d="M18.013 12.3918L19.9327 12.064C19.6309 10.3004 18.7986 8.70335 17.5344 7.434C16.1974 6.09702 14.5067 5.25425 12.6443 4.99414L12.3738 6.92418C13.8148 7.12707 15.1258 7.77735 16.161 8.8126C17.1391 9.79063 17.7789 11.0288 18.013 12.3918Z" fill="#483F39"/>
<path d="M21.0147 4.04736C18.7985 1.8312 15.9945 0.431788 12.8992 0L12.6287 1.93004C15.3026 2.3046 17.7269 3.51673 19.6413 5.42596C21.4569 7.24155 22.6482 9.53575 23.08 12.0588L24.9996 11.7311C24.495 8.80743 23.1164 6.15428 21.0147 4.04736Z" fill="#483F39"/>
</g>
<defs>
<clipPath id="clip0">
<rect width="25" height="25" fill="white"/>
</clipPath>
</defs>
</svg>
