<svg version="1.0" xmlns="http://www.w3.org/2000/svg" width="682.667" height="682.667" viewBox="0 0 512 512"><path d="M0 170.1v170.1l4.8-3.5c2.6-1.9 12.1-8.7 21.2-15.1 9.1-6.3 17.2-12 18-12.6 13.3-9.4 127.9-90.3 136.9-96.7 6.9-4.8 15.7-11.1 19.6-13.8C230 177.9 257 158.6 257 158c0-.4-53.3-.6-118.5-.6l-118.5.1V20l8.8-.1c4.8 0 25.8-.1 46.7-.2 30.9-.2 37.9-.4 37.7-1.5-.1-.8.2-1.1.8-.7.6.3.8 1.1.5 1.6-.4.5.3.9 1.5.9s1.9-.4 1.5-.9c-.3-.5-.1-1.3.5-1.6.6-.4.9-.1.8.7-.4 1.6 3.1 1.8 5.1.4 1.1-.8 1.3-.8.7.1-.4.8-.2 1.3.6 1.3s2-.6 2.7-1.3c.8-.6 1.1-.7.8-.1-.5.8 3.3 1.1 12.9 1.1 11.7-.1 13.4-.3 12.9-1.7-.4-1.1-.2-1 .9.2 1.5 2 3.1 2.5 2 .6-.5-.8-.3-.8.7-.2 2.3 1.5 26.8 1.1 27.4-.4.3-.7.9-1.1 1.3-.8.5.3 1.4-.6 2.1-2 .6-1.4 1.6-2.2 2.2-1.8.8.4.9-.1.5-1.7-.6-2-.5-2.1.4-.6 1.3 2 .4 4.1-1.2 3.1-.8-.5-.9-.1-.5 1 .4.9.3 1.5-.2 1.2-.5-.3-1.2.1-1.5 1-.3.8-1 1.2-1.6.9-.5-.3-1-.2-1 .3s2.3.9 5 .9c2.8-.1 5-.6 5-1 0-.5-.8-.6-1.7-.2-1.5.5-1.6.4-.5-.7s1.5-1 2.5.2c1.3 1.6 6.7 2.3 6.7.9 0-.5.5-.9 1.1-.9.5 0 .8.3.6.7-.3.5 9.1.8 20.9.8 12.6 0 21.3-.4 21.1-.9-.4-1.3-4.7-1.5-4.7-.2 0 .6-.4.5-.9-.2-.4-.8-1.2-1.4-1.7-1.5-.5-.1-.8-.5-.7-.9.5-1.4-4.2-.3-5.5 1.2-1 1.1-1.4 1.2-1.8.2-.3-.6-1-1-1.5-.6-.5.3-.8 0-.7-.7.2-.6-.3-1.4-1-1.6-.8-.3-1 .1-.5 1.3.4 1.2.2 1.5-.8 1.2-.8-.3-2.2.1-3.1.9-1.3 1.1-2.1 1.2-3.7.3-1.6-.8-2.1-.8-2.1.2 0 .8-.5.6-1.1-.5-.5-.9-1.5-1.7-2.1-1.7-.7 0-.6.6.2 1.5 1.1 1.3 1 1.4-.4.9-2.3-.9-1.5-2.9 1.2-3 2-.1 7.2-2.9 7.2-3.9 0-.2-.9-.3-2-.2-1.1.1-2 .4-2 .8s-.7.9-1.4 1.2c-1.1.4-1.3.1-.9-1s.2-1.4-.5-.9c-.7.4-1.2.3-1.2-.2s1.9-.8 4.3-.7c5.2.2 6.1-.2 4.3-2.1-1.7-1.6-3-1.9-2.1-.4.3.5.1 1-.5 1-.7 0-1-.6-.7-1.3.2-.6 1.2-1.2 2.3-1.2 1.2 0 2-.8 2.2-2.4.2-1.5 0-2.1-.7-1.6-.6.3-.8 1.2-.5 1.8.4.7.3.9-.1.4-.5-.4-1.9 0-3.2.8-1.3.9-2.3 1.1-2.3.5 0-.5.4-1 .9-1s.8-.8.6-1.8c-.2-.9-.4-2-.4-2.5-.1-.4-.6-.7-1.2-.7-.5 0-.7.4-.4 1 1.1 1.7-.9 4-2.5 3-1.3-.8-1.2-1 .3-1 1.1 0 1.7-.6 1.4-1.3-.5-1.5-10.8-1.7-11.9-.2-.5.6-.8.5-.8-.3 0-.6-.4-1.2-1-1.2-.5 0-.7.8-.4 1.7.5 1.7.5 1.7-.9 0-1.7-2.1-3.1-2.2-4.6-.3-.9 1.1-.9 1.5.1 1.9.7.3.8.6.2.6-.5.1-1.9-.6-3-1.4-1.4-1.1-1.5-1.4-.3-.9 1 .3 1.9.1 2.2-.3.3-.5-2.3-.9-5.9-1-3.5 0-6.4.4-6.4.8 0 .5.6.8 1.3.7.7-.2 1.2.7 1.1 1.9 0 1.6.5 2.3 1.8 2.3 1.1 0 1.6-.5 1.3-1-.9-1.5 2.1-2.3 4.2-1.1 1.5.9 1.3 1-1 .5-2.1-.5-2.7-.3-2.5.7.2.9-.6 1.4-2.2 1.4-2.1 0-2.4-.4-2.2-2.4.2-1.5 0-2.1-.7-1.6-.6.3-1.4 0-1.7-.8-.6-1.7-16.5-2-17.6-.3-.5.7-.8.7-.8.1 0-1.5-5-1.7-6.8-.3-1.3 1.1-1.4 1.1-.8 0 .6-1 .1-1.3-2-1-1.6.2-2.9.8-2.9 1.5 0 .6-.3 1.5-.7 1.9-.4.3-.6-.3-.3-1.5.3-1.6-.1-2.1-1.9-2.1-1.2 0-2.8.6-3.5 1.2-.8.7-1.1.8-.8.2.5-.8-3.6-1.1-14.3-1.1-10.7 0-14.8.3-14.3 1.1.5.7.2.7-.8-.1C114.9.5 98.7.2 57.3.1L0-.1v170.2zM199.3 5.5c-1 .7-2 1.1-2.3.8-.3-.2.3-.9 1.2-1.4 1-.6 1.5-1.7 1.2-2.7-.5-1.5-.4-1.4.6.1s.8 2.1-.7 3.2zm12-2.5c-.3 1.2-.8 1.9-1.1 1.6-.5-.6.5-3.6 1.2-3.6.2 0 .2.9-.1 2zm-3.6-.3c-.9.2-1.5.9-1.1 1.4.3.5 1 .7 1.5.4.5-.4.9-.1.9.4 0 1.3-1 1.4-2.9.2-1.7-1.1-.6-3.1 1.7-3 1.5.1 1.5.2-.1.6zM81.4 4.2c-.3.4-.9.8-1.5.8-.5 0-.9-.4-.9-.8 0-.5.7-.9 1.5-.9s1.2.4.9.9zm19.6-.8c0 .3-.4.8-1 1.1-.5.3-1 .1-1-.4 0-.6.5-1.1 1-1.1.6 0 1 .2 1 .4zm39.7 1.1c0 .8-.4 1.2-.9.9-.5-.3-.6-1-.3-1.5.9-1.3 1.2-1.1 1.2.6zm9.4.2c1.3 1.7 1.3 1.7-.6.3-1.1-.8-2.2-1.6-2.4-1.7-.2-.2 0-.3.6-.3s1.7.8 2.4 1.7zM162 3.6c0 .8-1.9 1.3-2.4.6-.3-.5.1-.9.9-.9s1.5.2 1.5.3zm9.8.6c.7.7 1.2 1.7 1.2 2.2 0 .6-.5.3-1.1-.7-.6-.9-1.4-1.5-2-1.2-.5.4-.9.1-.9-.4 0-1.4 1.3-1.4 2.8.1zm6.2 1c1 2.2 1 2.2-.4.4-.8-1-2-1.5-2.7-1-.8.4-1 .3-.5-.4 1.1-1.8 2.4-1.4 3.6 1zm2.6-1.3c-.3.5.1 1.1.9 1.4.8.4 1.2 1.5 1 2.7-.3 1.7 0 2 1.5 1.5 1-.3 2.1-.1 2.5.4.4.7-.1.8-1.1.4-1.2-.5-1.5-.3-.9.6.6 1 .3 1.1-1.3.2-1.3-.7-1.9-1.9-1.7-3 .2-1.1-.3-2.2-1.1-2.5-1.3-.5-1.1-2.6.2-2.6.3 0 .3.4 0 .9zM211.1 7c-2 1.5-2.1 1.8-.7 2.9.9.8 1.6 1.8 1.6 2.4 0 .5-.8 0-1.9-1.1-1-1.2-2-2.1-2.3-1.9-.2.1.6-.8 1.9-2 1.3-1.2 2.3-2.8 2.4-3.5 0-1 .2-.9.6.1.3.8-.4 2.1-1.6 3.1zM108.5 4.9c.3.5.2 1.2-.3 1.5-.5.3-.9-.1-.9-.9 0-1.7.3-1.9 1.2-.6zm95.2-.3c-.9.9 1.6 3.3 2.7 2.6.5-.3.2.5-.7 1.7-.8 1.3-1.3 2.9-1.1 3.6.7 1.8-1.6 3-2.9 1.5-.9-1-.8-1.2.6-.6 1.3.4 1.7.2 1.4-.6-.2-.7-.1-2 .4-2.9.6-1.2.3-2.1-.8-3-1.5-1.2-1.6-1.2-1 .5.9 2.2-.9 4.6-3.2 4.5-1.2 0-1.1-.2.4-.9 1.8-.7 1.9-.8.3-1.5-1-.4-1.5-1.1-1.2-1.7.3-.5 1.3-.1 2.1.9 1.4 1.7 1.4 1.7.9-.1-.6-1.7.8-4.6 2.2-4.6.3 0 .3.3-.1.6zM119 6c0 .5-.2 1-.4 1-.3 0-.8-.5-1.1-1-.3-.6-.1-1 .4-1 .6 0 1.1.4 1.1 1zm25.4-.2c.3.5-.1.9-.9.9s-1.2-.4-.9-.9c.3-.4.7-.8.9-.8.2 0 .6.4.9.8zm4.5 2.6c-.3.3-1.1-.5-1.8-1.7-1.3-2.1-1.2-2.1.5-.5 1 1 1.6 2 1.3 2.2zm12.9-2c-.2.1-1.4 1-2.8 2.1-1.8 1.5-2.1 1.5-1.1.3.7-.9 1-2.1.7-2.7-.3-.5.3-.7 1.4-.4 1.2.3 1.9.6 1.8.7zm55.1.5c2.2 1.9 2.2 2 .3 1.8-1.2 0-1.8-.5-1.5-1 .3-.5 0-.7-.8-.5-.8.3-1.3 1.3-1.1 2.3.3 1.4.1 1.5-1 .4-1.3-1.2-.8-2.6 1.8-4.8.1-.1 1.1.8 2.3 1.8zm-42.2 1.3c-.3.8-.6.5-.6-.6-.1-1.1.2-1.7.5-1.3.3.3.4 1.2.1 1.9zM192 8c-2.4 1.5-3.6 1.1-1.4-.4 1-.8 2.1-1.2 2.4-1 .2.3-.2.9-1 1.4zm4 4.2c-.7 1.8-.9 1.9-.9.5-.1-.9-.5-1.7-1.1-1.7-.5 0-1-.5-1-1.1 0-.8.5-.7 1.6.2 1.3 1.1 1.5.9.9-1.7-.5-2.5-.4-2.6.4-.7.7 1.4.7 3.2.1 4.5zm-56.6-4.3c-.8.8-3.4 1-3.8.2-.3-.4.6-.7 1.9-.7 1.4 0 2.2.2 1.9.5zm27.6.3c0 .6-.3.8-.7.5-.3-.4-1.3-.1-2.2.6-1.4 1.1-1.4 1-.2-.6 1.5-2 3.1-2.2 3.1-.5zm10.8 1.3c-.3.3-.9-.2-1.2-1.2-.6-1.4-.5-1.5.5-.6.7.7 1 1.5.7 1.8zm-8.4.1c.3.8.2 1.2-.4.9-.6-.3-1-1-1-1.6 0-1.4.7-1.1 1.4.7zM113 9.5c0 .7-3 1.3-3.4.7-.3-.4.4-.9 1.5-.9 1-.1 1.9 0 1.9.2zm40.5.4c-.9.8-3.6 1-3 .2.2-.4 1.1-.8 2-.8.8 0 1.3.3 1 .6zm7.4.8c-1.2 1.4-1.2 1.6.2 1.1.9-.4 1.6-.1 1.6.7 0 1.1-.5 1.1-1.9.4-1.5-.8-1.7-1.3-.7-2.5.6-.8 1.4-1.4 1.6-1.4.3 0-.1.8-.8 1.7zm10.7 1.1c-1.7 1.6-1.8 1.6-.5-.5.7-1.2 1.5-2 1.8-1.7.3.2-.3 1.2-1.3 2.2zm-33.1-.6c.5-.4.5-.1.1.6-.6 1-1.1 1-2.2.1-.8-.6-1.4-1.4-1.4-1.6 0-.3.6 0 1.3.6.8.6 1.8.7 2.2.3zm8.1.8c0 1.2-.4 1.6-.9 1.1s-.6-1.4-.3-2c1-1.5 1.2-1.4 1.2.9zm30 0c.5-.1 1 .4 1.2 1.2.3 1.1.2 1.1-.6 0-.5-.8-1.3-1.3-1.8-1.2-.5.1-1-.4-1.2-1.2-.3-1.1-.2-1.1.6 0 .5.8 1.3 1.3 1.8 1.2zm12.4-.5c0 .8-.4 1.5-1 1.5-.5 0-.7-.7-.4-1.5.4-.8.8-1.5 1-1.5.2 0 .4.7.4 1.5zm-30.6 1.1c.3.8.2 1.2-.4.9-.6-.3-1-1-1-1.6 0-1.4.7-1.1 1.4.7zm51.2.5c1.7 1.8 1.9 1.9 3 .4.7-.9 1.4-1.3 1.6-.8.3.4-.3 1.5-1.2 2.4-1.6 1.5-1.9 1.5-3.5-.7-1-1.3-2.1-2.1-2.6-1.8-.5.3-.9 0-.9-.5 0-1.7 1.5-1.3 3.6 1zm-89.6.5c0 .8-1.9 1.3-2.4.6-.3-.5.1-.9.9-.9s1.5.2 1.5.3zm3 .4c0 .5-.5 1-1.1 1-.5 0-.7-.5-.4-1 .3-.6.8-1 1.1-1 .2 0 .4.4.4 1zm3.5 0c.3.5.1 1-.4 1-.6 0-1.1-.5-1.1-1 0-.6.2-1 .4-1 .3 0 .8.4 1.1 1zm48.1 2.6c.1 2.1-.7 2.9-.8.7-.1-.4-.8-1.4-1.7-2.1-1.4-1.1-1.4-1.1.3-.5 1.5.5 1.7.3 1.1-.8-.5-.8-.4-1.1.1-.6.4.4.9 1.9 1 3.3zm6.4-3.2c0 .3-.4.8-1 1.1-.5.3-1 .1-1-.4 0-.6.5-1.1 1-1.1.6 0 1 .2 1 .4zm5.8 1.7c.3 1.1.2 1.2-.6.1-.5-.8-1.2-1.3-1.6-1.2-.4.1-1.2-.1-1.9-.4-.6-.2-.1-.3 1.2-.2 1.4.2 2.7.9 2.9 1.7zm13.8-.2c2 1.6 2.1 2 .8 2.5-1.4.6-5.4-.9-5.4-2 0-.2.9 0 1.9.6 3.2 1.7 3.8 1.1 1.1-1-1.4-1.1-2.1-2-1.7-2 .5 0 2 .9 3.3 1.9zm6.6-.2c-.6.2-1 .9-.6 1.4.3.5 0 .9-.5.9-1.2 0-1.4-1.3-.4-2.3.3-.4 1.1-.7 1.7-.6.6 0 .5.3-.2.6zM151.4 16c-.8.7-6.4.8-6.8.1-.3-.4 1.3-.6 3.4-.6 2.1 0 3.6.2 3.4.5zm8.2.3c.4.3-.4.4-1.6.2-3-.6-4-1.6-1.2-1.2 1.2.2 2.4.6 2.8 1zm4.2 1.2c-.3.3-.9-.2-1.2-1.2-.6-1.4-.5-1.5.5-.6.7.7 1 1.5.7 1.8zm2.6-.9c.3.8.2 1.2-.4.9-.6-.3-1-1-1-1.6 0-1.4.7-1.1 1.4.7zm11.9-.1c.4.8.3 1.6-.1 1.9-.4.3-.9-.4-.9-1.5-.2-2.3.3-2.5 1-.4zm4.6.2c0 1.1-.3 1.3-.6.5-.2-.6-1-.9-1.5-.6-.7.4-.8.2-.4-.4 1.1-1.8 2.6-1.4 2.5.5zm12.1-1.3c0 .2-.7.7-1.6 1-.8.3-1.2.2-.9-.4.6-1 2.5-1.4 2.5-.6zm15.1 2.3c1.3 1.6 1.2 1.7-.3.4-1-.7-1.8-1.5-1.8-1.7 0-.8.8-.3 2.1 1.3zm-72.7.1c.2.4-.4.8-1.4.8-1 0-1.6-.4-1.4-.8.3-.4.9-.8 1.4-.8.5 0 1.1.4 1.4.8zm100 0c.2.4-.4.8-1.4.8-1 0-1.6-.4-1.4-.8.3-.4.9-.8 1.4-.8.5 0 1.1.4 1.4.8z"/><path d="M220.4 2.2c0 2.1 1.4 2.4 2.2.5.3-.8 1.8-1.4 3.4-1.4 2.6 0 2.8.2 1.2 1.4-1.6 1.2-1.6 1.4.2 2.8 2.4 1.8 3.9.2 3-3-.4-1.4-.3-1.6.4-.6s1.4 1.1 3.1.2c1.6-.9 2.6-.9 4.2 0 1.2.6 1.9.7 1.6.2-.8-1.3 2.5-1.3 4.1 0 .8.6 1.2.5 1.2-.4 0-1 .3-1 1.2-.1.9.9.9 1.5 0 2.4-1.9 1.9-1.4 2.9.8 1.6 1.1-.7 1.9-1.9 1.7-2.7-.1-.8.4-1.6 1.2-1.9.9-.3 1.1.1.7 1.4-.7 2.3.8 5.2 1.8 3.5.4-.6.2-1.1-.5-1.1-.8 0-.9-.3 0-1.3.6-.8.9-1.7.6-2.1-.3-.3 0-.2.7.3.7.7 1.8.6 3.1 0 1.2-.7 1.7-.7 1.3-.1-.7 1.2 1.2 1.1 3.2-.2.7-.4 1.2-.4 1.1.1-.5 2.7.1 3.3 2.2 2.2 1.7-.9 2-.8 1.4.2-.6.8-.4 1 .6.4.8-.5 1.1-.5.7 0-.4.4-.2 1.5.5 2.3 1 1.3.9 1.4-.3.7-1.3-.8-1.3-.7 0 1.1 1.4 1.8 1.4 1.8-.5.3-3.4-2.7-4.9-3.4-4-1.8.4.8 1.5 2.3 2.4 3.3.9 1.2 0 .8-2.4-1-2.2-1.6-3.4-2.2-2.8-1.3.7.9 1 1.9.6 2.3-.4.4 0 .4.8.1.9-.3 2.3.4 3.5 1.7l1.9 2.3-2.3-1.9c-2.9-2.5-4.1-1.3-1.6 1.6l1.9 2.3-2.5-2c-2.3-1.9-2.4-1.9-1-.1 1.3 1.8 1.3 1.9 0 1.1-1.3-.7-1.3-.6-.2.7 1 1.3 1 1.8.1 2.4-.8.5-.9.3-.4-.6.6-.9.4-1.1-.5-.5-.8.5-1.1.4-.6-.3.4-.7-.1-1-1.4-.7-1.1.2-2.2-.1-2.6-.7-.4-.6-1-.5-1.5.3-.6 1-.9 1.1-.9.1 0-.6-.5-1.2-1.1-1.2-.5 0-.8.4-.4.9.3.5.1 1.2-.4 1.5-.5.4-1.2.2-1.6-.4-.4-.6-1.2-.7-1.8-.4-.8.5-.8.3.1-.7 1.5-1.6 1.6-2.9.2-2.9-.5 0-.9.6-.7 1.2.1.8-.7 1.2-2 1-1.3-.2-2.3.2-2.3.8 0 .6.6 1 1.3.9 1.6-.3 4.8 1.1 4.3 2-.2.3 2.9.6 7 .6 5.5.1 7.4-.3 7.4-1.3 0-.7.5-1 1-.7.6.4.8 1 .6 1.4-.3.4.7.7 2.2.6 1.6-.1 2.6-.7 2.4-1.4-.1-.7.3-1.1 1-.8.7.2 1.2.9 1.1 1.5-.3 1.4 4.9.4 5.9-1.1.7-1.2 1.2-.2.9 1.7-.1.5 1 .1 2.5-.9 2-1.3 2.6-1.4 2.2-.4-.8 2 5.3 1.9 6.9-.1 1-1.3 1.2-1.3 1.9.3.6 1.7.7 1.7 2.1-.3.8-1.1 1.9-2 2.5-2 .6 0 .3 1-.8 2.2-1 1.3-1.2 1.8-.5 1.1 1-.9 2-.9 3.4-.2 1.4.8 1.8.8 1.3 0-1-1.5.7-1.4 2.3.1 1 1.1 1.1.9.5-.6-.6-1.6-.5-1.7 1.5-.6 3.8 2 6.1 2.1 5.4.2-.5-1.4-.2-1.4 1.8.3l2.4 2-1.9-2.3c-1.9-2.2-1.9-2.3-.2-4 1.7-1.6 1.8-1.6 1.2.5-.5 1.5-.1 2.6 1.6 3.7 2 1.4 2.4 1.4 3.9 0 1.6-1.4 1.8-1.4 2.8.3.6 1 1.1 1.3 1.1.7 0-.6-.7-1.7-1.5-2.4-2.2-1.8-.4-4.2 3.4-4.5 3.1-.3 3.1-.2 1.5 1.6-1.8 2-4 2.6-2.9.9.3-.6.1-1-.5-1-.7 0-1 .6-.7 1.2.2.7 1.1 1.3 2 1.3 2.3 0 3.4 1.5 1.1 1.6-1.2 0-1.4.3-.6.6 1.7.6 7.2-4.5 7.2-6.6 0-.9-.9-.1-2 1.7s-2.5 3-3 2.7c-.6-.3-.1-1.5 1-2.7 1.1-1.2 2-2.5 2-2.9 0-1-5.3-6-5.8-5.4-.3.3.8 1.6 2.3 3 1.6 1.3 2.6 2.7 2.3 3-.3.4-2.1-.7-4-2.3l-3.3-3 2.3-2.4C324 2.4 325 1 325 .4c0-.5-1.1.4-2.4 2.1-2.1 2.6-2.5 2.8-3.1 1.2-.4-.9-1.2-1.7-1.7-1.7-.6 0-.6.6.2 1.4.9 1.2.8 1.5-.9 1.3-1.2-.1-2-.6-1.7-1.3.8-2.1-4.4-.6-6.4 1.8-1.1 1.2-1.9 1.8-2 1.2 0-.5.5-1.5 1.2-2.2.9-.9.9-1.2 0-1.2-.7 0-1.2.6-1.2 1.2 0 .9-.3.8-1-.2-1-1.5 1.2-3.6 2.8-2.6.4.2 1.4.1 2.1-.4.8-.5-.2-.7-2.7-.6-2.2 0-3.8.4-3.6.7.2.4-.3 1-1.2 1.3-1.1.4-1.5.2-1.1-.7.3-.8 0-1.4-.7-1.4s-1.3.6-1.3 1.4c0 .7.4 1.3.9 1.3.4 0 .8.4.8.9 0 .6-.9.9-2 .8-1.3-.1-1.8-.8-1.7-2.1.2-1.8-.4-2-6.5-2.1-3.8 0-6.8.3-6.8.7 0 .4-.5.8-1.1.8-.5 0-.8-.4-.5-.8.2-.4-.6-.8-2-.8-1.3 0-2.4.4-2.4.9 0 .4-.6.5-1.2 0-.7-.4-13.9-.8-29.3-.8-26.5-.1-28.1 0-28.1 1.7zm57.1 0c.4.4 1.6.3 2.6-.2 1.1-.6 2-.6 2.4-.1.6 1.1 4.5 1.1 4.5.1s3.4-.8 4.8.3c.7.6 1.2.6 1.2 0 0-.5.7-1 1.5-1 1.7 0 1.8.6.5 2.7-.5.8-1 1-1 .4s-.7-1.1-1.5-1.1c-2.4 0-1.7 1.1 1.5 2.5 1.7.8 2.7 1.8 2.4 2.4-.3.5-1.4.2-2.5-.8-1-.9-1.9-1.3-1.9-.8s-.5.1-1.1-.9c-.5-.9-.7-2.3-.4-3 .4-.6-.3 0-1.5 1.6-1.2 1.5-2.6 2.4-3.1 2.1-.6-.3-.2-1.2.8-2 1.3-1.1 1.4-1.4.3-1.2-.8.2-1.8.7-2.2 1.3-.5.6-1.2.4-1.8-.5-.9-1.4-1-1.2-1 1.7 0 .4.8.8 1.7.8.9 0 1.8.7 2 1.5.4 1.3.3 1.3-.6 0-.5-.8-1.3-1.1-1.8-.7-.4.5-.1 1.2.6 1.6.9.6 1 1.1.2 1.5-.6.4-1.1.2-1.1-.4 0-.6-.5-.8-1.2-.4s-.8.3-.4-.5c.5-.7-.2-2.2-1.7-3.5-2.1-1.9-2.7-2.1-3.1-.9-.6 1.5-2.6.9-2.6-.8 0-.6.4-.8.9-.4.5.3 1.2.2 1.5-.3.8-1.3-5.2-.8-6.4.5-.7 1-.7 1 .2.3.7-.6 1.6-1 2-1 .4 0 .8.4.8 1 0 .5-.5.9-1.2.7-.7-.1-1.2 1.3-1.3 3.5-.1 2.2.3 3.4.8 3.1.6-.4.7-.1.2.7-.6.9-.4 1.1.5.5.9-.6 1.1-.4.5.6-.7 1.1-.5 1.1 1.1-.1 1.8-1.4 1.8-1.4.2.6-1 1.1-1.8 2.5-1.8 3 0 .4.8-.3 1.7-1.6 1-1.4 1.7-2.8 1.5-3.3-.1-.4.1-.7.6-.8.4 0 1.8-.2 3.2-.5 1.8-.3 2.1-.2 1 .5-.8.5-1.8.7-2.2.5-.4-.3-.8 0-.8.6 0 .7.9.9 2.3.5 1.5-.4 1.8-.3.8.3-.9.7-1 1.2-.2 1.6 1 .6 1.5-.5 1.2-2.6 0-.4.8-.6 1.9-.5 1.1.1 2 .7 2 1.5 0 .7-.4 1.1-.9.8-.5-.3-1.4 0-2 .7-.8 1-.7 1.4.4 1.4.8 0 1.2-.3 1-.7-.2-.4.2-.7 1-.7s1.3.5 1.2 1.1c-.3 1.7 2.6 1.3 5.4-.7 2.1-1.5 3.1-1.7 4.8-.8 1.7 1 2 .9 1.4-.5-.5-1.4-.3-1.4 1.5-.3 1.6 1 1.8 1.6.9 2.2-.8.6-.8.7.3.4 1.5-.4 1.5-.7.8-3.6-.1-.7.2-1.5.8-1.8.6-.2 1.1.3 1.2 1.2.1.8.3 2.2.4 3 .1.8.5 1.2.9.9.4-.2.9-.1 1.2.3.2.5.2.2.1-.5-.2-.7.2-1.2.9-1 .6.2 1.2 0 1.2-.3s.6-1.4 1.4-2.3c1.1-1.3 1.1-2 .3-2.8-.7-.7-1.2-.8-1.2-.4 0 .5-.7.3-1.5-.4-1.2-1-1.5-1-1.5.1 0 1-.4 1-1.5-.2-.9-.9-1.3-2.3-.9-3.2.9-2.4 1.9-2.1 3.3.9l1.2 2.7 2.9-2.8c1.7-1.6 3-2.4 3-1.7 0 .6-.9 1.7-2 2.5-1.8 1.3-1.9 1.5-.5 2.1 1.3.5 1.4 1 .4 2.7-.9 1.7-.8 2 .3 1.4.7-.3.6-.1-.3.7-.9.7-1.9 2.3-2.3 3.5-.7 2.1-.9 2.2-3.4.9-1.7-.8-3.7-1-5.5-.5-1.5.4-2.5.3-2.2-.1 1.1-1.7-1.7-2.1-3.5-.5-1.2 1-2 1.3-2.5.6-.4-.7-1.4-.5-3.1.5-1.6 1.1-2.4 1.2-2.4.5s-.4-1-.9-.6c-.5.3-1.3.1-1.6-.5-.5-.8-1.1-.8-2 0-.8.7-2 .8-2.7.4-1.9-1.3-3.2-1.1-4.4.5-.9 1.2-1.3 1-2.6-.8s-1.7-1.9-2.7-.8c-.6.8-.8 1.6-.5 2 .3.3-.1.4-1 .3-1.7-.2-4.6-2.6-3.1-2.6.4 0 0-1-1.1-2.3l-1.9-2.2 2.3 1.9c1.2 1.1 2.3 1.6 2.3 1.3.5-2.6.3-3.4-1-5.2-1.6-2-1.6-2 .7-.1 1.2 1.1 2.3 1.6 2.3 1.3.5-2.5.4-3.3-.4-4.5-.5-.6-.6-1.2-.2-1.2.4 0 .2-.6-.5-1.4-.6-.8-1.8-1.2-2.6-.9-.8.3-1.4.1-1.4-.4 0-1 13.5-1.1 14.5-.1zm20.1.5c-.3 1-.1 2.5.4 3.3.8 1.3 1 1.3 1 .1 0-1 .8-.7 2.8 1 1.5 1.4 3.7 2.4 5 2.4 2.3-.2 3 .9 1.2 2-.6.4-.8 1-.6 1.4.3.3-.4.7-1.4.7-1 0-1.6-.4-1.4-.8.3-.4 0-.8-.6-.8s-.9-.4-.5-.9c.3-.5.1-1.3-.5-1.6-1.5-.9-4.1 1.4-3.3 2.9.4.6 0 .5-.9-.2-1.2-.9-1.8-1-2.3-.2-.5.8-1.1.6-1.9-.6-1-1.3-1.5-1.4-2.1-.4-.6.9-.4 1.1.6.5.8-.5 1.1-.5.7-.1-.3.4-.9.6-1.2.4-.3-.2-1.1.6-1.9 1.6-1.9 2.6-4.4 2.9-4.2.5.2-2.5 1.1-3.3 2.1-1.8.4.8.3 1-.4.5-.7-.4-1.2-.5-1.2-.2 0 1.8 2.2 1.2 3.8-1.2l2.1-2.8h-2.4c-1.2 0-2.1.5-1.9 1.1.3.6-.5 1.1-1.6 1.2l-2.1.2 2.1-3c2-2.7 3.9-4.2 2.5-1.9-.3.5-.1 1.1.4 1.1.6.1 1.6.2 2.2.3.6 0 1.6.9 2.3 1.8 1.4 1.9 3.2 2.5 2.1.7-.4-.6-.1-1 .6-.8 2.6.3 3.9-.1 3.9-1.2 0-.8-.4-.8-1.4 0-1.1 1-1.6.8-2.1-.9-.3-1.1-1.1-1.8-1.6-1.5-.5.4-.4-.5.3-1.9 1.3-3 2.2-3.5 1.4-.9zM229 4c0 .5-.5 1-1.1 1-.5 0-.7-.5-.4-1 .3-.6.8-1 1.1-1 .2 0 .4.4.4 1zm45.6 2.3c.4.4 1.3.2 2-.4 1-.9 1.5-.7 2 .5.3.9 1 1.3 1.5 1 .5-.3.9 0 .9.5 0 1.1-.4 1.3-3.7 1.4-1 .1-2.3.8-2.9 1.6-.9 1.2-1.2 1.2-2 0-1.4-2.2-1.2-5.7.2-5.5.8.1 1.7.5 2 .9zM320 6c0 .3 1.1 1.8 2.5 3.3 1.4 1.5 2 2.7 1.4 2.7-.6 0-1.8-.8-2.6-1.8-.8-.9-1.2-1.2-.8-.5.3.7-.2 2.4-1.1 3.8-.9 1.4-1.3 2.5-1 2.5.4 0 .1.6-.6 1.4-1.8 1.9-3 .9-1.8-1.5.6-1.1.8-2.5.4-3.1-.5-.7-.2-.9.9-.5.9.3 1.8.3 2.1-.1.3-.4-.5-.9-1.6-.9-1.1-.1-2.2-.4-2.5-.7-.7-.7.6-2.6 1.8-2.6.6 0 .7.4.4 1-.3.5-.2 1 .3 1 .6 0 1.2-.6 1.5-1.3.3-.9-.6-1.3-3-1.4-2 0-3.2.2-2.7.6.5.3 1 1.3 1 2.1.1.8.3 1.9.4 2.5.5 2 0 4.5-.9 4.5-.5 0-.9-1.2-1-2.8-.1-5.4-.2-6.2-1.3-6.2-.7 0-.7-.5.1-1.4 1-1.2 8.1-1.8 8.1-.6zm-61.6 12c.3.3-1.2.6-3.4.6-2.1 0-3.7-.3-3.5-.6.5-.8 6.1-.7 6.9 0z"/><path d="M267.6 3.2c.3.5 1 .6 1.5.3 1.3-.9 1.1-1.2-.6-1.2-.8 0-1.2.4-.9.9zM279 4c0 .5.5 1 1.1 1 .5 0 .7-.5.4-1-.3-.6-.8-1-1.1-1-.2 0-.4.4-.4 1zm-11 7.5c-.7.8-.9 1.5-.5 1.5.5 0 0 .9-.9 1.9-1 1-1.3 2.2-.8 2.5.5.3 1.7-.3 2.7-1.4 1-1.1 2.3-1.7 2.9-1.3.6.4.3-.3-.7-1.4-.9-1.1-1.4-2.3-1-2.6.3-.4.4-.7.1-.7-.3 0-1.1.7-1.8 1.5zm1.4 1.4c.3.4-.4 1.7-1.7 2.7-2.2 1.9-2.2 1.9-.4-.2.9-1.1 1.4-2.4 1-2.7-.3-.4-.4-.7 0-.7.3 0 .8.4 1.1.9zm5.6 1.6c-1 1.2-.7 1.3 1.4.9 1.4-.2 2.6 0 2.6.6 0 .5.5 1 1.1 1 1.4 0 .2-1.8-2.1-3-1.3-.7-2.1-.6-3 .5zm17.1.4c-.8.5-.9 1.1-.3 1.5.5.3 1.2-.1 1.6-.9.6-1.7.6-1.8-1.3-.6zm-19.7-7.8c-.4.7-.3.9.4.5.5-.3 1.3 0 1.5.6.4.9.6 1 .6.1.1-1.7-1.6-2.5-2.5-1.2zm4.1 0c-.4.6-.5 1.2-.2 1.5.2.3.7-.2 1-1.1.7-1.7.1-2-.8-.4zm44.1-5.4c-.6 1.4-.5 1.5.5.6.7-.7 1-1.5.7-1.8-.3-.3-.9.2-1.2 1.2zm9.8 1C329 4.5 328 5.1 327 4.5c-1.1-.7-1-1 .6-1.6 1.6-.6 1.6-.8.2-.8-.9-.1-2 .4-2.4 1-.8 1.4 1.6 3.1 3.4 2.4 1.6-.6 5.5 1.9 4.5 2.8-.3.4-.1.7.5.7 1.9 0 1.4-1.8-.8-3-1.1-.6-2-1.6-2-2.2 0-.6.6-.5 1.7.3 1.1 1 1.4 1 .9.1-.4-.6-.2-1.2.3-1.2.6 0 1.1-.5 1.1-1.1 0-.8-.6-.7-1.7.2-1.5 1.2-1.6 1.2-1-.4.9-2.4.4-2.1-1.9 1z"/><path d="M342 1c0 .7-.3 1-.6.7-.8-.8-6.4 2.4-6.4 3.6 0 .5 1.2-.1 2.6-1.2 1.5-1.1 3-1.8 3.4-1.6 1 .6 2.4-1.4 1.6-2.2-.3-.4-.6 0-.6.7zm6-.2c0 .7-.6 1.1-1.2.9-.8-.1-1.3.8-1.3 2.3 0 1.5.5 2.4 1.3 2.2.8-.1 1.1.6.8 2.3-.3 1.4-.1 2.5.4 2.5s.8-1.2.6-2.8c-.1-1.5-.8-2.6-1.4-2.5-.7.2-1.2-.6-1.2-1.8 0-1.1.4-1.8.9-1.4 1.1.6 2.6-1.3 1.7-2.2-.3-.4-.6-.1-.6.5zm7.7-.1c-1 .9-.9 2.3.1 2.3.5 0 .9-.7.9-1.5 0-1.7-.1-1.8-1-.8zm4.3.2c0 .6.4 1.3 1 1.6.6.3.7-.1.4-.9-.7-1.8-1.4-2.1-1.4-.7zm22 .5c0 .2.8 1 1.8 1.7 1.5 1.3 1.6 1.2.3-.4S382 .6 382 1.4zM235 3c0 .5-.5.9-1.1.7-.6-.1-1.7.7-2.5 1.9-1.2 1.8-1.2 2.1 0 2.1.8 0 1.4-.5 1.3-1.1-.1-.6.7-1 1.8-.9 1.4.1 2.1-.4 2.2-1.7.1-1.1-.2-2-.8-2-.5 0-.9.4-.9 1z"/><path d="M241.2 2.7c-.6.3-.9 1-.5 1.6.5.8.2.8-.9 0-.8-.7-1.8-1-2.2-.6-.4.4.8 1.5 2.6 2.5 3.2 1.7 3.2 1.8 1 2.4-2.3.6-2.3.7-.3 2.1 1.2.8 1.8 2 1.4 2.9-.5 1.2-.7 1.2-2-.3-.8-1-1.1-1.1-.7-.3.5 1-.1.8-1.6-.5l-2.3-2 .7 2c.5 1.5.4 1.7-.4.9-.6-.6-1.2-2.1-1.3-3.2-.1-1.5-.7-2-2.2-1.8-1.1.2-3-.3-4.2-1.1-1.2-.8-2.7-1.2-3.3-.8-1.2.7-.4 2.5 1.1 2.5.6 0 .7-.5.3-1.2-.4-.7-.3-.8.5-.4.6.4.8 1.2.5 1.8-.5.7-.1.9.9.5 1-.3 1.7-.3 1.7.2s.8.8 1.8.7c.9 0 1.7.6 1.7 1.4 0 .8-.8 1.4-1.7 1.4-2.3-.2-2.3 1-.1 2.7 1.1 1 1.4 1 .9.1-.4-.6-.4-1.2.1-1.3.4 0 2-.2 3.5-.4 1.6-.2 3.4.2 4 .9 1 .9 1.7.8 3.1-.6 2.4-2.5 2.4-2.5.2-4.3l-2-1.5 2 .6c1.6.5 1.7.4.5-.5-1.8-1.3-.1-1.4 1.9-.2 1.3.8 1.3 1.2 0 2.7-1.2 1.6-1.2 1.7.4 1.1 2.6-1 5 .2 3.7 1.8-.8.9-.8 1.5 0 2 .6.4.9.1.8-.7-.3-1.3 2.9-1.9 4.7-.8 2.4 1.5 4 .4 4.1-2.8.1-1.8-.3-3.5-.8-3.8-.4-.3-.6-1-.2-1.5.4-.6 1.1-.6 1.9.1 1 .9 1.3.7 1-.7-.2-1-.4-2.2-.4-2.7-.1-.6-.8-.1-1.6 1-.9 1.2-1.3 1.3-1 .4.4-1.1-.1-1.6-1.5-1.7-1.1-.1-2 .4-2 1 0 .7-.4.6-1.1-.3-.9-1.3-1-1.3-.6.1.3.9.1 2.1-.5 2.7-1.2 1.2-.1 3.5 1.3 2.7.5-.4.9-.1.9.5s.8 1 1.7.8c1.2-.2 1.8.4 1.9 1.8.1 1.2-.5 2.1-1.3 2.1-.9 0-1-.4-.3-1.1 1.5-1.5 1.2-2.6-.5-2-.8.4-1.2 1.1-.9 1.6.4.6-.1.6-1.3-.1-1.1-.6-2.3-.7-2.7-.4-.3.3-.6.1-.6-.6s-.4-1-.9-.6c-1.1.6-3.6-3.3-2.7-4.2.9-.9 2.5.7 2 2.1-.3.7.1 1.3.8 1.3.7 0 2.2.4 3.2.9 1.2.5.8-.4-1.2-2.3-1.8-1.6-2.8-3.4-2.4-3.8.4-.5-.5-.2-1.9.7-2.2 1.4-3 1.5-4.4.4-1.4-1-1.5-1.5-.5-2.1.9-.6 1.1-.4.5.6-.8 1.2-.6 1.2.8 0 .9-.7 1.7-1.6 1.7-1.9 0-.3-.3-.2-.7.1-.3.4-1.1.3-1.7-.2-.6-.4-1.7-.6-2.4-.4zm16.2 3.5c.1.7.5 1.8.9 2.5.6 1-1.1 1.1-3.3.3-.3-.1-.8-.2-1.2-.1-1.3.2-.9-.8 1-2.7 1.9-2 2.2-2 2.6 0z"/><path d="M255.5 6.9c-.3.5-.2 1.2.3 1.5.5.3.9-.1.9-.9 0-1.7-.3-1.9-1.2-.6zm119.3-4.2c.7.3 1.6.2 1.9-.1.4-.3-.2-.6-1.3-.5-1.1 0-1.4.3-.6.6zm26.7.4c-.4.6-.5 1.2-.2 1.5.2.3.7-.2 1-1.1.7-1.7.1-2-.8-.4zM349 4.3c0 .5.7.6 1.6.3 1.2-.5 1.4-.1.8 1.7-.7 2.5-.2 2.2 1.4-.9.9-1.7.8-2-1.4-2-1.3 0-2.4.4-2.4.9zm9-.9c0 .2.7.7 1.6 1 .8.3 1.2.2.9-.4-.6-1-2.5-1.4-2.5-.6zm19.6 1.3c-.6 1.4-.5 1.5.5.6.7-.7 1-1.5.7-1.8-.3-.3-.9.2-1.2 1.2zm16-.8c-.3.4.6.7 1.9.7 1.4 0 2.2-.2 1.9-.5-.8-.8-3.4-1-3.8-.2zm-54.9 1.2c-2.4 1.4-.6 3.6 2.8 3.6 3 0 3.7-.8 2.3-2.7-.8-1.2-.9-1.2-.4.2.6 2.1-.7 2.4-2.3.4-.9-1.1-.9-1.5.1-1.9.7-.3.9-.6.3-.6-.5 0-1.8.4-2.8 1zm1.8 1.9c.3.5.2 1-.4 1-.5 0-1.3-.5-1.6-1-.3-.6-.2-1 .4-1 .5 0 1.3.4 1.6 1zM355 5c0 .5.5 1 1.1 1 .5 0 .7-.5.4-1-.3-.6-.8-1-1.1-1-.2 0-.4.4-.4 1zm-92 .4c0 .2.7.7 1.6 1 .8.3 1.2.2.9-.4-.6-1-2.5-1.4-2.5-.6zm123 0c0 .2.8 1 1.8 1.7 1.5 1.3 1.6 1.2.3-.4S386 4.6 386 5.4zm31.5.6c.3.5.8 1 1.1 1 .2 0 .4-.5.4-1 0-.6-.5-1-1.1-1-.5 0-.7.4-.4 1zM234.3 7.2c1 .5 1.5 1.3 1.3 1.7-.3.4.4 1.2 1.5 1.9 2.1 1.4 2.6.3.7-1.7-.7-.8-.8-1.1-.3-.8.6.3 1.7.2 2.5-.4.8-.5 1.1-.9.5-.9-.5-.1-2.6-.3-4.4-.5-2.7-.2-3.1-.1-1.8.7zm134.9.8c0 1.4.2 1.9.5 1.2.2-.6.2-1.8 0-2.5-.3-.6-.5-.1-.5 1.3zM329 8c0 .5.6 1.3 1.3 1.7.8.4 1.9 1.7 2.5 2.8.6 1.1 1.2 1.5 1.2.8s1-1.7 2.2-2.4c1.8-1 2-.9 1.5.5-.4 1-.3 1.5.2 1.1.5-.3 1.2.1 1.4.7.4.8.6.9.6.2.1-.7-.7-2-1.6-3.1-1-1-1.7-1.7-1.6-1.4.2.2-.5.9-1.4 1.6-1.3 1-1.9.9-3.3-.4-.9-.9-1.5-1.9-1.3-2.4.2-.4-.1-.7-.6-.7-.6 0-1.1.4-1.1 1zm24-.2c0 .5.7.9 1.5.9s1.2-.4.9-.9c-.3-.4-.9-.8-1.5-.8-.5 0-.9.4-.9.8zm4 0c0 .5.7.9 1.5.9s1.2-.4.9-.9c-.3-.4-.9-.8-1.5-.8-.5 0-.9.4-.9.8zm4 .4c0 .4.4.8.9.8.6 0 1.2-.4 1.5-.8.3-.5-.1-.9-.9-.9s-1.5.4-1.5.9zm10.3.7c0 1.1.5 1.8.9 1.5.4-.3.5-1.1.1-1.9-.7-2.1-1.2-1.9-1 .4zm5.2-.9c-.2.3.7.6 2.1.6 1.3 0 2.4-.3 2.4-.7 0-.9-4-.8-4.5.1zm7.5-.6c0 .2.8 1 1.8 1.7 1.5 1.3 1.6 1.2.3-.4S384 6.6 384 7.4zm7.6 3.3c-.6 1.4-.5 1.5.5.6.7-.7 1-1.5.7-1.8-.3-.3-.9.2-1.2 1.2zm33.8-.3c.1.8.5 1.8.8 2.2.4.3.5-.1.4-1-.1-.8-.5-1.8-.8-2.2-.4-.3-.5.1-.4 1zm-201.2.8c-2 2-1.4 2.7 1.9 2.3 4.8-.6 5.3-1.7 1.4-2.9-1.2-.3-2.6-.1-3.3.6zm117.1.7c.2 1.4.9 2.7 1.5 2.9.7.2 1 .8.6 1.3-.3.5.2 1.2 1 1.5.9.3 1.3 1.1.9 1.7-.4.6-.1.7.7.2 1-.6 1-1.1-.3-2-.9-.7-1.4-1.5-1-1.8.3-.4-.2-.9-1.1-1.3-.9-.3-1.4-.9-1.2-1.3.3-.4 0-1.3-.5-2.1-.7-1.1-.8-.9-.6.9zm3.2-.4c1.1.9 1.9 1.9 1.8 2.3-.2.4.7.7 2 .7 1.2 0 2.1-.5 2-1.3-.2-.6.4-1.2 1.2-1.2.8 0 1.5-.5 1.5-1 0-.7-.7-.7-2 0-1.1.6-1.8 1.5-1.5 2.1.4.5-.3.9-1.5.9s-1.9-.4-1.5-.9c.3-.6-.5-1.5-1.7-2.1-2.2-1.1-2.2-1.1-.3.5zm11.1.2c-.4.9-.4 1.4 0 1 .4-.4 1.3.1 2.1 1.1 1.2 1.5 1.3 1.4.2-.8-1.6-3.3-1.6-3.3-2.3-1.3zm25-.2c-1.1.8-1.5 1.5-.9 1.5s1.6-.7 2.3-1.5c1.6-1.9 1.1-1.9-1.4 0z"/><path d="M231 12c0 .5.5 1 1 1 .6 0 1-.5 1-1 0-.6-.4-1-1-1-.5 0-1 .4-1 1zm133.1.4c-.9 1.1-.9 1.6 0 2.2.8.5.9.3.4-.6-.6-1-.4-1.2.8-.7 1.1.4 1.4.2 1-.9-.6-1.7-.8-1.7-2.2 0zm31.3 0c.1.8.5 1.8.8 2.2.4.3.5-.1.4-1-.1-.8-.5-1.8-.8-2.2-.4-.3-.5.1-.4 1zm8.5.3c-1.3 1.6-1.2 1.7.4.4.9-.7 1.7-1.5 1.7-1.7 0-.8-.8-.3-2.1 1.3zm-44.2.4c.7.7 1.5 1 1.8.7.3-.3-.2-.9-1.2-1.2-1.4-.6-1.5-.5-.6.5zm71.8 0c-.4.6-.5 1.2-.2 1.5.2.3.7-.2 1-1.1.7-1.7.1-2-.8-.4zm-96.1.7c.3.6.1 1.2-.6 1.4-.8.3-.7.6.3 1 2.7 1 4-.6 1.8-2.1-1.2-.7-1.8-.8-1.5-.3zm18.1.2c.3.5-.1 1-.9 1-.9 0-1.6.5-1.6 1 0 .7.7.7 2 0 1.7-.9 2-3 .4-3-.3 0-.2.4.1 1zm21.5-.6c0 .2.7.7 1.6 1 .8.3 1.2.2.9-.4-.6-1-2.5-1.4-2.5-.6zm8 0c0 .2.7.7 1.6 1 .8.3 1.2.2.9-.4-.6-1-2.5-1.4-2.5-.6zm7.6.4c-.2.4.4.8 1.4.8 1 0 1.6-.4 1.4-.8-.3-.4-.9-.8-1.4-.8-.5 0-1.1.4-1.4.8zm30.9.1c-.3.5-.2 1.2.3 1.5.5.3.9-.1.9-.9 0-1.7-.3-1.9-1.2-.6zm-201.2.8c-1.8.6-1.6 2 .3 2.7 1.6.6 4.4-.9 4.4-2.3 0-.8-3-1-4.7-.4zm146.6 1c-1.3 1.6-1.2 1.7.4.4.9-.7 1.7-1.5 1.7-1.7 0-.8-.8-.3-2.1 1.3zm-36.6.8c-1.9 2.1-1.6 2.7.7 1.3 1.1-.7 2-1.6 2-2 0-1.2-1.4-.9-2.7.7zm25.1 0c-.4.8-1.1 1.2-1.7.8-.6-.3-.7-.1-.3.5 1 1.6 1.4 1.5 2.6-.8.6-1.1.8-2 .5-2-.3 0-.8.7-1.1 1.5zm19.2-.7c-.3.5.1.9.9.9s1.2-.4.9-.9c-.3-.4-.7-.8-.9-.8-.2 0-.6.4-.9.8zm7 .9c-.6 1.4-.5 1.5.5.6.7-.7 1-1.5.7-1.8-.3-.3-.9.2-1.2 1.2zm20.9-.7c-.3.6.1.7.9.4 1.8-.7 2.1-1.4.7-1.4-.6 0-1.3.4-1.6 1zm-54.3 1.3c1 .8 1.4 1.8 1 2.2-.4.5-.1.5.6.1 1.7-1 1.5-1.4-1-2.6-2.1-1-2.1-1-.6.3zm15.8-.4c0 .6.4 1.3 1 1.6.6.3.7-.1.4-.9-.7-1.8-1.4-2.1-1.4-.7zm-31.4 1.7c-1.1.8-1.6 1.4-1 1.4 1.3 0 3.9-1.8 3.4-2.4-.3-.2-1.4.2-2.4 1zm7.2-.9c1.3.3 1.9.9 1.6 1.5-.4.7-.2.8.5.4 1.7-1.1.3-2.6-2.2-2.5-2.2.2-2.2.2.1.6zm19.2.3c0 .5.5 1 1 1 .6 0 1-.5 1-1 0-.6-.4-1-1-1-.5 0-1 .4-1 1zm19 0c-.9.6-1 1-.3 1 .6 0 1.5-.5 1.8-1 .8-1.2.4-1.2-1.5 0zm6 0c-.9.6-1 1-.3 1 .6 0 1.5-.5 1.8-1 .8-1.2.4-1.2-1.5 0zm6-.6c0 .2.8 1 1.8 1.7 1.5 1.3 1.6 1.2.3-.4s-2.1-2.1-2.1-1.3zm112.4 143.4c-2.1 1.6-10 7.1-17.4 12.4-39.2 27.6-81.4 57.4-96.5 68.1-33.2 23.5-73.3 51.7-83.1 58.6-2.8 2-16.6 11.7-30.6 21.6l-25.5 18 119.1.5 119.1.5v137h-32.2c-17.8 0-32.3.4-32.3.8s-.8.4-1.7-.2c-1-.5-2.6-.5-3.9-.1-1.2.5-2.4.6-2.7.3-.3-.2-4.1-.4-8.4-.4-4.3.1-8.7.1-9.8.1-15.1-.2-19.6 0-20.5.5-.5.3-1 .2-1-.4 0-.5-1-.8-2.2-.6-3.8.8-28.5.8-29.7.1-.6-.4-1.1-.3-1.1.2s-1.7.6-4 .2c-3.6-.7-4-.5-4.1 1.4 0 2.1-.1 2.1-.9.1-.5-1.1-.9-1.6-.9-1-.1.5-.6.3-1.1-.5-.7-1.1-1-1.1-1-.2 0 .7-.4 1-1 .7-.6-.3-1 .4-1.1 1.7-.1 2.2-.2 1.9-1.5-2-.2-.8-.9-1-1.6-.5-.7.4-2.1.6-3.2.4-1.2-.2-1.6.2-1.1 1.1.3.7 0 .6-.7-.3-1-1.2-1.9-1.4-3.8-.7-1.5.5-2.6.5-2.8 0-.1-.5-1.4-.7-2.7-.4-1.4.2-2.2.9-1.9 1.6.3.6 0 .4-.8-.4-1.3-1.5-10.1-2.2-9.2-.8.2.4 0 .9-.6 1.3-.5.3.4 2 2 3.7 1.7 1.7 2.8 3.3 2.6 3.6-.3.2-1.7-1-3.2-2.7-2-2.4-3.2-3-4.8-2.6-1.1.4-1.6.3-1.1-.2.6-.4 1.1-1.7 1.3-2.8.2-1.8.1-1.8-1.8.4-1.1 1.3-2 2.7-2 3.2 0 .8 2.3 1.3 4.4 1 1.4-.3 5.4 5.1 4.9 6.6-.5 1.2-.7 1.2-1.4.2-.4-.7-.6-1.6-.4-2 .3-.3-.4-1.4-1.5-2.4-2.2-2-2.8-.7-.7 1.4 1 1.1.8 1.1-1 0-1.2-.7-1.9-1.7-1.7-2.1.3-.4-.2-.8-1.1-.8-.9 0-1.4.3-1.1.8.2.4-1.2.7-3.2.7-2.4 0-3.6-.5-3.5-1.3.2-.6-.2-1.2-.7-1.2-.6 0-1 .6-1 1.3 0 2 2.1 3.6 3.8 3 .9-.4 1.3-.2.9.4-.4.6-1.8 1-3.2 1-1.9 0-2.5-.4-2.1-1.4.3-.8.1-1.3-.5-1.1-.6.2-1.1.8-1.1 1.3 0 .6-.4 1.5-.9 2.1-.6.7.4 1 3.2 1 2.6-.1 4.5-.7 5.3-1.9.7-.9 1.7-1.7 2.1-1.7.4 0 .2.7-.5 1.5-1.1 1.3-.9 1.5 1 1.3 1.3-.2 2.4.3 2.6 1 .1.7 0 .8-.3.2-.8-1.6-2.6-1.2-2 .5.4.8-.4 2.2-1.8 3.4-3 2.3-3.3 3.6-.5 2.1 1.5-.8 2-.8 2 .2 0 .9.3 1 .8.2.4-.6 1.6-.8 2.6-.4 1.1.3 3.9.3 6.3 0 2.7-.4 4.3-.3 4.3.3s.7.2 1.6-.9c.8-1 1.3-1.4 1-.8-.4.7.6 1.4 2.4 1.6 2.7.4 3 .2 2.4-1.6-.5-1.9-.5-1.9.7-.5 2.1 2.4 5.9 3.1 5.9 1.1 0-1.1.3-1.3.8-.6.7 1.2 13.2 2.4 13.2 1.4 0-.3 2.7-.5 6-.5s6 .2 6 .5 2.2.5 4.9.5 4.7-.3 4.5-.7c-.2-.4.1-1 .7-1.4.7-.4.9-.3.5.4-.3.6-.2 1.3.4 1.7.5.3 1-.1 1-.9s.4-1.7.9-2c.5-.3.8.2.7 1.1 0 .9.5 1.8 1.3 2.1.8.3 1.1 0 .7-.6-.3-.6-.1-1.4.5-1.8.7-.4.9-.3.5.4-.3.6-.2 1.3.4 1.7.5.3 1-.2 1-1.1 0-1.6.1-1.6 1.5.2 1.3 1.6 1.6 1.7 2.5.4.7-1.1 1-1.1 1-.2 0 .7.5 1 1 .7.6-.4.8-1 .6-1.4-.3-.4.1-.8.8-.8.8 0 1.2.6.9 1.4-.3.7 0 1.3.5 1.3.6 0 1.3-.8 1.5-1.8.4-1.5.5-1.5.6.2.1 1.5.4 1.6 1.6.6.8-.7 1.5-.8 1.5-.3 0 1.1 2.9 1.1 4.8-.1.6-.4 1.2-.4 1.2.1 0 1.2 124 1.1 124.1-.2.5-3.6.3-338.5-.2-338.5-.3 0-2.3 1.3-4.5 2.8zm-198.9 321c1.5.8 1.6 1.1.5 1.2-1.8 0-4-1.9-4-3.5 0-.7.3-.6.8.1.4.6 1.6 1.6 2.7 2.2zm2.5-1.8c0 .5-.4 1-1 1-.5 0-1-.5-1-1 0-.6.5-1 1-1 .6 0 1 .4 1 1zm6 0c0 .5-.4 1-1 1-.5 0-1-.5-1-1 0-.6.5-1 1-1 .6 0 1 .4 1 1zm6 0c0 .5-.4 1-1 1-.5 0-1-.5-1-1 0-.6.5-1 1-1 .6 0 1 .4 1 1zm22 .9c.7 1.5.7 1.9-.5 1.7-.8-.1-1.8-.6-2.2-1.1-.5-.4-.2-.5.6 0 1.1.6 1.3.4.8-.8-.9-2.3 0-2.1 1.3.2zm28.1-.2c1.2 1.6 1.2 1.7-.2.6-.9-.7-2-.9-2.4-.5-.5.4-.5.1-.1-.6.9-1.6 1.1-1.5 2.7.5zM309 482c0 .5-.4 1-1 1-.5 0-.8.6-.6 1.2.1.7.1 1-.1.5-.3-.4-.9-.4-1.5-.1-.5.3-.4-.3.4-1.5 1.4-2.2 2.8-2.8 2.8-1.1zm4.8.4c-1 .7-1.5 1.6-1.1 2 .4.4 0 .4-1 0-1.7-.6-1.7-.7 0-2 1-.7 2.3-1.3 2.8-1.3.6 0 .2.6-.7 1.3zm7.2-.4c0 .5-.4 1-1 1-.5 0-1-.5-1-1 0-.6.5-1 1-1 .6 0 1 .4 1 1zm16 2.5c0 .5-.5.3-1-.5s-1-2-1-2.5c0-.6.5-.3 1 .5s1 1.9 1 2.5zm7.7-1.5c-.1 1.1-.5 2-.9 2-1 0-1-.4-.2-2.4.8-2.2 1.3-2 1.1.4zm8.8-1.1c-.9.8-3.6 1-3 .2.2-.4 1.1-.8 2-.8.8 0 1.3.3 1 .6zm4.5-.4c0 .2-.6.8-1.3 1.4-1 .8-1.4.7-1.4-.2 0-.8.6-1.4 1.4-1.4.7 0 1.3.1 1.3.2zm29-.1c0 .3-.4.8-1 1.1-.5.3-1 .1-1-.4 0-.6.5-1.1 1-1.1.6 0 1 .2 1 .4zm3.4.4c.3.5-.1.9-.9.9s-1.2-.4-.9-.9c.3-.4.7-.8.9-.8.2 0 .6.4.9.8zm-57 2.6c-.3.9-1 1.6-1.5 1.6s-.4-.9.3-2c1.4-2.2 2.1-2 1.2.4zm29.2-.4c0 1.2-.4 1.6-.9 1.1s-.6-1.4-.3-2c1-1.5 1.2-1.4 1.2.9zm-44.9-.4c-.3.3-1.2.4-1.9.1-.8-.3-.5-.6.6-.6 1.1-.1 1.7.2 1.3.5zm7.3.6c0 .4-.7.8-1.5.8s-1.5-.4-1.5-.8c0-.5.7-.9 1.5-.9s1.5.4 1.5.9zm44-.8c0 .2-.7.7-1.6 1-.8.3-1.2.2-.9-.4.6-1 2.5-1.4 2.5-.6zm-48.2 3.1c-.3.3-.9-.2-1.2-1.2-.6-1.4-.5-1.5.5-.6.7.7 1 1.5.7 1.8zm33.6-1.7c.2.4-.4.8-1.4.8-1 0-1.6-.4-1.4-.8.3-.4.9-.8 1.4-.8.5 0 1.1.4 1.4.8zm-42.9 1.2c.3.5.2 1-.4 1-.5 0-1.3-.5-1.6-1-.3-.6-.2-1 .4-1 .5 0 1.3.4 1.6 1zm7.9 1.3c1 .9 1.2 1.7.6 1.7s-1.3-.6-1.6-1.3c-.2-.7-1.3-1.3-2.4-1.4-1.6-.1-1.8.1-.8 1.7.7 1 1.7 1.8 2.2 1.7.6-.1 1.1.8 1.1 2 0 1.3-.4 2.3-.9 2.2-.5 0-1.3.5-1.8 1.3-.8 1-.9 1-.5-.2.2-.8 1-1.4 1.6-1.3.6.2 1.1-.6 1.1-1.8 0-1.1-.4-1.8-.9-1.5-1 .7-4.3-3.9-3.4-4.8 1-1 3.9-.1 5.7 1.7zm8.9-.6c-.4.9 0 1.1 1.3.7 1.6-.5 1.6-.4.4.5-1.1.8-1.8.7-2.6-.4-.6-.8-1.5-1.1-1.9-.7-.5.4-.5.2-.2-.4.9-1.6 3.6-1.3 3 .3zm11.6.5c-1.2 2.3-2.1 2.4-1.2.1.5-1.2.3-1.4-.7-.8-.8.5-1.1.4-.7-.2.3-.5 1.3-1 2.1-1 1.1 0 1.3.5.5 1.9zm10.1-1.7c0 .1-.8 1-1.9 1.9-1.6 1.5-1.9 1.5-2.4.2-.4-1.1-.1-1.3 1-.9 1 .4 1.4.2 1-.4-.3-.5 0-1 .8-1s1.5.1 1.5.2zm46.6.7c.3.4-.1.5-1 .4-.8-.1-1.8-.5-2.2-.8-.3-.4.1-.5 1-.4.8.1 1.8.5 2.2.8zm-90.3 1.7c-.2.6.4 1.1 1.3 1.1.8 0 1.2-.4.9-1-.4-.6.1-.7 1.1-.3 1.5.6 1.5.7-.1 1.5-1.9 1.1-4.9.3-4.1-1.1.4-.5.1-1.2-.4-1.4-.6-.3-.5-.4.2-.3.7.2 1.2.9 1.1 1.5zm52.3.7c.1.9 0 1.3-.4 1-.3-.4-.7-1.4-.8-2.2-.1-.9 0-1.3.4-1 .3.4.7 1.4.8 2.2zm8.3-1.3c.8 1 .7 1.4-.2 1.4-.8 0-1.4-.6-1.4-1.4 0-.7.1-1.3.2-1.3.2 0 .8.6 1.4 1.3zm-71.1 1.7c1.2 1.2 2.2 2.5 2.2 3.1 0 .6-.8.2-1.7-.8-.9-1-2.3-2.4-3.2-3.1-.8-.6-1-1.2-.5-1.2.6 0 2 .9 3.2 2zm28.8-.5c.4.8 1.1 1.2 1.7.8.5-.3.7-.1.4.5-.4.5-1.5.9-2.5.8-.9-.2-2.3.4-3 1.3-1.1 1.4-1.1 1.3-.2-.7.6-1.2 1.5-2 2.1-1.7.5.4.9.2.9-.4 0-.5-.6-1.2-1.2-1.4-1-.4-1-.6 0-.6.7-.1 1.5.6 1.8 1.4zm8.4 0c-.7.8-1.7 1.5-2.3 1.5-.6 0-.2-.7.9-1.5 2.5-1.9 3-1.9 1.4 0zm20-1.1c0 .2-.7.7-1.6 1-.8.3-1.2.2-.9-.4.6-1 2.5-1.4 2.5-.6zm-50.2 3.2c-.7 1.5-1.4 2.1-1.6 1.5-.2-.7.2-1.8.8-2.6 1.8-2.2 2.1-1.8.8 1.1zm9.3.1c-1.2 2-1.4 1.4-.5-1.2.4-.9.9-1.4 1.1-1.1.3.2 0 1.3-.6 2.3zm24.6-.1c0 .7-.6 1.5-1.3 1.8-.9.3-1.1-.1-.7-1.1.5-1.2.3-1.4-.7-.8-.8.5-1.1.4-.7-.2.9-1.4 3.4-1.2 3.4.3zm16.7-.8c.3.5-.1.9-.9.9s-1.2-.4-.9-.9c.3-.4.7-.8.9-.8.2 0 .6.4.9.8zm41 0c.2.4-.5.9-1.7.9-1.7.2-1.9 0-.7-.7 1.8-1.2 1.8-1.2 2.4-.2zm-90.3 2.9c-1.2 2-1.4 1.4-.5-1.2.4-.9.9-1.4 1.1-1.1.3.2 0 1.3-.6 2.3zm42.6-1.3c0 .8-.6 1.2-1.5.9-1.1-.5-1.1-.7 0-1.4.7-.5 1.3-.9 1.4-.9 0 0 .1.6.1 1.4zm42 .1c0 .8-.4 1.2-.9.9-.5-.3-.6-1-.3-1.5.9-1.3 1.2-1.1 1.2.6zm-80.9 1.6c-1.2 1-2.5 1.5-2.8 1.2-.3-.3.1-.8.8-1 .6-.3 1-.8.8-1.2-.3-.4.4-.7 1.5-.7 1.9 0 1.8.1-.3 1.7zm7.2-1.1c0 .5-.4 1-1 1-.5 0-1-.5-1-1 0-.6.5-1 1-1 .6 0 1 .4 1 1zm16 0c0 .5-.2 1-.4 1-.3 0-.8-.5-1.1-1-.3-.6-.1-1 .4-1 .6 0 1.1.4 1.1 1zm33-.6c0 .2-.8 1-1.7 1.7-1.6 1.3-1.7 1.2-.4-.4 1.3-1.6 2.1-2.1 2.1-1.3zm6 .2c0 .8-1.9 1.3-2.4.6-.3-.5.1-.9.9-.9s1.5.2 1.5.3zm34 0c0 .8-1.9 1.3-2.4.6-.3-.5.1-.9.9-.9s1.5.2 1.5.3zm-106.2 4.2c-1.8.8-2.1.6-2.4-1.5-.4-2.2-.3-2.2 1.4-.5 1 .9 1.4 1.8 1 2zm5.2 0c0 .1-.9-.2-2-.8-1.1-.6-2-1.5-2-2 0-.6.9-.2 2 .7 1.1 1 2 1.9 2 2.1zm-9-1.9c0 .5-.7 1.2-1.6 1.5-1.4.5-1.5.4-.4-.9 1.4-1.7 2-1.9 2-.6zm16.2 1.3c-.7.7-1.2.8-1.2.2 0-1.4 1.2-2.6 1.9-1.9.2.3-.1 1.1-.7 1.7zm15.8-1.8c0 .2-.7.6-1.5 1-.8.3-1.5.1-1.5-.4 0-.6.7-1 1.5-1s1.5.2 1.5.4zm3 .6c0 .5-.2 1-.4 1-.3 0-.8-.5-1.1-1-.3-.6-.1-1 .4-1 .6 0 1.1.4 1.1 1zm16.4-.2c.3.5-.1.9-.9.9s-1.2-.4-.9-.9c.3-.4.7-.8.9-.8.2 0 .6.4.9.8zm7.9.7c-.3.9-.8 1.4-1 1.1-.3-.3-.2-.9.2-1.5.9-1.6 1.5-1.3.8.4zm29.2-.5c.3.5.1 1-.4 1-.6 0-1.1-.5-1.1-1 0-.6.2-1 .4-1 .3 0 .8.4 1.1 1z"/><path d="M230.6 477.8c-.2.4-3.2.7-6.5.6-3.4-.1-6.1.2-6.1.7 0 .4.6.6 1.3.3.7-.2 1.3.4 1.4 1.6.2 1.9 0 1.9-2.3.4-1.3-.9-2.2-1.9-1.9-2.3.2-.4-1.4-.8-3.6-.8-2.7 0-3.9.4-3.9 1.3 0 .8-.4 1.4-1 1.4-.5 0-.9-.5-.7-1.2.1-.7-1.5-1.1-4.3-1.2-3.3 0-4.4.3-4.2 1.3.2.9-.3 1.1-1.3.7-1-.3-1.3-.2-1 .4.4.6 1.4.9 2.3.8 1.1-.2 1.8.5 2 1.7.2 1.5-.3 2.1-1.8 2.2-1.2.1-1.8-.3-1.4-.8.3-.6-.3-1.7-1.5-2.5-2.6-1.8-2.7-3.1-.3-3.7.9-.2-.5-.4-3.3-.2-3.2.1-4.9.6-4.7 1.3.1.7-.2 1.2-.8 1.2-.5 0-1 .5-1 1.2 0 .6 1 .2 2.3-1 2.5-2.4 4.7-2.9 4.7-1 0 .6-.3.8-.7.5-1-1.1-4.2 2.3-3.6 3.9.6 1.6-1.3 1.9-2 .4-.3-.6-.4-.5-.3.2.2.7 1.3 1.2 2.6 1 1.8-.2 2 .1 1.2 1.1s-.6 1.6.9 2.5c1.1.7 1.9.8 1.9.2 0-.5-.4-1-1-1-.5 0-1-.5-1-1.1 0-.5.5-.7 1-.4.6.3 1 .2 1-.2 0-.5-.9-1.4-2.1-2.1-1.2-.7-1.8-1.6-1.5-1.9.3-.3 1.2 0 2 .6 1 .8 1.6.9 2.1.1.3-.5 1.1-1 1.7-1 .7 0 .7.4.1 1.2-.5.7-.9 3.5-.7 6.3.3 7.1.3 7.2 1.4 5.5.8-1.2 1-1.2 1-.1 0 .8.3 1.1.6.8.4-.3 1.6-.2 2.8.4 2 1 2 1 .2-.5-1.6-1.3-1.6-1.6-.5-1.6.9 0 1.9.3 2.3.7.4.4 1.8.8 3.2.9 1.7.1 2.2-.2 1.4-1-1.9-1.9-1-2.9 1-1.1 1.1 1 1.7 2.3 1.3 2.9-.4.6 0 .6.9-.1.8-.7 1.8-1.1 2.1-.8.4.3.5.2.2-.2-.7-.9 1.5-3.3 3.1-3.3.8 0 1.4.4 1.4 1 0 .5-.5.9-1.1.7-1.8-.3-2.1 2-.4 2.7.9.3 1.4.2 1.1-.3-.3-.5.6-1.6 2-2.6 2.5-1.6 2.6-1.6 2 .3-.5 1.6-.2 1.9 1.9 1.9 2.6 0 3.3-1.1 1.3-2.3-.6-.4-.8-.3-.5.3.3.5 0 1-.8 1-1.1 0-1.2-.4-.4-1.4 1-1.1 1.5-1.1 2.7-.1 1.3 1.1 1.4 1.1.7-.1-.5-.9-.4-1.2.3-.7.6.4.9 1.3.5 2.1-.3.8 0 1.5.7 1.5.6 0 .8-.5.5-1-.3-.5-.1-1 .4-1 .6 0 1.1.4 1.1.9s1.1.8 2.5.8 2.5-.5 2.5-1.1c0-.6.4-.4 1 .4.5.8 1.2 1.1 1.7.7.9-.9-1.7-2.8-2.9-2.1-1 .6-1.1-1-.1-1.9.3-.4 1.5.1 2.5 1 1.5 1.4 1.9 1.4 1.6.3-.2-.9.3-1.4 1.1-1.2.7.2 2.1-.4 3-1.2 1-.9 2.8-1.3 4.4-1.1 1.5.3 2.7.1 2.7-.5 0-.5-.5-.9-1.1-.7-.6.1-1.4-.5-1.6-1.3-.4-1.2-.3-1.2.5-.2.8 1.1 1 1.1 1.4 0 .7-1.7-1.6-5-2.7-4-.5.4-.6.2-.2-.4.3-.6-.4-1-1.8-1s-2.1.5-1.8 1.2c.7 2-1.7 2.7-3.6 1-2.3-2.1-3.5-2-2.7 0 .6 1.4.4 1.5-.9.4-1.1-.9-1.3-1.5-.5-2 .7-.4 1.1-1 1.1-1.4-.3-1.9.1-2.3 2.2-2.2 1.2.1 2.7.5 3.4.9.6.4 1.4.3 1.7-.2.7-1 2.5-.9 4.2.2.6.3 1.4.3 1.8 0 1.3-1.4 4.8-1.4 4.3 0-.3.7.2 1.3 1.2 1.3.9.1 2.4.5 3.4.9s1.7.4 1.6-.1c-.4-2.2.3-3 2.5-3 1.4 0 2.3.3 2 .7-.2.4.4 1.3 1.3 2 1.4 1.2 1.5 1.1.9-1.1-.5-1.7-.4-2.1.2-1.1.8 1.1 1.1 1.1 1.6 0 .3-.8.4-.5.1.7-.4 1.4 0 2.1 1 2.1 1.1 0 1.4-.7.9-2.1-.4-1.5-.3-1.7.4-.8.5.8 1.3 1.4 1.7 1.4.4 0 1.2-.6 1.6-1.4.7-1 .9-1 .9-.1 0 .7.9 1.3 2.1 1.3 1.2 0 1.9-.5 1.7-1.3-.3-.8-3.5-1.2-11.4-1.2-6.1 0-11.2-.4-11.6-1-.5-.7-.8-.7-.8 0 0 1.2-19.9 1.4-21.7.2-.6-.4-1.4-.4-1.7.1zm2.7 3.8c-.3.8-.9 1.4-1.4 1.4-.5 0-.9.5-.9 1.1 0 .5.4.8.9.5.5-.3 1.4.1 2.1.9 1.4 1.7 3.4 1 2.3-.8-.3-.7.4-.3 1.6.8l2.3 2 1.7-2.1c1.7-2.2 1.8-2.2 4.2-.3 1.3 1.1 1.7 1.8.9 1.7-.9-.2-1.4.4-1.4 1.4.1 1-.3 1.5-.8 1.2-.5-.3-1.8.2-2.9 1.2-1 .9-2.2 1.4-2.6 1.1-.3-.4-1.2-.2-1.9.4-.8.7-1.4.7-1.9 0-.4-.7-1.2-.7-2.5.1-1.3.9-1.6 1.6-.9 2.4 1.4 1.7-1.2 1.2-4.2-.8-2.1-1.3-2.2-1.7-1-3.2 1.4-1.6 1.6-1.6 2.8.6 1.2 2 1.3 2.1 1.1.3-.2-1.1-.7-2.4-1.3-2.8-.6-.5-.4-.7.6-.4.9.3 1.6-.1 1.6-.7 0-.8-1-1.2-2.4-1-1.2.1-2.5-.2-2.9-.7-.3-.5 0-.9.6-.9s.8-.5.5-1c-1-1.7.7-1.1 2 .6 1.1 1.5 1.2 1.5 1-.5-.1-1.2-.7-2.7-1.5-3.4-1-1-1.1-.9-.5.2.5.9.3 1.2-.5.9-.8-.2-1.6-1-1.8-1.8-.3-.9.2-1.1 1.7-.7 1.1.3 2.4.1 2.7-.4.9-1.5 3.4 1 2.7 2.7zm-31.7-1.5c.4.8.9.7 1.6-.2.8-1.1.9-1 .4.3-.3 1.1 0 1.8.7 1.8.8 0 .8.3-.2.9-.9.6-1 1.1-.2 1.5.6.4 1.1 1.2 1.1 1.8 0 .6-.6.6-1.5-.2-.9-.7-1.4-1.8-1.2-2.4.2-.6-.6-1.8-1.7-2.8-1.2-1-1.6-1.7-.9-1.8.6 0 1.5.5 1.9 1.1zm4.9-.2c-.3.5-.1 1.2.3 1.5 1 .6.9 3.6-.2 5.4-.4.7-.2 2 .5 2.8 1.1 1.3 1 1.5-.6 1.2-1-.1-2 .4-2.2 1.2-.4 1.3-.3 1.3.5.1.8-1.1 1-.8.9 1.1-.2 2.4-1.7 3.1-3.3 1.5-.4-.3.3-2.3 1.4-4.5 1.1-2.1 1.8-5.1 1.6-6.7-.3-2.8.2-4.5 1.2-4.5.3 0 .3.4-.1.9zm5.5 1.5c1.4 1.8 1.3 1.9-.2 1.3-1.9-.7-3.6 1.1-2.2 2.2 1.2.8 1.4 6.1.3 6.1-2 0-.7 1.6 1.3 1.7 1.6.2 1.9 0 1-.6-1.1-.7-1.1-.9.1-1.4.9-.3 1.3-1.6 1.2-3.1-.3-2.8.2-3.1 2.5-1.6 1 .6 1.1 1 .3 1-.7 0-1.3.5-1.3 1.2 0 .9.3.9 1.2 0 1.4-1.4 2.8-1.6 2.8-.4 0 .5-1 1.4-2.2 1.9-2.3 1-2.2 1 .5 1.2 5.1.3 5.7.4 5.7 1.4 0 .5-.7.7-1.5.4-.8-.4-1.7-.2-2 .4-.4.5-1.5.3-2.8-.6-2.4-1.6-4.1-2-3.3-.6.3.4-.2 1.6-1.2 2.4-1.7 1.5-1.9 1.5-3.5-.3-1-1.2-1.2-2.2-.6-2.6.6-.4.6-1.1-.2-2-.8-1-.9-1.8 0-2.7.6-.8.8-1.6.6-1.9-.3-.3 0-1.7.6-3.2.7-1.4 1.3-2.5 1.3-2.4.1.2.8 1.2 1.6 2.2zm4.4-.2c.9 1.2 1.6 1.8 1.6 1.3s.5-.4 1.1.2c1.7 1.7 4.3.5 2.8-1.3-1.1-1.4-1-1.5 1.4-1.8 1.9-.2 3.6 2.6 2.6 4.5s1.2 4.4 2.6 3.1c.5-.4-.2.7-1.6 2.4-1.8 2.4-2.6 2.8-3.2 1.7-.5-.7-1.2-1.1-1.8-.8-.5.4-.9.1-.9-.5s-.4-.9-.8-.6c-.4.2-.8-.4-.8-1.4 0-1 .4-1.6.8-1.4.4.3.8 0 .8-.6s.4-.9.8-.6c1.2.7 3.8-1.2 2.9-2.1-.5-.4-1.2-.1-1.7.7-.6.8-1 1.2-1 .8 0-.4-1-.4-2.2.1-2.9 1-5.7.3-3.7-1 1.1-.7 1.1-.9-.1-.9-.9 0-2.1.5-2.8 1.2-.9.9-1.5.9-2.4-.1-1.1-1-1-1.1.3-.6 1.9.7 3.5-1 1.9-2-1.5-.9-1.2-2.5.4-2.5.8 0 2.2 1 3 2.2zm40.6-1c0 .4-.4.8-.9.8-.6 0-1.2-.4-1.5-.8-.3-.5.1-.9.9-.9s1.5.4 1.5.9zm-63.2 2c-.4 1.2-2.2 1.2-2.6 0-.1-.5.4-.9 1.3-.9s1.4.4 1.3.9zm2.8 2.6c-.7 1.2 3.3 5.4 4.5 4.7.5-.4.9-1.2.8-1.8 0-.9-.2-.8-.6.1-.5 1.2-2.3.7-2.3-.7 0-1.3 4.3-.7 4.7.6.6 1.6-3.1 3.4-5.4 2.7-1.5-.5-1.5-.4-.3.5s1.3 1.1.1 1.1c-.8 0-1.2.3-.9.6.4.3 1.6.1 2.7-.6 1.3-.6 2.1-.7 2.1-.1 0 1.3-1.8 2.4-4.4 2.6-1.9.2-2.1-.2-2-4.4.2-5.6.2-6.1 1-6.1.3 0 .3.4 0 .8z"/><path d="M230.6 479.9c-.4.5-.2 1.2.3 1.5.5.4 1.2.2 1.5-.3.4-.5.2-1.2-.3-1.5-.5-.4-1.2-.2-1.5.3zm1.8 6.8c.2 1-.1 2.3-.6 3-.5.7-.5 1.4.1 1.7.5.4 1.3.2 1.6-.4.5-.8 1.1-.8 2 0 .9.7 1.5.8 1.9.1.4-.6 1.2-.8 1.9-.5 1.5.5 6.4-4.3 5.4-5.3-.4-.3-1.6.2-2.7 1.2-1.5 1.4-2.3 1.5-3.4.6-1-.9-1.6-.9-2.1-.1s-1.3.6-2.5-.5c-1.7-1.6-1.8-1.6-1.6.2zm10.1 1.3c-1 1.2-2.5 1.8-3.2 1.6-.7-.3-1.5-.1-1.9.5-.4.7-1 .7-1.8 0-.9-.7-1.7-.7-2.6.2-1.2 1-1.2.9-.2-.4.6-.9.8-2 .4-2.5-.4-.4 0-.3 1 .4 1.1.9 1.8 1 2.3.2.5-.8 1.1-.7 2.1.1 1.2 1 1.8.9 3.2-.4 2.3-2.4 2.9-2.1.7.3zm-14.8 3.7c-.3.5.4 1.5 1.6 2.3 2.1 1.2 2.1 1.2.7-.6-.8-1-1.5-2-1.6-2.2-.1-.2-.4.1-.7.5zm-5.7-11.3c0 .3.9 1 2 1.6 1.1.6 2 .8 2 .6 0-.3-.9-1-2-1.6-1.1-.6-2-.8-2-.6zm1.4 6.8c-.4.6-.2 1.4.4 1.6.7.2.9.9.5 1.5-.4.7.1.6 1-.2 1.3-1 1.5-1.7.6-2.7-1.4-1.7-1.6-1.7-2.5-.2zm55-9c.7 2.4-.3 4.8-1.8 4.2-.7-.3-1.9.2-2.6 1.1-.8.9-.8 1.5-.2 1.5.6 0 1.4-.5 1.8-1.1.4-.8.9-.7 1.5.2.6 1 .9 1.1.9.1 0-.6.5-1.1 1.1-1 .6.2 1.4-.3 1.7-1.1.3-1 0-1.1-.9-.5-1.2.7-1.2.5 0-.9 1.8-2.2 3.4-1.2 2.1 1.3-1.3 2.4-4 3.9-6 3.2-1.3-.4-1.3-.3-.1 1.1 1.6 2 4.4.9 6.1-2.4 1.2-2 3.7-2.1 3.3 0-.2.6.6.9 2 .7 1.2-.3 2.4-.5 2.7-.5.9-.1.6-6.1-.3-6.2-2-.3-4.8 1.1-4.2 2 .9 1.5 2.8 1.4 1.9-.2-.5-.9-.3-.9.7.1 1.2 1.1 1.2 1.4-.1 2.2-1.7 1.1-4-1.7-3.3-4 .3-1 .2-1.1-.4-.3-1 1.4-4.4 1.2-5.6-.2-.5-.6-.7-.3-.3.7zm-175 .9c-.3.6-.2 1.5.3 2s.9.1.9-1.1c0-2.3-.2-2.4-1.2-.9zm16.1-.1c-.4.6-1 .8-1.4.6-.4-.3-.8.1-.8.9 0 1 .4 1.2 1.2.5.7-.5 1.4-.8 1.7-.5.2.3.5-.2.5-1 0-1.8-.3-1.9-1.2-.5zm7.5-.6c0 .2.8 1 1.8 1.7 1.5 1.3 1.6 1.2.3-.4s-2.1-2.1-2.1-1.3zm26.1 1.3c-.1 2.5 1.4 3.9 2.5 2.2.4-.7.3-.9-.4-.5-.6.3-1.2-.3-1.5-1.6-.4-2.3-.4-2.3-.6-.1zm9.7-1c.6.2 1 .8.7 1.3-.5.9 4.2.6 5.1-.2.3-.3-.2-.8-1.1-1.2-.9-.3-1.3-.2-1 .4.3.6.2 1-.4 1-.5 0-1.3-.5-1.6-1-.3-.6-1.2-1-1.8-.9-.9 0-.8.2.1.6zm7.9 1c.3.7.9 1.3 1.5 1.3.5 0 .7-.4.4-.9-.4-.5 0-1.1.6-1.4.7-.3.3-.4-.8-.4-1.4.1-2 .6-1.7 1.4zm5.4-.8c-1.1.7-1 1 .6 1.5 2.3.7 8.9 7.6 7.3 7.6-1.1 0-7.2 6.1-6.6 6.7.2.2 1.9-1.2 3.9-3.2 2.5-2.5 4-3.3 5.4-2.8 1 .4-.3-1.3-3-3.8-2.6-2.5-4.4-4.8-4.1-5.2.4-.4 1.7.4 3 1.8 2 2.2 2.3 2.2 2.1.6-.1-1.1-.5-1.7-.9-1.5-.4.3-.8.1-.8-.5 0-.5.8-1.2 1.8-1.4.9-.3.2-.4-1.6-.3-1.7.2-3.5.6-3.9.9-1 1.1-2.5.8-1.8-.3.8-1.2.4-1.2-1.4-.1zm119.4.1c-.3.5-.1 1 .4 1 .6 0 1.1-.5 1.1-1 0-.6-.2-1-.4-1-.3 0-.8.4-1.1 1zm-161.9 1.2c.3.5 1 .6 1.5.3 1.3-.9 1.1-1.2-.6-1.2-.8 0-1.2.4-.9.9zm10.4.6c.9 1.9 3 2.3 3 .5 0-.4-.3-.3-.7 0-.3.4-1.2-.1-2-1.1-1.3-1.5-1.3-1.5-.3.6zm5.2-.4c.7.8 1.5 1.2 1.7 1.1.5-.6-1-2.5-2-2.5-.5 0-.4.6.3 1.4zm8.3.3c.1 1.1 1 1.7 2.2 1.6 1.2-.1 1.9.5 2 1.8.2 1.8 0 1.9-1.5.7s-1.6-1.1-.3.4c1.7 2.2 3.2 1.4 2.7-1.5-.2-1.5-1-2.1-2.4-2-1.5.2-2-.2-1.6-1.2.4-.8.2-1.5-.4-1.5-.6 0-.9.8-.7 1.7zm-34.6 1c-1.3 1.6-1.2 1.7.4.4 1.6-1.3 2.1-2.1 1.3-2.1-.2 0-1 .8-1.7 1.7zm16.7-.4c.3 1 .9 1.5 1.2 1.2.3-.3 0-1.1-.7-1.8-1-.9-1.1-.8-.5.6z"/><path d="M236.2 480.7c-.8.3-.4 1.1 1.2 2.4 3.1 2.4 3.7 2.4 3.3-.3-.4-2.1-2-2.9-4.5-2.1zm3.5 2c0 .9-.4 1-1.4.2-.7-.6-1.3-1.2-1.3-1.4 0-.1.6-.2 1.3-.2.8 0 1.4.6 1.4 1.4zm2.8-1.7c-.3.5.3.7 1.3.5.9-.1 2.6.3 3.7 1.1 1 .8 1.5 1.4 1.1 1.4-.5 0-.4.6 0 1.2 1.6 2.3 1.1 6.3-.8 6.2-1-.1-1.5.2-1.2.7.3.5 0 .9-.6.9s-.9.4-.5.9c.3.5 0 1.3-.6 1.7-.8.5-.9.3-.4-.6.5-.9.4-1.1-.3-.6-1.7 1-1.5 2.3.4 3 .8.3 1.2.2.9-.4-.8-1.3.1-1.3 2.8.1 1.2.7 1.9.8 1.5.4-.4-.5-.2-1.5.5-2.3.6-.9.7-1.3.2-1-.6.4-1.7.2-2.5-.4-1.2-.8-1.2-.9.3-.4 1.2.4 1.6.2 1.1-.7-.5-.9-.4-.9.7 0 2.4 2.3 3 1.4 1.3-1.9-1.6-3.1-1.6-3.3.6-4.7 3.2-2.1 5.5-2.4 3.9-.5-.7.8-.7 1.4-.1 1.4.5 0 1.3-.7 1.6-1.5.6-1.8-3-3.6-5.3-2.7-1 .4-1.3.1-.8-1 .6-1.6-1.5-1.9-2.9-.5-.4.3-1.2.3-1.8 0-1.7-1.1-3.5-1.2-4.1-.3zm9.9 3.7c-.9.7-2.1 1-2.6.7-1.4-.9-.1-2 2.2-2 2 0 2 .1.4 1.3z"/><path d="M260.1 480.9c-.7.5-1.2 1.1-1.1 1.5.1.4-.1 1.7-.5 2.9s-.7 2.6-.6 3c.1.4-.8.3-1.9-.3-1.1-.6-1.8-1.6-1.4-2.1.3-.6-.3-.5-1.5.3-2.2 1.4-2.8 2.8-1.1 2.8.6 0 1-.5 1-1 0-.6 1 0 2.2 1.2 1.9 1.9 2.2 2 3.3.5.7-.9 1.5-1.4 1.8-1 .4.3.7.1.7-.5 0-.7-.5-1.2-1.1-1.2-.5 0-.7-.5-.3-1.1.4-.8.9-.7 1.5.2.6 1 .9 1 .9.2 0-.6-.4-1.4-1-1.8-.5-.3-.7-1.2-.4-2 .4-1.1.9-1 2.5.6 2.1 2.1 3.9 2.5 3.9.7 0-.6-.3-.8-.7-.5-.3.4-1.6-.2-2.7-1.2-1.3-1.3-2.6-1.7-3.5-1.2zm-112.5 1.7c-.3.9-.2 2.2.2 3.1.6 1 .9.5.9-1.6 0-3.5-.2-3.8-1.1-1.5zm19.8-.5c-.3.6-.1 1.6.5 2.2.9.9 1.4.8 2.1-.3.9-1.5.4-3-1-3-.5 0-1.2.5-1.6 1.1zm2.6.3c0 .3-.4.8-1 1.1-.5.3-1 .1-1-.4 0-.6.5-1.1 1-1.1.6 0 1 .2 1 .4zm5-.7c.5.2 1 .9 1 1.4 0 .6-.4.7-1 .4-.5-.3-1-.1-1 .4 0 .6.5 1.1 1.1 1.1.8 0 .7.5-.1 1.5-.7.9-1 1.8-.6 2.2.3.3.6.1.6-.5s.8-.9 1.8-.6c1 .4 1.3.2.7-.3-.6-.4-1.1-1.9-1-3.2 0-1.3-.6-2.5-1.3-2.7-.7-.1-.8 0-.2.3z"/><path d="M270.5 482.8c-.3.8-.8 1.2-1.2.9-.3-.4-1.2.1-1.8 1-1.2 1.6-1.5 1.6-4.1-.2-2.3-1.5-2.6-1.5-1.6-.2.8.9 1 2.2.6 2.8-.8 1.4-1.4 5.9-.7 5.9.2 0 1.1-.7 1.9-1.5 1.4-1.4 1.1-1.9-.9-1.6-.4.1-.3-.8.3-1.9 1.3-2.5 2.2-2.6 1.3-.3-.6 1.7-.5 1.7 1.4 0 1.1-.9 2.3-1.4 2.8-1 .4.5.6.3.2-.2-.3-.6.3-1.1 1.3-1.1s1.6.5 1.3 1c-.4.5-.1.6.7.1.9-.5 1.1-.4.6.4-.4.6-.4 1 .1.9.4-.1 1.9.4 3.2 1.1 1.8 1 2.5 1 3.5 0 .8-.9.7-1.1-.4-.7-2 .7-7.7-3.7-6.1-4.6 1.6-1 1.4-2.3-.4-2.3-.8 0-1.7.7-2 1.5zm-146.1 1.4c-1.2 1.4-1.3 1.8-.3 1 .9-.6 1.8-1 2.1-.7.2.3.5-.2.5-1 0-1.9 0-1.9-2.3.7zm5-.1c0 1.3.3 1.5 1.3.7.7-.6 1.3-1.2 1.3-1.3 0-.2-.6-.5-1.3-.8-.7-.3-1.3.3-1.3 1.4zm7.4-1.4c-2.1.5-2.3 1.9-.6 2.9.7.5.8.3.3-.6-.6-.9-.4-1.2.7-.8.9.4 1.5 0 1.5-.8s-.1-1.3-.1-1.3c-.1.1-.9.3-1.8.6zm27.3.9c0 1.1.3 1.4.6.6.3-.7.2-1.6-.1-1.9-.3-.4-.6.2-.5 1.3zm-72.8.9c0 .8.4 1.2.9.9.5-.3.6-1 .3-1.5-.9-1.3-1.2-1.1-1.2.6zm61.7.5c.6 1.1 1.3 2 1.6 2 .2 0 0-.9-.6-2s-1.3-2-1.6-2c-.2 0 0 .9.6 2zm2.6-1.2c-.3.5.1.9.9.9s1.2-.4.9-.9c-.3-.4-.7-.8-.9-.8-.2 0-.6.4-.9.8zm22.5.8c0 1.1.3 1.4.6.6.3-.7.2-1.6-.1-1.9-.3-.4-.6.2-.5 1.3zm-34.6.3c.3.5 0 1.1-.7 1.3-.7.3-.5.7.6 1.1.9.4 1.5.3 1.1-.2-.3-.5 0-1.1.7-1.3.7-.3.5-.7-.6-1.1-.9-.4-1.5-.3-1.1.2zm-57.9 1.3c.3.4 1.1.5 1.9.1 2.1-.7 1.9-1.2-.4-1-1.1 0-1.8.5-1.5.9zm34.4-.2c-.9.6-1 1-.3 1 .6 0 1.5-.5 1.8-1 .8-1.2.4-1.2-1.5 0zm44.6.5c-1.8 1.4-1.6 5.2.3 4 .5-.3 1.1.5 1.3 1.7.3 2.2 2.8 3.9 2.8 1.8 0-.6-.4-.9-.9-.5-.5.3-1.1-.5-1.3-1.7-.2-1.3-.9-2.2-1.6-2.1-1.8.4-1.4-1.5.5-2.6 1-.5 1.6-1.2 1.3-1.4-.3-.3-1.3.1-2.4.8zm6.4-.5c0 .5.5 1 1 1 .6 0 1-.5 1-1 0-.6-.4-1-1-1-.5 0-1 .4-1 1zm9-.2c0 1.6-3.5 4.9-4.7 4.5-.6-.2-1.4.1-1.8.6-.4.7 0 .8 1.1.4 1.2-.4 1.5-.3 1 .5-1.6 2.6 1 1 2.9-1.7 1-1.6 2.3-2.7 2.7-2.5.4.3.5-.2.2-1-.7-1.7-1.4-2.1-1.4-.8zm-54.5 1.2c-.4.6-1.2.7-1.8.4-.7-.4-.9-.4-.5.1.4.4.2 1.5-.4 2.4-1 1.2-.7 1.2.8-.2 1.1-.9 2.3-1.5 2.6-1.2.2.3.5-.2.5-1 0-1.8-.3-1.9-1.2-.5zm24.1.7c-.6 1.4-.5 1.5.5.6.7-.7 1-1.5.7-1.8-.3-.3-.9.2-1.2 1.2zm-98.3.8c0 .8.4 1.2.9.9.5-.3.6-1 .3-1.5-.9-1.3-1.2-1.1-1.2.6zm60.7-.5c-.9.6-1 1-.3 1 .6 0 1.5-.5 1.8-1 .8-1.2.4-1.2-1.5 0zm17.3.5c0 .8.4 1.2.9.9.5-.3 1.6 0 2.5.8 1.2.9 1.5.9.9.1-1.2-2.2-4.3-3.4-4.3-1.8zm7.7-.3c0 1.1 1.2 1 3-.2 1.2-.7 1-.9-.8-.7-1.2 0-2.2.5-2.2.9z"/><path d="M167.5 488c-.3.5-.2 1 .4 1 .5 0 1.3-.5 1.6-1 .3-.6.2-1-.4-1-.5 0-1.3.4-1.6 1zm98.5.4c-.9 1.2-.8 1.5.8 1.3 1.2 0 1.8-.6 1.5-1.4-.6-1.6-.8-1.6-2.3.1z"/><path d="M269.5 489.2c.6 1.6.4 2-.8 1.5-.9-.3-2.7.3-4.1 1.4-2.4 1.9-5.3 1.8-4.1-.1.3-.5.1-1.1-.4-1.4-.5-.4-1.3-.2-1.6.4-.5.8-1.4.6-3-.4-2.7-1.8-3.8-1.1-2.4 1.5.7 1.5.6 2.1-.6 2.5-1.9.8-1.9 2-.1 2.7 1.1.4 1.3.1.9-1.1-.6-1.4-.4-1.5.8-.6 2.1 1.7 7.2 1.4 8.6-.5 1.2-1.5 1.3-1.5.7 0-.3 1-.1 2 .5 2.4.6.3 1.1.2 1.1-.4 0-.6.6-.8 1.4-.5.8.3 1.7.1 2-.4.3-.5-.5-.8-1.8-.7-1.4.2-2.3-.2-2.3-1.1 0-1 .4-1.1 1.1-.4 1.5 1.5 3 1.2 1.7-.4-.9-1.1-.9-1.6 0-2.2.7-.4.9-.3.6.3-.4.6 0 1.6.9 2.3.8.7 1.3 1.9 1 2.5-.3.8.4 1 2 .7 2.8-.5 4.3-2.2 1.7-1.8-2.8.4-4.5-2.5-2.6-4.6 1.5-1.7 1.1-3.8-.8-3.8-.6 0-.7.9-.4 2.2zm-11.4 3c1.2-.8 1.8-.9 1.5-.3-.4.5-.2 1.2.4 1.6.6.4.8 1 .6 1.4-.7 1.1-5.6.7-5.7-.4-.1-.6-.5-1.9-1.1-3-.9-2-.9-2 .7 0 1.3 1.7 1.8 1.8 3.6.7zM119.5 489c-.3.5-.3 1 .1 1s-.1 1-1.2 2.2c-1.9 2.3-1.9 2.3.2.5 1.1-.9 2.1-2.4 2.1-3.2 0-1.8-.3-1.9-1.2-.5zm38.5-.6c0 .2.7.6 1.5 1 .8.3 1.5.1 1.5-.4 0-.6-.7-1-1.5-1s-1.5.2-1.5.4z"/><path d="M271.7 490.6c-1.7 2.2-1.7 2.4.3 3.4 2.1 1.1 2.7.1.9-1.7-.8-.8-.7-1.3.2-1.8.7-.5 1-.4.5.3-.3.6-.2 1.3.4 1.7.5.3 1 .1 1-.4 0-.6.5-1.1 1.1-1.1.5 0 .8.4.5.9-.3.5.1 1.4.9 2.1 1 .9 1.5.9 1.5.1 0-1.5 1.7-1.4 2.3.2.6 1.7-2.5 1.6-4.6-.1-1.3-1.1-1.5-.9-1.3 1.1.1 2.1.4 2.3 2.9 1.6 1.8-.5 2.7-.4 2.7.4s.3.8.8.2c.4-.6 1.6-1 2.7-1 1.3 0 2-.7 2-2 0-1.5.6-1.9 2.4-1.7 2 .2 2.2 0 1.1-1.3-.8-.9-1.7-1.2-2.4-.6-1.7 1.3-9.1.6-11.8-1.1-2.2-1.4-2.4-1.4-4.1.8zm13.3 4.6c0 1.2-.6.9-2.6-1.3-1.9-2.2-1.9-2.2.4-.8 1.2.8 2.2 1.7 2.2 2.1zm-201.5-5.1c-.3.4.2.6 1 .5 2.1-.3 2.8-1.3 1-1.3-.9 0-1.8.4-2 .8zm67.5-.1c0 .5.5 1 1 1 .6 0 1-.5 1-1 0-.6-.4-1-1-1-.5 0-1 .4-1 1zm4.6.7c-.6 1.4-.5 1.5.5.6.7-.7 1-1.5.7-1.8-.3-.3-.9.2-1.2 1.2zm14.1-1c-1.3 1.2-.7 2.3 1.7 3.4 1.6.8 2.3 1.7 1.9 2.8-.4 1.4-.3 1.4.6.1.7-1 1.1-1.1 1.1-.3 0 .7.5 1.3 1.2 1.3 1.5 0-2-3.8-4.3-4.5-1.1-.4-1.6-1.2-1.2-2.1.5-1.5.1-1.8-1-.7zm-64.2 1.4c-.4.6-.5 1.2-.2 1.5.2.3.7-.2 1-1.1.7-1.7.1-2-.8-.4zm19.4.6c-.8.9-.9 1.4-.2 1 .6-.4 1.3-.1 1.6.5.3.7.4.3.4-1-.1-2.6-.1-2.6-1.8-.5zm23.7 0c-.6 1.4-.5 1.5.5.6.7-.7 1-1.5.7-1.8-.3-.3-.9.2-1.2 1.2zm36.4-.5c0 .6-.3.9-.6.5-.6-.6-1.7.3-4.1 3.4-1.1 1.3-.8 1.5 1.7 1.5 1.7 0 3-.3 3-.8 0-.4.5-.8 1.1-.8.5 0 .8.4.5.8-.3.5.1.9.9.9 1.1 0 1.2-.4.3-1.4-.6-.7-.8-1.7-.4-2 .4-.4 1.1-.1 1.6.7.6.9 1 1 1 .3 0-2.3-2-2.4-4.6-.4-4.1 3.2-5.3 2.4-1.4-.9 1.9-1.6 2.9-3 2.3-3-.7 0-1.3.5-1.3 1.2z"/><path d="M189.7 491.5c1.2.9 2 2.2 1.7 2.9-.3.7.2 1.6 1.2 2 1.3.5 1.4.4.6-.7-.7-.8-.9-1.7-.5-2.1.7-.7-2.6-3.5-4.2-3.6-.5 0 0 .7 1.2 1.5zm-76.7.4c0 .6.4 1.2.8 1.5.5.3.9-.1.9-.9s-.4-1.5-.9-1.5c-.4 0-.8.4-.8.9zm31.5.2c-.4.6-.5 1.2-.2 1.5.2.3.7-.2 1-1.1.7-1.7.1-2-.8-.4zm13-.1c-.3.5-.3 1 .1 1 .3 0-.4.8-1.6 1.8-1.8 1.4-1.9 1.9-.7 1.9.9 0 1.4-.4 1.2-.8-.3-.4.2-1 1.1-1.3.8-.3 1.3-1 1-1.5-.4-.5 0-1.2.6-1.4.9-.4 1-.6.1-.6-.6-.1-1.5.3-1.8.9zm3.6-.7c.2.1 1.3.9 2.4 1.7 1.9 1.4 1.9 1.4.6-.3-.7-.9-1.8-1.7-2.4-1.7-.6 0-.8.1-.6.3zm80.9 1.2c-.7.9-1.8 1.4-2.5 1.2-.6-.3-1.2.4-1.2 1.4-.2 2.6 2.5 2.4 4.8-.4 1-1.2 1.8-2.5 1.9-3 0-1.2-1.7-.8-3 .8zm.5 1.5c-1 1.1-2.2 2-2.8 2-.5 0 .1-.9 1.4-2 3.1-2.5 3.7-2.5 1.4 0zm-89.3-1.5c.4.4-.2 1.5-1.4 2.5-1.7 1.4-1.8 1.7-.5 1.7 1 0 1.5-.3 1.2-.5-.3-.3.3-1 1.2-1.7 1.3-1 1.4-1.3.2-2-.8-.5-1.1-.5-.7 0zm-30.1 2.2c.7 1.2 1.5 2 1.8 1.7.3-.2-.3-1.2-1.3-2.2-1.7-1.6-1.8-1.6-.5.5zm25.3-.3c-1 .8-1.7 1.6-1.4 1.9.3.2 1.4-.4 2.4-1.4 2.3-2.2 1.8-2.5-1-.5zm12.3-.8c.7.3.9 1.3.6 2.2-.4 1.4-.3 1.4.5.2 1.2-1.6.7-3-1.1-2.9-.9 0-.9.2 0 .5zm126.3.4c0 .5.5 1 1 1 .6 0 1-.5 1-1 0-.6-.4-1-1-1-.5 0-1 .4-1 1zm-149 .9c0 .7-.5.9-1.2.5-.7-.5-.8-.3-.3.5.5.9 1 1 1.8.2.6-.6.8-1.4.4-1.8-.4-.3-.7-.1-.7.6zm-11.6.9c.4.3 1.4.7 2.2.8.9.1 1.3 0 1-.4-.4-.3-1.4-.7-2.2-.8-.9-.1-1.3 0-1 .4zm15.1.2c-.3.6.1.7.9.4 1.8-.7 2.1-1.4.7-1.4-.6 0-1.3.4-1.6 1zm22.1-.2c-.3.5.1.9.9.9s1.5-.4 1.5-.9c0-.4-.4-.8-.9-.8-.6 0-1.2.4-1.5.8zm5.9.2c-.3.5-.2 1 .4 1 .5 0 1.3-.5 1.6-1 .3-.6.2-1-.4-1-.5 0-1.3.4-1.6 1z"/></svg>