<svg width="200" height="44" fill="none" xmlns="http://www.w3.org/2000/svg"><path d="M64.459 24.403c-2.222 0-4.062-.314-5.52-.942-1.459-.628-2.547-1.436-3.265-2.424-.718-.987-1.134-2.053-1.246-3.197v-.068c0-.18.068-.325.202-.437a.763.763 0 01.505-.202h4.578c.27 0 .482.056.64.168.156.09.302.236.437.438.516 1.1 1.694 1.65 3.534 1.65 1.167 0 2.087-.214 2.76-.64.673-.427 1.01-1.033 1.01-1.818 0-.808-.314-1.414-.942-1.818-.606-.426-1.481-.64-2.626-.64h-2.49a.837.837 0 01-.607-.269.939.939 0 01-.235-.639v-2.861a.94.94 0 01.235-.64.837.837 0 01.606-.269h2.424c.942 0 1.683-.18 2.221-.538.539-.382.808-.965.808-1.75 0-.696-.28-1.246-.841-1.65-.539-.427-1.302-.64-2.29-.64-.942 0-1.705.146-2.288.438-.561.292-.92.707-1.077 1.245a1.228 1.228 0 01-.37.438c-.135.09-.326.135-.573.135h-4.678a.804.804 0 01-.539-.202.55.55 0 01-.202-.505c.202-1.84 1.088-3.4 2.66-4.68C58.882.809 61.283.169 64.492.169c1.885 0 3.534.303 4.948.91 1.436.605 2.535 1.424 3.298 2.456.786 1.033 1.178 2.155 1.178 3.366a6.29 6.29 0 01-.606 2.727c-.381.83-1.054 1.514-2.02 2.053 1.168.583 2.01 1.369 2.525 2.356.539.988.808 2.042.808 3.164 0 1.436-.415 2.704-1.245 3.804-.83 1.077-2.009 1.918-3.535 2.524-1.525.584-3.32.875-5.385.875zm13.12-.336a.763.763 0 01-.505-.202.763.763 0 01-.202-.505c0-.135.011-.236.034-.303l7.842-21.576c.225-.65.674-.976 1.347-.976h5.25c.674 0 1.123.325 1.347.976l7.843 21.576c.022.067.034.168.034.303 0 .18-.079.348-.236.505a.647.647 0 01-.471.202h-4.376c-.539 0-.92-.247-1.145-.74L93.13 20.06h-8.82l-1.21 3.265c-.225.494-.607.74-1.145.74h-4.376zm8.146-9.055h5.991L88.72 6.43l-2.995 8.583zm18.907 9.055a.898.898 0 01-.606-.236.896.896 0 01-.235-.606V1.38a.82.82 0 01.235-.606.768.768 0 01.606-.27h10.401c2.85 0 4.971.584 6.362 1.751 1.391 1.167 2.087 2.828 2.087 4.982 0 1.077-.292 2.008-.875 2.794-.561.785-1.19 1.357-1.885 1.716.92.404 1.694 1.077 2.322 2.02.628.92.943 1.963.943 3.13 0 2.267-.752 4.028-2.256 5.285-1.481 1.257-3.612 1.885-6.395 1.885h-10.704zm9.694-14.238c.83 0 1.47-.225 1.919-.673.449-.45.673-1.033.673-1.75 0-.696-.224-1.257-.673-1.684-.427-.449-1.066-.673-1.919-.673h-4.207v4.78h4.207zm.303 9.694c.875 0 1.548-.247 2.02-.74.493-.517.74-1.145.74-1.886 0-.763-.247-1.391-.74-1.885-.494-.516-1.167-.774-2.02-.774h-4.51v5.285h4.51zm34.301 3.399c.067.09.101.214.101.37a.78.78 0 01-.236.573.686.686 0 01-.505.202h-5.318c-.539 0-.931-.225-1.178-.673l-5.016-8.415h-2.188v8.246a.767.767 0 01-.269.606.82.82 0 01-.606.236h-4.611a.82.82 0 01-.606-.236.82.82 0 01-.236-.606V1.38a.82.82 0 01.236-.606.768.768 0 01.606-.27h4.611c.247 0 .449.09.606.27.18.157.269.36.269.606v7.977h1.885l4.847-8.179c.292-.449.719-.673 1.28-.673h5.149c.202 0 .371.067.505.202a.684.684 0 01.202.505.63.63 0 01-.134.404l-6.227 10.232 6.833 11.074zm12.382 1.481c-3.186 0-5.7-.774-7.54-2.322-1.84-1.548-2.816-3.826-2.928-6.833a90.59 90.59 0 01-.034-2.895c0-1.301.012-2.277.034-2.928.09-2.962 1.066-5.24 2.928-6.833 1.885-1.616 4.399-2.424 7.54-2.424 3.119 0 5.61.808 7.473 2.424 1.885 1.593 2.872 3.87 2.962 6.833.045 1.301.067 2.277.067 2.928 0 .673-.022 1.638-.067 2.895-.112 3.007-1.089 5.285-2.929 6.833-1.817 1.548-4.319 2.322-7.506 2.322zm0-5.048c1.167 0 2.098-.348 2.794-1.044.696-.718 1.066-1.806 1.111-3.265.045-1.301.067-2.233.067-2.794 0-.56-.022-1.47-.067-2.726-.045-1.459-.415-2.536-1.111-3.232-.696-.718-1.627-1.077-2.794-1.077-1.189 0-2.132.36-2.827 1.077-.696.696-1.066 1.773-1.111 3.232a83.446 83.446 0 00-.034 2.726c0 1.212.012 2.143.034 2.794.045 1.459.415 2.547 1.111 3.265.695.696 1.638 1.044 2.827 1.044zm15.849 4.712a.94.94 0 01-.64-.236.82.82 0 01-.235-.606V1.38a.82.82 0 01.235-.606c.18-.18.393-.27.64-.27h3.803c.561 0 .965.248 1.212.741l5.79 10.368 5.823-10.368c.247-.493.65-.74 1.211-.74h3.804c.247 0 .449.09.606.27a.77.77 0 01.269.605v21.845a.77.77 0 01-.269.606.82.82 0 01-.606.236h-4.275a.898.898 0 01-.606-.236.896.896 0 01-.235-.606V10.973l-3.636 6.665c-.291.516-.684.774-1.178.774h-1.817c-.449 0-.842-.258-1.178-.774l-3.602-6.665v12.252a.77.77 0 01-.269.606.82.82 0 01-.606.236h-4.241zM54.642 42.916a.338.338 0 01-.25-.097.387.387 0 01-.097-.264v-8.997c0-.102.032-.185.097-.25a.36.36 0 01.264-.111h1.888c.102 0 .185.037.25.111a.317.317 0 01.111.25v5.429l3.832-5.526a.528.528 0 01.472-.264h1.708c.102 0 .185.037.25.111a.338.338 0 01.097.25v9.011a.37.37 0 01-.097.25.338.338 0 01-.25.097h-1.902a.388.388 0 01-.264-.097.338.338 0 01-.097-.25v-5.22l-3.832 5.304a.648.648 0 01-.194.194.473.473 0 01-.278.07h-1.708zm15.304 0a.338.338 0 01-.25-.097.338.338 0 01-.097-.25v-9.011c0-.102.032-.185.097-.25a.317.317 0 01.25-.111h1.902c.102 0 .185.037.25.111a.317.317 0 01.111.25v3.29h3.277v-3.29c0-.102.032-.185.097-.25a.36.36 0 01.264-.111h1.888c.102 0 .186.037.25.111a.317.317 0 01.111.25v9.011a.317.317 0 01-.11.25.339.339 0 01-.25.097h-1.889a.388.388 0 01-.264-.097.338.338 0 01-.097-.25v-3.402H72.21v3.402a.317.317 0 01-.11.25.338.338 0 01-.25.097h-1.903zm28.145-.472a.25.25 0 01.042.153.321.321 0 01-.097.236.3.3 0 01-.223.083h-2.18a.515.515 0 01-.486-.277l-2.068-3.472h-.861v3.402a.317.317 0 01-.111.25.338.338 0 01-.25.097h-1.805a.338.338 0 01-.25-.097.338.338 0 01-.097-.25v-3.402h-.861l-2.069 3.472a.838.838 0 01-.194.208.502.502 0 01-.292.07h-2.194a.332.332 0 01-.222-.084.35.35 0 01-.083-.236c0-.074.01-.125.028-.153l2.818-4.568-2.569-4.22a.37.37 0 01-.041-.167.283.283 0 01.291-.292h2.11a.59.59 0 01.528.278l2 3.374h.75v-3.305c0-.102.032-.185.097-.25a.37.37 0 01.25-.097h1.805c.102 0 .185.032.25.097a.317.317 0 01.11.25v3.305h.737l2-3.374c.1-.185.277-.278.527-.278h2.11a.3.3 0 01.222.083.283.283 0 01.084.209.427.427 0 01-.056.166l-2.569 4.221 2.819 4.568zm6.07.472a.339.339 0 01-.25-.097.386.386 0 01-.097-.264v-8.997c0-.102.032-.185.097-.25a.36.36 0 01.264-.111h1.888c.102 0 .185.037.25.111a.317.317 0 01.111.25v5.429l3.832-5.526a.529.529 0 01.472-.264h1.708c.102 0 .185.037.25.111a.337.337 0 01.097.25v9.011a.368.368 0 01-.097.25.339.339 0 01-.25.097h-1.902a.387.387 0 01-.264-.097.341.341 0 01-.097-.25v-5.22l-3.832 5.304a.653.653 0 01-.194.194.475.475 0 01-.278.07h-1.708zm15.304 0a.339.339 0 01-.25-.097.337.337 0 01-.097-.25v-9.011c0-.102.032-.185.097-.25a.317.317 0 01.25-.111h1.902c.102 0 .185.037.25.111a.317.317 0 01.111.25v3.29h3.277v-3.29c0-.102.032-.185.097-.25a.36.36 0 01.264-.111h1.888c.102 0 .186.037.25.111a.317.317 0 01.111.25v9.011a.317.317 0 01-.111.25.337.337 0 01-.25.097h-1.888a.387.387 0 01-.264-.097.337.337 0 01-.097-.25v-3.402h-3.277v3.402a.317.317 0 01-.111.25.339.339 0 01-.25.097h-1.902zm14.83 0a.337.337 0 01-.25-.097.387.387 0 01-.098-.264v-8.997a.36.36 0 01.361-.361h1.889c.102 0 .185.037.25.111a.317.317 0 01.111.25v5.429l3.832-5.526a.527.527 0 01.472-.264h1.708c.102 0 .185.037.25.111a.337.337 0 01.097.25v9.011a.368.368 0 01-.097.25.339.339 0 01-.25.097h-1.902a.387.387 0 01-.264-.097.337.337 0 01-.097-.25v-5.22l-3.832 5.304a.656.656 0 01-.195.194.473.473 0 01-.278.07h-1.707zm15.304 0a.369.369 0 01-.25-.097.368.368 0 01-.097-.25v-9.011c0-.102.032-.185.097-.25a.317.317 0 01.25-.111h3.929c1.203 0 2.148.273 2.833.82.685.545 1.027 1.346 1.027 2.401 0 1.056-.342 1.847-1.027 2.375-.685.518-1.63.777-2.833.777h-1.583v3a.368.368 0 01-.097.25.339.339 0 01-.25.096h-1.999zm3.86-5.331c.379 0 .675-.098.888-.292.222-.204.333-.5.333-.889 0-.36-.101-.652-.305-.874-.194-.223-.5-.334-.916-.334h-1.555v2.389h1.555zm10.006 5.331a.336.336 0 01-.249-.097.387.387 0 01-.098-.264v-8.997a.36.36 0 01.361-.361h1.889c.101 0 .185.037.25.111a.317.317 0 01.111.25v5.429l3.832-5.526a.527.527 0 01.472-.264h1.708c.102 0 .185.037.25.111a.341.341 0 01.097.25v9.011a.373.373 0 01-.097.25.339.339 0 01-.25.097h-1.902a.387.387 0 01-.264-.097.337.337 0 01-.097-.25v-5.22l-3.833 5.304a.642.642 0 01-.194.194.473.473 0 01-.278.07h-1.708zm15.305 0a.337.337 0 01-.25-.097.338.338 0 01-.098-.25v-9.011c0-.102.033-.185.098-.25a.316.316 0 01.25-.111h1.902c.102 0 .185.037.25.111a.317.317 0 01.111.25v3.29h3.277v-3.29c0-.102.032-.185.097-.25a.36.36 0 01.264-.111h1.888c.102 0 .185.037.25.111a.317.317 0 01.111.25v9.011a.317.317 0 01-.111.25.339.339 0 01-.25.097h-1.888a.387.387 0 01-.264-.097.337.337 0 01-.097-.25v-3.402h-3.277v3.402a.317.317 0 01-.111.25.339.339 0 01-.25.097h-1.902zm14.829 0a.369.369 0 01-.25-.097.368.368 0 01-.097-.25v-9.011c0-.102.032-.185.097-.25a.317.317 0 01.25-.111h6.054c.102 0 .185.037.25.111a.341.341 0 01.097.25v1.458c0 .102-.033.19-.097.264a.339.339 0 01-.25.097h-3.791v7.192a.317.317 0 01-.111.25.339.339 0 01-.25.097h-1.902z" fill="#fff"/><path d="M1.357 0h41.896v1.696H1.357V0z" fill="url(#paint0_linear)"/><path d="M1.696 13.408V0H0v13.408h1.696zM0 28.98V13.408h22.059L0 28.98zm43.253-15.572V28.98h-22.06l22.06-15.572z" fill="#fff"/><path d="M0 40.709h41.896v1.696H0v-1.696z" fill="url(#paint1_linear)"/><path d="M41.557 27.987v14.418h1.696V27.987h-1.696z" fill="#fff"/><defs><linearGradient id="paint0_linear" x1="43.284" y1=".863" x2="1.357" y2=".863" gradientUnits="userSpaceOnUse"><stop stop-color="#fff" stop-opacity="0"/><stop offset="1" stop-color="#fff"/></linearGradient><linearGradient id="paint1_linear" x1="0" y1="41.569" x2="41.927" y2="41.569" gradientUnits="userSpaceOnUse"><stop stop-color="#fff" stop-opacity="0"/><stop offset="1" stop-color="#fff"/></linearGradient></defs></svg>