<svg width="220" height="48" fill="none" xmlns="http://www.w3.org/2000/svg"><path d="M70.904 26.844c-2.443 0-4.468-.346-6.072-1.037s-2.802-1.58-3.591-2.666c-.79-1.086-1.247-2.258-1.37-3.517v-.074c0-.198.074-.358.222-.482a.84.84 0 01.555-.222h5.036c.296 0 .53.062.703.185.173.099.333.26.481.482.568 1.21 1.864 1.814 3.888 1.814 1.284 0 2.296-.235 3.036-.704.74-.469 1.111-1.135 1.111-2 0-.888-.346-1.554-1.037-1.998-.666-.47-1.629-.704-2.888-.704h-2.74c-.246 0-.469-.099-.666-.296a1.033 1.033 0 01-.26-.704v-3.147c0-.271.087-.506.26-.703a.918.918 0 01.666-.296h2.666c1.037 0 1.852-.198 2.444-.593.592-.42.889-1.061.889-1.925 0-.766-.309-1.37-.926-1.815-.592-.469-1.432-.703-2.518-.703-1.037 0-1.876.16-2.518.481-.617.321-1.012.778-1.184 1.37-.124.222-.26.383-.408.482-.148.098-.358.148-.63.148h-5.146a.885.885 0 01-.592-.222.605.605 0 01-.222-.556c.222-2.024 1.197-3.74 2.925-5.146C64.77.889 67.412.186 70.94.186c2.074 0 3.888.332 5.443.999 1.58.666 2.79 1.567 3.629 2.703.864 1.135 1.296 2.37 1.296 3.702a6.918 6.918 0 01-.667 3c-.42.913-1.16 1.665-2.221 2.258 1.283.642 2.209 1.506 2.776 2.592a7.158 7.158 0 01.89 3.48c0 1.58-.458 2.974-1.37 4.184-.914 1.185-2.21 2.11-3.889 2.777-1.678.642-3.653.963-5.924.963zm14.432-.371a.84.84 0 01-.555-.222.84.84 0 01-.222-.555c0-.148.012-.26.037-.333l8.627-23.734c.247-.716.74-1.074 1.48-1.074h5.777c.74 0 1.234.358 1.481 1.074l8.627 23.734c.025.074.037.185.037.333 0 .197-.086.382-.259.555a.71.71 0 01-.519.222h-4.813c-.592 0-1.012-.271-1.259-.814l-1.333-3.592h-9.7l-1.334 3.592c-.246.543-.666.814-1.258.814h-4.814zm8.96-9.96h6.591l-3.295-9.441-3.296 9.442zm20.799 9.96a.988.988 0 01-.667-.259.99.99 0 01-.259-.666V1.518c0-.272.087-.494.259-.666a.846.846 0 01.667-.297h11.441c3.135 0 5.467.642 6.998 1.926 1.53 1.283 2.295 3.11 2.295 5.48 0 1.184-.32 2.209-.962 3.073-.617.864-1.308 1.493-2.074 1.888 1.012.444 1.864 1.185 2.555 2.221.691 1.012 1.037 2.16 1.037 3.444 0 2.493-.827 4.43-2.481 5.813-1.629 1.382-3.974 2.073-7.035 2.073h-11.774zm10.663-15.661c.914 0 1.617-.247 2.111-.741.494-.494.74-1.136.74-1.925 0-.766-.246-1.383-.74-1.852-.469-.493-1.173-.74-2.111-.74h-4.628v5.258h4.628zm.334 10.663c.962 0 1.703-.272 2.221-.815.543-.567.815-1.259.815-2.073 0-.84-.272-1.53-.815-2.073-.543-.568-1.283-.852-2.221-.852h-4.962v5.813h4.962zm37.73 3.74c.074.098.111.234.111.407a.856.856 0 01-.259.63.753.753 0 01-.555.221h-5.85c-.593 0-1.025-.246-1.296-.74l-5.517-9.257h-2.407v9.072a.846.846 0 01-.296.666.903.903 0 01-.667.26h-5.072a.903.903 0 01-.667-.26.905.905 0 01-.259-.666V1.518c0-.272.087-.494.259-.666a.846.846 0 01.667-.297h5.072c.272 0 .494.1.667.297a.847.847 0 01.296.666v8.775h2.074l5.331-8.997c.321-.494.79-.74 1.407-.74h5.665a.757.757 0 01.778.777c0 .173-.05.32-.148.444l-6.85 11.256 7.516 12.182zm13.621 1.629c-3.505 0-6.27-.852-8.294-2.555-2.024-1.703-3.098-4.209-3.221-7.516a97.539 97.539 0 01-.037-3.185c0-1.431.012-2.505.037-3.22.099-3.26 1.172-5.765 3.221-7.517 2.074-1.777 4.838-2.666 8.294-2.666 3.431 0 6.171.889 8.22 2.666 2.073 1.752 3.159 4.258 3.258 7.516.049 1.432.074 2.506.074 3.221 0 .74-.025 1.802-.074 3.185-.123 3.307-1.197 5.813-3.221 7.516-2 1.703-4.752 2.555-8.257 2.555zm0-5.554c1.284 0 2.308-.383 3.073-1.148.765-.79 1.173-1.987 1.222-3.591.049-1.432.074-2.457.074-3.074s-.025-1.617-.074-2.999c-.049-1.604-.457-2.789-1.222-3.554-.765-.79-1.789-1.185-3.073-1.185-1.308 0-2.345.395-3.11 1.185-.765.765-1.173 1.95-1.222 3.554a89.797 89.797 0 00-.037 3c0 1.332.012 2.357.037 3.072.049 1.605.457 2.802 1.222 3.592.765.765 1.802 1.148 3.11 1.148zm17.433 5.183a1.03 1.03 0 01-.703-.259.901.901 0 01-.259-.666V1.518c0-.272.086-.494.259-.666a.96.96 0 01.703-.297h4.184c.617 0 1.062.272 1.333.815l6.369 11.404 6.405-11.404c.272-.543.716-.815 1.333-.815h4.184c.272 0 .494.1.666.297a.844.844 0 01.297.666v24.03a.844.844 0 01-.297.666.9.9 0 01-.666.26h-4.702a.988.988 0 01-.667-.26.984.984 0 01-.259-.666V12.07l-3.999 7.331c-.321.568-.753.852-1.296.852h-1.999c-.494 0-.926-.284-1.296-.852l-3.962-7.33v13.477a.843.843 0 01-.296.666.902.902 0 01-.666.26h-4.666zM60.106 47.208a.372.372 0 01-.275-.107.426.426 0 01-.106-.29v-9.897c0-.112.035-.204.106-.275a.397.397 0 01.29-.122H62.2c.112 0 .204.04.275.122a.349.349 0 01.122.275v5.972l4.215-6.079a.58.58 0 01.52-.29h1.878c.112 0 .204.04.275.122a.372.372 0 01.107.275v9.912a.407.407 0 01-.107.275.372.372 0 01-.275.107h-2.092a.426.426 0 01-.29-.107.372.372 0 01-.107-.275v-5.742l-4.216 5.834a.713.713 0 01-.213.214.52.52 0 01-.306.076h-1.879zm16.834 0a.372.372 0 01-.274-.107.372.372 0 01-.107-.275v-9.912c0-.112.036-.204.107-.275a.349.349 0 01.275-.122h2.092c.112 0 .204.04.275.122a.349.349 0 01.122.275v3.62h3.605v-3.62a.37.37 0 01.107-.275.397.397 0 01.29-.122h2.077c.112 0 .204.04.275.122a.349.349 0 01.122.275v9.912c0 .112-.04.204-.122.275a.372.372 0 01-.275.107h-2.077a.426.426 0 01-.29-.107.372.372 0 01-.107-.275v-3.742H79.43v3.742c0 .112-.04.204-.122.275a.372.372 0 01-.275.107h-2.092zm30.96-.519c.031.04.046.096.046.168a.35.35 0 01-.107.26.329.329 0 01-.244.091h-2.398a.568.568 0 01-.535-.305l-2.275-3.819h-.947v3.742a.35.35 0 01-.122.275.373.373 0 01-.275.107h-1.986a.372.372 0 01-.275-.107.372.372 0 01-.107-.275v-3.742h-.947l-2.275 3.819a.924.924 0 01-.214.229.557.557 0 01-.32.076h-2.414a.365.365 0 01-.244-.092.385.385 0 01-.092-.26c0-.08.01-.137.03-.167l3.101-5.025-2.826-4.643a.407.407 0 01-.045-.183.31.31 0 01.091-.23.31.31 0 01.23-.091h2.32a.65.65 0 01.581.305l2.2 3.712h.824v-3.635c0-.112.036-.204.107-.275a.407.407 0 01.275-.107h1.986a.37.37 0 01.275.107.35.35 0 01.122.275v3.635h.809l2.2-3.712c.112-.203.305-.305.58-.305h2.321c.102 0 .184.03.245.091a.311.311 0 01.092.23.47.47 0 01-.062.183l-2.825 4.643 3.1 5.025zm6.677.519a.373.373 0 01-.275-.107.427.427 0 01-.107-.29v-9.897c0-.112.036-.204.107-.275a.4.4 0 01.291-.122h2.077a.35.35 0 01.275.122.35.35 0 01.122.275v5.972l4.215-6.079a.582.582 0 01.52-.29h1.878c.112 0 .204.04.275.122a.373.373 0 01.107.275v9.912a.408.408 0 01-.107.275.372.372 0 01-.275.107h-2.092a.425.425 0 01-.29-.107.37.37 0 01-.107-.275v-5.742l-4.216 5.834a.706.706 0 01-.214.214.52.52 0 01-.305.076h-1.879zm16.835 0a.372.372 0 01-.275-.107.373.373 0 01-.107-.275v-9.912c0-.112.036-.204.107-.275a.349.349 0 01.275-.122h2.092c.112 0 .204.04.275.122a.347.347 0 01.122.275v3.62h3.605v-3.62a.37.37 0 01.107-.275.396.396 0 01.29-.122h2.077c.112 0 .204.04.275.122a.35.35 0 01.122.275v9.912a.35.35 0 01-.122.275.372.372 0 01-.275.107h-2.077a.425.425 0 01-.29-.107.37.37 0 01-.107-.275v-3.742h-3.605v3.742c0 .112-.04.204-.122.275a.372.372 0 01-.275.107h-2.092zm16.312 0a.373.373 0 01-.275-.107.427.427 0 01-.107-.29v-9.897c0-.112.036-.204.107-.275a.4.4 0 01.291-.122h2.077a.35.35 0 01.275.122.35.35 0 01.122.275v5.972l4.215-6.079a.58.58 0 01.519-.29h1.879c.112 0 .204.04.275.122a.373.373 0 01.107.275v9.912a.408.408 0 01-.107.275.372.372 0 01-.275.107h-2.092a.43.43 0 01-.291-.107.372.372 0 01-.106-.275v-5.742l-4.216 5.834a.706.706 0 01-.214.214.52.52 0 01-.305.076h-1.879zm16.835 0a.406.406 0 01-.275-.107.408.408 0 01-.107-.275v-9.912c0-.112.036-.204.107-.275a.349.349 0 01.275-.122h4.322c1.324 0 2.362.3 3.116.901.753.6 1.13 1.482 1.13 2.642 0 1.161-.377 2.032-1.13 2.612-.754.57-1.792.855-3.116.855h-1.741v3.3a.408.408 0 01-.107.274.372.372 0 01-.275.107h-2.199zm4.246-5.865c.417 0 .743-.107.977-.32.245-.225.367-.55.367-.978 0-.397-.112-.718-.336-.962-.214-.245-.55-.367-1.008-.367h-1.711v2.627h1.711zm11.007 5.865a.373.373 0 01-.275-.107.427.427 0 01-.107-.29v-9.897c0-.112.036-.204.107-.275a.397.397 0 01.29-.122h2.078a.35.35 0 01.275.122.35.35 0 01.122.275v5.972l4.215-6.079a.58.58 0 01.519-.29h1.879c.112 0 .204.04.275.122a.373.373 0 01.107.275v9.912a.408.408 0 01-.107.275.372.372 0 01-.275.107h-2.092a.43.43 0 01-.291-.107.373.373 0 01-.107-.275v-5.742l-4.215 5.834a.706.706 0 01-.214.214.52.52 0 01-.305.076h-1.879zm16.835 0a.372.372 0 01-.275-.107.373.373 0 01-.107-.275v-9.912c0-.112.036-.204.107-.275a.349.349 0 01.275-.122h2.092c.112 0 .204.04.275.122a.347.347 0 01.122.275v3.62h3.605v-3.62a.37.37 0 01.107-.275.396.396 0 01.29-.122h2.077c.112 0 .204.04.275.122a.35.35 0 01.122.275v9.912a.35.35 0 01-.122.275.372.372 0 01-.275.107h-2.077a.425.425 0 01-.29-.107.37.37 0 01-.107-.275v-3.742h-3.605v3.742c0 .112-.04.204-.122.275a.372.372 0 01-.275.107h-2.092zm16.312 0a.408.408 0 01-.275-.107.408.408 0 01-.107-.275v-9.912c0-.112.036-.204.107-.275a.35.35 0 01.275-.122h6.659c.112 0 .204.04.275.122a.373.373 0 01.107.275v1.604a.427.427 0 01-.107.29.372.372 0 01-.275.107h-4.169v7.911a.348.348 0 01-.123.275.37.37 0 01-.274.107h-2.093z" fill="#483F39"/><path d="M1.493 0h46.085v1.866H1.493V0z" fill="url(#paint0_linear)"/><path d="M1.866 14.75V0H0v14.75h1.866zM0 31.877V14.75h24.265L0 31.877z" fill="#187C6A"/><path d="M47.578 14.75v17.127H23.313L47.578 14.75z" fill="#A3242D"/><path d="M0 44.78h46.086v1.865H0V44.78z" fill="url(#paint1_linear)"/><path d="M45.712 30.786v15.86h1.866v-15.86h-1.866z" fill="#A3242D"/><defs><linearGradient id="paint0_linear" x1="47.612" y1=".949" x2="1.493" y2=".949" gradientUnits="userSpaceOnUse"><stop stop-color="#187C6A" stop-opacity="0"/><stop offset="1" stop-color="#187C6A"/></linearGradient><linearGradient id="paint1_linear" x1="0" y1="45.727" x2="46.12" y2="45.727" gradientUnits="userSpaceOnUse"><stop stop-color="#A3242D" stop-opacity="0"/><stop offset="1" stop-color="#A3242D"/></linearGradient></defs></svg>